<?xml version="1.0" encoding="utf-8" standalone="no"?>
<!DOCTYPE svg PUBLIC "-//W3C//DTD SVG 1.1//EN"
  "http://www.w3.org/Graphics/SVG/1.1/DTD/svg11.dtd">
<!-- Created with matplotlib (http://matplotlib.org/) -->
<svg height="345.6pt" version="1.1" viewBox="0 0 460.8 345.6" width="460.8pt" xmlns="http://www.w3.org/2000/svg" xmlns:xlink="http://www.w3.org/1999/xlink">
 <defs>
  <style type="text/css">
*{stroke-linecap:butt;stroke-linejoin:round;}
  </style>
 </defs>
 <g id="figure_1">
  <g id="patch_1">
   <path d="M 0 345.6 
L 460.8 345.6 
L 460.8 0 
L 0 0 
z
" style="fill:#ffffff;"/>
  </g>
  <g id="axes_1">
   <g id="patch_2">
    <path d="M 57.6 307.584 
L 414.72 307.584 
L 414.72 41.472 
L 57.6 41.472 
z
" style="fill:#ffffff;"/>
   </g>
   <g id="patch_3">
    <path clip-path="url(#pa78617c613)" d="M 73.832727 307.584 
L 80.325818 307.584 
L 80.325818 277.077333 
L 73.832727 277.077333 
z
" style="fill:#4878d0;opacity:0.75;"/>
   </g>
   <g id="patch_4">
    <path clip-path="url(#pa78617c613)" d="M 80.325818 307.584 
L 86.818909 307.584 
L 86.818909 291.157333 
L 80.325818 291.157333 
z
" style="fill:#4878d0;opacity:0.75;"/>
   </g>
   <g id="patch_5">
    <path clip-path="url(#pa78617c613)" d="M 86.818909 307.584 
L 93.312 307.584 
L 93.312 277.077333 
L 86.818909 277.077333 
z
" style="fill:#4878d0;opacity:0.75;"/>
   </g>
   <g id="patch_6">
    <path clip-path="url(#pa78617c613)" d="M 93.312 307.584 
L 99.805091 307.584 
L 99.805091 258.304 
L 93.312 258.304 
z
" style="fill:#4878d0;opacity:0.75;"/>
   </g>
   <g id="patch_7">
    <path clip-path="url(#pa78617c613)" d="M 99.805091 307.584 
L 106.298182 307.584 
L 106.298182 225.450667 
L 99.805091 225.450667 
z
" style="fill:#4878d0;opacity:0.75;"/>
   </g>
   <g id="patch_8">
    <path clip-path="url(#pa78617c613)" d="M 106.298182 307.584 
L 112.791273 307.584 
L 112.791273 230.144 
L 106.298182 230.144 
z
" style="fill:#4878d0;opacity:0.75;"/>
   </g>
   <g id="patch_9">
    <path clip-path="url(#pa78617c613)" d="M 112.791273 307.584 
L 119.284364 307.584 
L 119.284364 225.450667 
L 112.791273 225.450667 
z
" style="fill:#4878d0;opacity:0.75;"/>
   </g>
   <g id="patch_10">
    <path clip-path="url(#pa78617c613)" d="M 119.284364 307.584 
L 125.777455 307.584 
L 125.777455 54.144 
L 119.284364 54.144 
z
" style="fill:#4878d0;opacity:0.75;"/>
   </g>
   <g id="patch_11">
    <path clip-path="url(#pa78617c613)" d="M 125.777455 307.584 
L 132.270545 307.584 
L 132.270545 199.637333 
L 125.777455 199.637333 
z
" style="fill:#4878d0;opacity:0.75;"/>
   </g>
   <g id="patch_12">
    <path clip-path="url(#pa78617c613)" d="M 132.270545 307.584 
L 138.763636 307.584 
L 138.763636 218.410667 
L 132.270545 218.410667 
z
" style="fill:#4878d0;opacity:0.75;"/>
   </g>
   <g id="patch_13">
    <path clip-path="url(#pa78617c613)" d="M 138.763636 307.584 
L 145.256727 307.584 
L 145.256727 204.330667 
L 138.763636 204.330667 
z
" style="fill:#4878d0;opacity:0.75;"/>
   </g>
   <g id="patch_14">
    <path clip-path="url(#pa78617c613)" d="M 145.256727 307.584 
L 151.749818 307.584 
L 151.749818 124.544 
L 145.256727 124.544 
z
" style="fill:#4878d0;opacity:0.75;"/>
   </g>
   <g id="patch_15">
    <path clip-path="url(#pa78617c613)" d="M 151.749818 307.584 
L 158.242909 307.584 
L 158.242909 213.717333 
L 151.749818 213.717333 
z
" style="fill:#4878d0;opacity:0.75;"/>
   </g>
   <g id="patch_16">
    <path clip-path="url(#pa78617c613)" d="M 158.242909 307.584 
L 164.736 307.584 
L 164.736 216.064 
L 158.242909 216.064 
z
" style="fill:#4878d0;opacity:0.75;"/>
   </g>
   <g id="patch_17">
    <path clip-path="url(#pa78617c613)" d="M 164.736 307.584 
L 171.229091 307.584 
L 171.229091 201.984 
L 164.736 201.984 
z
" style="fill:#4878d0;opacity:0.75;"/>
   </g>
   <g id="patch_18">
    <path clip-path="url(#pa78617c613)" d="M 171.229091 307.584 
L 177.722182 307.584 
L 177.722182 124.544 
L 171.229091 124.544 
z
" style="fill:#4878d0;opacity:0.75;"/>
   </g>
   <g id="patch_19">
    <path clip-path="url(#pa78617c613)" d="M 177.722182 307.584 
L 184.215273 307.584 
L 184.215273 223.104 
L 177.722182 223.104 
z
" style="fill:#4878d0;opacity:0.75;"/>
   </g>
   <g id="patch_20">
    <path clip-path="url(#pa78617c613)" d="M 184.215273 307.584 
L 190.708364 307.584 
L 190.708364 225.450667 
L 184.215273 225.450667 
z
" style="fill:#4878d0;opacity:0.75;"/>
   </g>
   <g id="patch_21">
    <path clip-path="url(#pa78617c613)" d="M 190.708364 307.584 
L 197.201455 307.584 
L 197.201455 253.610667 
L 190.708364 253.610667 
z
" style="fill:#4878d0;opacity:0.75;"/>
   </g>
   <g id="patch_22">
    <path clip-path="url(#pa78617c613)" d="M 197.201455 307.584 
L 203.694545 307.584 
L 203.694545 199.637333 
L 197.201455 199.637333 
z
" style="fill:#4878d0;opacity:0.75;"/>
   </g>
   <g id="patch_23">
    <path clip-path="url(#pa78617c613)" d="M 203.694545 307.584 
L 210.187636 307.584 
L 210.187636 246.570667 
L 203.694545 246.570667 
z
" style="fill:#4878d0;opacity:0.75;"/>
   </g>
   <g id="patch_24">
    <path clip-path="url(#pa78617c613)" d="M 210.187636 307.584 
L 216.680727 307.584 
L 216.680727 237.184 
L 210.187636 237.184 
z
" style="fill:#4878d0;opacity:0.75;"/>
   </g>
   <g id="patch_25">
    <path clip-path="url(#pa78617c613)" d="M 216.680727 307.584 
L 223.173818 307.584 
L 223.173818 265.344 
L 216.680727 265.344 
z
" style="fill:#4878d0;opacity:0.75;"/>
   </g>
   <g id="patch_26">
    <path clip-path="url(#pa78617c613)" d="M 223.173818 307.584 
L 229.666909 307.584 
L 229.666909 241.877333 
L 223.173818 241.877333 
z
" style="fill:#4878d0;opacity:0.75;"/>
   </g>
   <g id="patch_27">
    <path clip-path="url(#pa78617c613)" d="M 229.666909 307.584 
L 236.16 307.584 
L 236.16 277.077333 
L 229.666909 277.077333 
z
" style="fill:#4878d0;opacity:0.75;"/>
   </g>
   <g id="patch_28">
    <path clip-path="url(#pa78617c613)" d="M 236.16 307.584 
L 242.653091 307.584 
L 242.653091 286.464 
L 236.16 286.464 
z
" style="fill:#4878d0;opacity:0.75;"/>
   </g>
   <g id="patch_29">
    <path clip-path="url(#pa78617c613)" d="M 242.653091 307.584 
L 249.146182 307.584 
L 249.146182 272.384 
L 242.653091 272.384 
z
" style="fill:#4878d0;opacity:0.75;"/>
   </g>
   <g id="patch_30">
    <path clip-path="url(#pa78617c613)" d="M 249.146182 307.584 
L 255.639273 307.584 
L 255.639273 279.424 
L 249.146182 279.424 
z
" style="fill:#4878d0;opacity:0.75;"/>
   </g>
   <g id="patch_31">
    <path clip-path="url(#pa78617c613)" d="M 255.639273 307.584 
L 262.132364 307.584 
L 262.132364 291.157333 
L 255.639273 291.157333 
z
" style="fill:#4878d0;opacity:0.75;"/>
   </g>
   <g id="patch_32">
    <path clip-path="url(#pa78617c613)" d="M 262.132364 307.584 
L 268.625455 307.584 
L 268.625455 298.197333 
L 262.132364 298.197333 
z
" style="fill:#4878d0;opacity:0.75;"/>
   </g>
   <g id="patch_33">
    <path clip-path="url(#pa78617c613)" d="M 268.625455 307.584 
L 275.118545 307.584 
L 275.118545 298.197333 
L 268.625455 298.197333 
z
" style="fill:#4878d0;opacity:0.75;"/>
   </g>
   <g id="patch_34">
    <path clip-path="url(#pa78617c613)" d="M 275.118545 307.584 
L 281.611636 307.584 
L 281.611636 298.197333 
L 275.118545 298.197333 
z
" style="fill:#4878d0;opacity:0.75;"/>
   </g>
   <g id="patch_35">
    <path clip-path="url(#pa78617c613)" d="M 281.611636 307.584 
L 288.104727 307.584 
L 288.104727 305.237333 
L 281.611636 305.237333 
z
" style="fill:#4878d0;opacity:0.75;"/>
   </g>
   <g id="patch_36">
    <path clip-path="url(#pa78617c613)" d="M 288.104727 307.584 
L 294.597818 307.584 
L 294.597818 307.584 
L 288.104727 307.584 
z
" style="fill:#4878d0;opacity:0.75;"/>
   </g>
   <g id="patch_37">
    <path clip-path="url(#pa78617c613)" d="M 294.597818 307.584 
L 301.090909 307.584 
L 301.090909 302.890667 
L 294.597818 302.890667 
z
" style="fill:#4878d0;opacity:0.75;"/>
   </g>
   <g id="patch_38">
    <path clip-path="url(#pa78617c613)" d="M 301.090909 307.584 
L 307.584 307.584 
L 307.584 307.584 
L 301.090909 307.584 
z
" style="fill:#4878d0;opacity:0.75;"/>
   </g>
   <g id="patch_39">
    <path clip-path="url(#pa78617c613)" d="M 307.584 307.584 
L 314.077091 307.584 
L 314.077091 302.890667 
L 307.584 302.890667 
z
" style="fill:#4878d0;opacity:0.75;"/>
   </g>
   <g id="patch_40">
    <path clip-path="url(#pa78617c613)" d="M 314.077091 307.584 
L 320.570182 307.584 
L 320.570182 302.890667 
L 314.077091 302.890667 
z
" style="fill:#4878d0;opacity:0.75;"/>
   </g>
   <g id="patch_41">
    <path clip-path="url(#pa78617c613)" d="M 320.570182 307.584 
L 327.063273 307.584 
L 327.063273 307.584 
L 320.570182 307.584 
z
" style="fill:#4878d0;opacity:0.75;"/>
   </g>
   <g id="patch_42">
    <path clip-path="url(#pa78617c613)" d="M 327.063273 307.584 
L 333.556364 307.584 
L 333.556364 307.584 
L 327.063273 307.584 
z
" style="fill:#4878d0;opacity:0.75;"/>
   </g>
   <g id="patch_43">
    <path clip-path="url(#pa78617c613)" d="M 333.556364 307.584 
L 340.049455 307.584 
L 340.049455 305.237333 
L 333.556364 305.237333 
z
" style="fill:#4878d0;opacity:0.75;"/>
   </g>
   <g id="patch_44">
    <path clip-path="url(#pa78617c613)" d="M 340.049455 307.584 
L 346.542545 307.584 
L 346.542545 305.237333 
L 340.049455 305.237333 
z
" style="fill:#4878d0;opacity:0.75;"/>
   </g>
   <g id="patch_45">
    <path clip-path="url(#pa78617c613)" d="M 346.542545 307.584 
L 353.035636 307.584 
L 353.035636 300.544 
L 346.542545 300.544 
z
" style="fill:#4878d0;opacity:0.75;"/>
   </g>
   <g id="patch_46">
    <path clip-path="url(#pa78617c613)" d="M 353.035636 307.584 
L 359.528727 307.584 
L 359.528727 305.237333 
L 353.035636 305.237333 
z
" style="fill:#4878d0;opacity:0.75;"/>
   </g>
   <g id="patch_47">
    <path clip-path="url(#pa78617c613)" d="M 359.528727 307.584 
L 366.021818 307.584 
L 366.021818 305.237333 
L 359.528727 305.237333 
z
" style="fill:#4878d0;opacity:0.75;"/>
   </g>
   <g id="patch_48">
    <path clip-path="url(#pa78617c613)" d="M 366.021818 307.584 
L 372.514909 307.584 
L 372.514909 307.584 
L 366.021818 307.584 
z
" style="fill:#4878d0;opacity:0.75;"/>
   </g>
   <g id="patch_49">
    <path clip-path="url(#pa78617c613)" d="M 372.514909 307.584 
L 379.008 307.584 
L 379.008 302.890667 
L 372.514909 302.890667 
z
" style="fill:#4878d0;opacity:0.75;"/>
   </g>
   <g id="patch_50">
    <path clip-path="url(#pa78617c613)" d="M 379.008 307.584 
L 385.501091 307.584 
L 385.501091 307.584 
L 379.008 307.584 
z
" style="fill:#4878d0;opacity:0.75;"/>
   </g>
   <g id="patch_51">
    <path clip-path="url(#pa78617c613)" d="M 385.501091 307.584 
L 391.994182 307.584 
L 391.994182 307.584 
L 385.501091 307.584 
z
" style="fill:#4878d0;opacity:0.75;"/>
   </g>
   <g id="patch_52">
    <path clip-path="url(#pa78617c613)" d="M 391.994182 307.584 
L 398.487273 307.584 
L 398.487273 305.237333 
L 391.994182 305.237333 
z
" style="fill:#4878d0;opacity:0.75;"/>
   </g>
   <g id="matplotlib.axis_1">
    <g id="xtick_1">
     <g id="line2d_1">
      <defs>
       <path d="M 0 0 
L 0 3.5 
" id="m54069c001a" style="stroke:#1a1a1a;stroke-width:0.8;"/>
      </defs>
      <g>
       <use style="fill:#1a1a1a;stroke:#1a1a1a;stroke-width:0.8;" x="73.832727" xlink:href="#m54069c001a" y="307.584"/>
      </g>
     </g>
     <g id="text_1">
      <!-- 0 -->
      <defs>
       <path d="M 31.78125 66.40625 
Q 24.171875 66.40625 20.328125 58.90625 
Q 16.5 51.421875 16.5 36.375 
Q 16.5 21.390625 20.328125 13.890625 
Q 24.171875 6.390625 31.78125 6.390625 
Q 39.453125 6.390625 43.28125 13.890625 
Q 47.125 21.390625 47.125 36.375 
Q 47.125 51.421875 43.28125 58.90625 
Q 39.453125 66.40625 31.78125 66.40625 
z
M 31.78125 74.21875 
Q 44.046875 74.21875 50.515625 64.515625 
Q 56.984375 54.828125 56.984375 36.375 
Q 56.984375 17.96875 50.515625 8.265625 
Q 44.046875 -1.421875 31.78125 -1.421875 
Q 19.53125 -1.421875 13.0625 8.265625 
Q 6.59375 17.96875 6.59375 36.375 
Q 6.59375 54.828125 13.0625 64.515625 
Q 19.53125 74.21875 31.78125 74.21875 
z
" id="DejaVuSans-30"/>
      </defs>
      <g style="fill:#1a1a1a;" transform="translate(69.378977 325.221812)scale(0.14 -0.14)">
       <use xlink:href="#DejaVuSans-30"/>
      </g>
     </g>
    </g>
    <g id="xtick_2">
     <g id="line2d_2">
      <g>
       <use style="fill:#1a1a1a;stroke:#1a1a1a;stroke-width:0.8;" x="125.365195" xlink:href="#m54069c001a" y="307.584"/>
      </g>
     </g>
     <g id="text_2">
      <!-- 10 -->
      <defs>
       <path d="M 12.40625 8.296875 
L 28.515625 8.296875 
L 28.515625 63.921875 
L 10.984375 60.40625 
L 10.984375 69.390625 
L 28.421875 72.90625 
L 38.28125 72.90625 
L 38.28125 8.296875 
L 54.390625 8.296875 
L 54.390625 0 
L 12.40625 0 
z
" id="DejaVuSans-31"/>
      </defs>
      <g style="fill:#1a1a1a;" transform="translate(116.457695 325.221812)scale(0.14 -0.14)">
       <use xlink:href="#DejaVuSans-31"/>
       <use x="63.623047" xlink:href="#DejaVuSans-30"/>
      </g>
     </g>
    </g>
    <g id="xtick_3">
     <g id="line2d_3">
      <g>
       <use style="fill:#1a1a1a;stroke:#1a1a1a;stroke-width:0.8;" x="176.897662" xlink:href="#m54069c001a" y="307.584"/>
      </g>
     </g>
     <g id="text_3">
      <!-- 20 -->
      <defs>
       <path d="M 19.1875 8.296875 
L 53.609375 8.296875 
L 53.609375 0 
L 7.328125 0 
L 7.328125 8.296875 
Q 12.9375 14.109375 22.625 23.890625 
Q 32.328125 33.6875 34.8125 36.53125 
Q 39.546875 41.84375 41.421875 45.53125 
Q 43.3125 49.21875 43.3125 52.78125 
Q 43.3125 58.59375 39.234375 62.25 
Q 35.15625 65.921875 28.609375 65.921875 
Q 23.96875 65.921875 18.8125 64.3125 
Q 13.671875 62.703125 7.8125 59.421875 
L 7.8125 69.390625 
Q 13.765625 71.78125 18.9375 73 
Q 24.125 74.21875 28.421875 74.21875 
Q 39.75 74.21875 46.484375 68.546875 
Q 53.21875 62.890625 53.21875 53.421875 
Q 53.21875 48.921875 51.53125 44.890625 
Q 49.859375 40.875 45.40625 35.40625 
Q 44.1875 33.984375 37.640625 27.21875 
Q 31.109375 20.453125 19.1875 8.296875 
z
" id="DejaVuSans-32"/>
      </defs>
      <g style="fill:#1a1a1a;" transform="translate(167.990162 325.221812)scale(0.14 -0.14)">
       <use xlink:href="#DejaVuSans-32"/>
       <use x="63.623047" xlink:href="#DejaVuSans-30"/>
      </g>
     </g>
    </g>
    <g id="xtick_4">
     <g id="line2d_4">
      <g>
       <use style="fill:#1a1a1a;stroke:#1a1a1a;stroke-width:0.8;" x="228.43013" xlink:href="#m54069c001a" y="307.584"/>
      </g>
     </g>
     <g id="text_4">
      <!-- 30 -->
      <defs>
       <path d="M 40.578125 39.3125 
Q 47.65625 37.796875 51.625 33 
Q 55.609375 28.21875 55.609375 21.1875 
Q 55.609375 10.40625 48.1875 4.484375 
Q 40.765625 -1.421875 27.09375 -1.421875 
Q 22.515625 -1.421875 17.65625 -0.515625 
Q 12.796875 0.390625 7.625 2.203125 
L 7.625 11.71875 
Q 11.71875 9.328125 16.59375 8.109375 
Q 21.484375 6.890625 26.8125 6.890625 
Q 36.078125 6.890625 40.9375 10.546875 
Q 45.796875 14.203125 45.796875 21.1875 
Q 45.796875 27.640625 41.28125 31.265625 
Q 36.765625 34.90625 28.71875 34.90625 
L 20.21875 34.90625 
L 20.21875 43.015625 
L 29.109375 43.015625 
Q 36.375 43.015625 40.234375 45.921875 
Q 44.09375 48.828125 44.09375 54.296875 
Q 44.09375 59.90625 40.109375 62.90625 
Q 36.140625 65.921875 28.71875 65.921875 
Q 24.65625 65.921875 20.015625 65.03125 
Q 15.375 64.15625 9.8125 62.3125 
L 9.8125 71.09375 
Q 15.4375 72.65625 20.34375 73.4375 
Q 25.25 74.21875 29.59375 74.21875 
Q 40.828125 74.21875 47.359375 69.109375 
Q 53.90625 64.015625 53.90625 55.328125 
Q 53.90625 49.265625 50.4375 45.09375 
Q 46.96875 40.921875 40.578125 39.3125 
z
" id="DejaVuSans-33"/>
      </defs>
      <g style="fill:#1a1a1a;" transform="translate(219.52263 325.221812)scale(0.14 -0.14)">
       <use xlink:href="#DejaVuSans-33"/>
       <use x="63.623047" xlink:href="#DejaVuSans-30"/>
      </g>
     </g>
    </g>
    <g id="xtick_5">
     <g id="line2d_5">
      <g>
       <use style="fill:#1a1a1a;stroke:#1a1a1a;stroke-width:0.8;" x="279.962597" xlink:href="#m54069c001a" y="307.584"/>
      </g>
     </g>
     <g id="text_5">
      <!-- 40 -->
      <defs>
       <path d="M 37.796875 64.3125 
L 12.890625 25.390625 
L 37.796875 25.390625 
z
M 35.203125 72.90625 
L 47.609375 72.90625 
L 47.609375 25.390625 
L 58.015625 25.390625 
L 58.015625 17.1875 
L 47.609375 17.1875 
L 47.609375 0 
L 37.796875 0 
L 37.796875 17.1875 
L 4.890625 17.1875 
L 4.890625 26.703125 
z
" id="DejaVuSans-34"/>
      </defs>
      <g style="fill:#1a1a1a;" transform="translate(271.055097 325.221812)scale(0.14 -0.14)">
       <use xlink:href="#DejaVuSans-34"/>
       <use x="63.623047" xlink:href="#DejaVuSans-30"/>
      </g>
     </g>
    </g>
    <g id="xtick_6">
     <g id="line2d_6">
      <g>
       <use style="fill:#1a1a1a;stroke:#1a1a1a;stroke-width:0.8;" x="331.495065" xlink:href="#m54069c001a" y="307.584"/>
      </g>
     </g>
     <g id="text_6">
      <!-- 50 -->
      <defs>
       <path d="M 10.796875 72.90625 
L 49.515625 72.90625 
L 49.515625 64.59375 
L 19.828125 64.59375 
L 19.828125 46.734375 
Q 21.96875 47.46875 24.109375 47.828125 
Q 26.265625 48.1875 28.421875 48.1875 
Q 40.625 48.1875 47.75 41.5 
Q 54.890625 34.8125 54.890625 23.390625 
Q 54.890625 11.625 47.5625 5.09375 
Q 40.234375 -1.421875 26.90625 -1.421875 
Q 22.3125 -1.421875 17.546875 -0.640625 
Q 12.796875 0.140625 7.71875 1.703125 
L 7.71875 11.625 
Q 12.109375 9.234375 16.796875 8.0625 
Q 21.484375 6.890625 26.703125 6.890625 
Q 35.15625 6.890625 40.078125 11.328125 
Q 45.015625 15.765625 45.015625 23.390625 
Q 45.015625 31 40.078125 35.4375 
Q 35.15625 39.890625 26.703125 39.890625 
Q 22.75 39.890625 18.8125 39.015625 
Q 14.890625 38.140625 10.796875 36.28125 
z
" id="DejaVuSans-35"/>
      </defs>
      <g style="fill:#1a1a1a;" transform="translate(322.587565 325.221812)scale(0.14 -0.14)">
       <use xlink:href="#DejaVuSans-35"/>
       <use x="63.623047" xlink:href="#DejaVuSans-30"/>
      </g>
     </g>
    </g>
    <g id="xtick_7">
     <g id="line2d_7">
      <g>
       <use style="fill:#1a1a1a;stroke:#1a1a1a;stroke-width:0.8;" x="383.027532" xlink:href="#m54069c001a" y="307.584"/>
      </g>
     </g>
     <g id="text_7">
      <!-- 60 -->
      <defs>
       <path d="M 33.015625 40.375 
Q 26.375 40.375 22.484375 35.828125 
Q 18.609375 31.296875 18.609375 23.390625 
Q 18.609375 15.53125 22.484375 10.953125 
Q 26.375 6.390625 33.015625 6.390625 
Q 39.65625 6.390625 43.53125 10.953125 
Q 47.40625 15.53125 47.40625 23.390625 
Q 47.40625 31.296875 43.53125 35.828125 
Q 39.65625 40.375 33.015625 40.375 
z
M 52.59375 71.296875 
L 52.59375 62.3125 
Q 48.875 64.0625 45.09375 64.984375 
Q 41.3125 65.921875 37.59375 65.921875 
Q 27.828125 65.921875 22.671875 59.328125 
Q 17.53125 52.734375 16.796875 39.40625 
Q 19.671875 43.65625 24.015625 45.921875 
Q 28.375 48.1875 33.59375 48.1875 
Q 44.578125 48.1875 50.953125 41.515625 
Q 57.328125 34.859375 57.328125 23.390625 
Q 57.328125 12.15625 50.6875 5.359375 
Q 44.046875 -1.421875 33.015625 -1.421875 
Q 20.359375 -1.421875 13.671875 8.265625 
Q 6.984375 17.96875 6.984375 36.375 
Q 6.984375 53.65625 15.1875 63.9375 
Q 23.390625 74.21875 37.203125 74.21875 
Q 40.921875 74.21875 44.703125 73.484375 
Q 48.484375 72.75 52.59375 71.296875 
z
" id="DejaVuSans-36"/>
      </defs>
      <g style="fill:#1a1a1a;" transform="translate(374.120032 325.221812)scale(0.14 -0.14)">
       <use xlink:href="#DejaVuSans-36"/>
       <use x="63.623047" xlink:href="#DejaVuSans-30"/>
      </g>
     </g>
    </g>
    <g id="text_8">
     <!-- # SHMs in IGHV -->
     <defs>
      <path d="M 51.125 44 
L 36.921875 44 
L 32.8125 27.6875 
L 47.125 27.6875 
z
M 43.796875 71.78125 
L 38.71875 51.515625 
L 52.984375 51.515625 
L 58.109375 71.78125 
L 65.921875 71.78125 
L 60.890625 51.515625 
L 76.125 51.515625 
L 76.125 44 
L 58.984375 44 
L 54.984375 27.6875 
L 70.515625 27.6875 
L 70.515625 20.21875 
L 53.078125 20.21875 
L 48 0 
L 40.1875 0 
L 45.21875 20.21875 
L 30.90625 20.21875 
L 25.875 0 
L 18.015625 0 
L 23.09375 20.21875 
L 7.71875 20.21875 
L 7.71875 27.6875 
L 24.90625 27.6875 
L 29 44 
L 13.28125 44 
L 13.28125 51.515625 
L 30.90625 51.515625 
L 35.890625 71.78125 
z
" id="DejaVuSans-23"/>
      <path id="DejaVuSans-20"/>
      <path d="M 53.515625 70.515625 
L 53.515625 60.890625 
Q 47.90625 63.578125 42.921875 64.890625 
Q 37.9375 66.21875 33.296875 66.21875 
Q 25.25 66.21875 20.875 63.09375 
Q 16.5 59.96875 16.5 54.203125 
Q 16.5 49.359375 19.40625 46.890625 
Q 22.3125 44.4375 30.421875 42.921875 
L 36.375 41.703125 
Q 47.40625 39.59375 52.65625 34.296875 
Q 57.90625 29 57.90625 20.125 
Q 57.90625 9.515625 50.796875 4.046875 
Q 43.703125 -1.421875 29.984375 -1.421875 
Q 24.8125 -1.421875 18.96875 -0.25 
Q 13.140625 0.921875 6.890625 3.21875 
L 6.890625 13.375 
Q 12.890625 10.015625 18.65625 8.296875 
Q 24.421875 6.59375 29.984375 6.59375 
Q 38.421875 6.59375 43.015625 9.90625 
Q 47.609375 13.234375 47.609375 19.390625 
Q 47.609375 24.75 44.3125 27.78125 
Q 41.015625 30.8125 33.5 32.328125 
L 27.484375 33.5 
Q 16.453125 35.6875 11.515625 40.375 
Q 6.59375 45.0625 6.59375 53.421875 
Q 6.59375 63.09375 13.40625 68.65625 
Q 20.21875 74.21875 32.171875 74.21875 
Q 37.3125 74.21875 42.625 73.28125 
Q 47.953125 72.359375 53.515625 70.515625 
z
" id="DejaVuSans-53"/>
      <path d="M 9.8125 72.90625 
L 19.671875 72.90625 
L 19.671875 43.015625 
L 55.515625 43.015625 
L 55.515625 72.90625 
L 65.375 72.90625 
L 65.375 0 
L 55.515625 0 
L 55.515625 34.71875 
L 19.671875 34.71875 
L 19.671875 0 
L 9.8125 0 
z
" id="DejaVuSans-48"/>
      <path d="M 9.8125 72.90625 
L 24.515625 72.90625 
L 43.109375 23.296875 
L 61.8125 72.90625 
L 76.515625 72.90625 
L 76.515625 0 
L 66.890625 0 
L 66.890625 64.015625 
L 48.09375 14.015625 
L 38.1875 14.015625 
L 19.390625 64.015625 
L 19.390625 0 
L 9.8125 0 
z
" id="DejaVuSans-4d"/>
      <path d="M 44.28125 53.078125 
L 44.28125 44.578125 
Q 40.484375 46.53125 36.375 47.5 
Q 32.28125 48.484375 27.875 48.484375 
Q 21.1875 48.484375 17.84375 46.4375 
Q 14.5 44.390625 14.5 40.28125 
Q 14.5 37.15625 16.890625 35.375 
Q 19.28125 33.59375 26.515625 31.984375 
L 29.59375 31.296875 
Q 39.15625 29.25 43.1875 25.515625 
Q 47.21875 21.78125 47.21875 15.09375 
Q 47.21875 7.46875 41.1875 3.015625 
Q 35.15625 -1.421875 24.609375 -1.421875 
Q 20.21875 -1.421875 15.453125 -0.5625 
Q 10.6875 0.296875 5.421875 2 
L 5.421875 11.28125 
Q 10.40625 8.6875 15.234375 7.390625 
Q 20.0625 6.109375 24.8125 6.109375 
Q 31.15625 6.109375 34.5625 8.28125 
Q 37.984375 10.453125 37.984375 14.40625 
Q 37.984375 18.0625 35.515625 20.015625 
Q 33.0625 21.96875 24.703125 23.78125 
L 21.578125 24.515625 
Q 13.234375 26.265625 9.515625 29.90625 
Q 5.8125 33.546875 5.8125 39.890625 
Q 5.8125 47.609375 11.28125 51.796875 
Q 16.75 56 26.8125 56 
Q 31.78125 56 36.171875 55.265625 
Q 40.578125 54.546875 44.28125 53.078125 
z
" id="DejaVuSans-73"/>
      <path d="M 9.421875 54.6875 
L 18.40625 54.6875 
L 18.40625 0 
L 9.421875 0 
z
M 9.421875 75.984375 
L 18.40625 75.984375 
L 18.40625 64.59375 
L 9.421875 64.59375 
z
" id="DejaVuSans-69"/>
      <path d="M 54.890625 33.015625 
L 54.890625 0 
L 45.90625 0 
L 45.90625 32.71875 
Q 45.90625 40.484375 42.875 44.328125 
Q 39.84375 48.1875 33.796875 48.1875 
Q 26.515625 48.1875 22.3125 43.546875 
Q 18.109375 38.921875 18.109375 30.90625 
L 18.109375 0 
L 9.078125 0 
L 9.078125 54.6875 
L 18.109375 54.6875 
L 18.109375 46.1875 
Q 21.34375 51.125 25.703125 53.5625 
Q 30.078125 56 35.796875 56 
Q 45.21875 56 50.046875 50.171875 
Q 54.890625 44.34375 54.890625 33.015625 
z
" id="DejaVuSans-6e"/>
      <path d="M 9.8125 72.90625 
L 19.671875 72.90625 
L 19.671875 0 
L 9.8125 0 
z
" id="DejaVuSans-49"/>
      <path d="M 59.515625 10.40625 
L 59.515625 29.984375 
L 43.40625 29.984375 
L 43.40625 38.09375 
L 69.28125 38.09375 
L 69.28125 6.78125 
Q 63.578125 2.734375 56.6875 0.65625 
Q 49.8125 -1.421875 42 -1.421875 
Q 24.90625 -1.421875 15.25 8.5625 
Q 5.609375 18.5625 5.609375 36.375 
Q 5.609375 54.25 15.25 64.234375 
Q 24.90625 74.21875 42 74.21875 
Q 49.125 74.21875 55.546875 72.453125 
Q 61.96875 70.703125 67.390625 67.28125 
L 67.390625 56.78125 
Q 61.921875 61.421875 55.765625 63.765625 
Q 49.609375 66.109375 42.828125 66.109375 
Q 29.4375 66.109375 22.71875 58.640625 
Q 16.015625 51.171875 16.015625 36.375 
Q 16.015625 21.625 22.71875 14.15625 
Q 29.4375 6.6875 42.828125 6.6875 
Q 48.046875 6.6875 52.140625 7.59375 
Q 56.25 8.5 59.515625 10.40625 
z
" id="DejaVuSans-47"/>
      <path d="M 28.609375 0 
L 0.78125 72.90625 
L 11.078125 72.90625 
L 34.1875 11.53125 
L 57.328125 72.90625 
L 67.578125 72.90625 
L 39.796875 0 
z
" id="DejaVuSans-56"/>
     </defs>
     <g style="fill:#1a1a1a;" transform="translate(172.32375 344.290875)scale(0.16 -0.16)">
      <use xlink:href="#DejaVuSans-23"/>
      <use x="83.789062" xlink:href="#DejaVuSans-20"/>
      <use x="115.576172" xlink:href="#DejaVuSans-53"/>
      <use x="179.052734" xlink:href="#DejaVuSans-48"/>
      <use x="254.248047" xlink:href="#DejaVuSans-4d"/>
      <use x="340.527344" xlink:href="#DejaVuSans-73"/>
      <use x="392.626953" xlink:href="#DejaVuSans-20"/>
      <use x="424.414062" xlink:href="#DejaVuSans-69"/>
      <use x="452.197266" xlink:href="#DejaVuSans-6e"/>
      <use x="515.576172" xlink:href="#DejaVuSans-20"/>
      <use x="547.363281" xlink:href="#DejaVuSans-49"/>
      <use x="576.855469" xlink:href="#DejaVuSans-47"/>
      <use x="654.345703" xlink:href="#DejaVuSans-48"/>
      <use x="729.541016" xlink:href="#DejaVuSans-56"/>
     </g>
    </g>
   </g>
   <g id="matplotlib.axis_2">
    <g id="ytick_1">
     <g id="line2d_8">
      <defs>
       <path d="M 0 0 
L -3.5 0 
" id="mf238bef228" style="stroke:#1a1a1a;stroke-width:0.8;"/>
      </defs>
      <g>
       <use style="fill:#1a1a1a;stroke:#1a1a1a;stroke-width:0.8;" x="57.6" xlink:href="#mf238bef228" y="307.584"/>
      </g>
     </g>
     <g id="text_9">
      <!-- 0 -->
      <g style="fill:#1a1a1a;" transform="translate(41.6925 312.902906)scale(0.14 -0.14)">
       <use xlink:href="#DejaVuSans-30"/>
      </g>
     </g>
    </g>
    <g id="ytick_2">
     <g id="line2d_9">
      <g>
       <use style="fill:#1a1a1a;stroke:#1a1a1a;stroke-width:0.8;" x="57.6" xlink:href="#mf238bef228" y="260.650667"/>
      </g>
     </g>
     <g id="text_10">
      <!-- 20 -->
      <g style="fill:#1a1a1a;" transform="translate(32.785 265.969573)scale(0.14 -0.14)">
       <use xlink:href="#DejaVuSans-32"/>
       <use x="63.623047" xlink:href="#DejaVuSans-30"/>
      </g>
     </g>
    </g>
    <g id="ytick_3">
     <g id="line2d_10">
      <g>
       <use style="fill:#1a1a1a;stroke:#1a1a1a;stroke-width:0.8;" x="57.6" xlink:href="#mf238bef228" y="213.717333"/>
      </g>
     </g>
     <g id="text_11">
      <!-- 40 -->
      <g style="fill:#1a1a1a;" transform="translate(32.785 219.03624)scale(0.14 -0.14)">
       <use xlink:href="#DejaVuSans-34"/>
       <use x="63.623047" xlink:href="#DejaVuSans-30"/>
      </g>
     </g>
    </g>
    <g id="ytick_4">
     <g id="line2d_11">
      <g>
       <use style="fill:#1a1a1a;stroke:#1a1a1a;stroke-width:0.8;" x="57.6" xlink:href="#mf238bef228" y="166.784"/>
      </g>
     </g>
     <g id="text_12">
      <!-- 60 -->
      <g style="fill:#1a1a1a;" transform="translate(32.785 172.102906)scale(0.14 -0.14)">
       <use xlink:href="#DejaVuSans-36"/>
       <use x="63.623047" xlink:href="#DejaVuSans-30"/>
      </g>
     </g>
    </g>
    <g id="ytick_5">
     <g id="line2d_12">
      <g>
       <use style="fill:#1a1a1a;stroke:#1a1a1a;stroke-width:0.8;" x="57.6" xlink:href="#mf238bef228" y="119.850667"/>
      </g>
     </g>
     <g id="text_13">
      <!-- 80 -->
      <defs>
       <path d="M 31.78125 34.625 
Q 24.75 34.625 20.71875 30.859375 
Q 16.703125 27.09375 16.703125 20.515625 
Q 16.703125 13.921875 20.71875 10.15625 
Q 24.75 6.390625 31.78125 6.390625 
Q 38.8125 6.390625 42.859375 10.171875 
Q 46.921875 13.96875 46.921875 20.515625 
Q 46.921875 27.09375 42.890625 30.859375 
Q 38.875 34.625 31.78125 34.625 
z
M 21.921875 38.8125 
Q 15.578125 40.375 12.03125 44.71875 
Q 8.5 49.078125 8.5 55.328125 
Q 8.5 64.0625 14.71875 69.140625 
Q 20.953125 74.21875 31.78125 74.21875 
Q 42.671875 74.21875 48.875 69.140625 
Q 55.078125 64.0625 55.078125 55.328125 
Q 55.078125 49.078125 51.53125 44.71875 
Q 48 40.375 41.703125 38.8125 
Q 48.828125 37.15625 52.796875 32.3125 
Q 56.78125 27.484375 56.78125 20.515625 
Q 56.78125 9.90625 50.3125 4.234375 
Q 43.84375 -1.421875 31.78125 -1.421875 
Q 19.734375 -1.421875 13.25 4.234375 
Q 6.78125 9.90625 6.78125 20.515625 
Q 6.78125 27.484375 10.78125 32.3125 
Q 14.796875 37.15625 21.921875 38.8125 
z
M 18.3125 54.390625 
Q 18.3125 48.734375 21.84375 45.5625 
Q 25.390625 42.390625 31.78125 42.390625 
Q 38.140625 42.390625 41.71875 45.5625 
Q 45.3125 48.734375 45.3125 54.390625 
Q 45.3125 60.0625 41.71875 63.234375 
Q 38.140625 66.40625 31.78125 66.40625 
Q 25.390625 66.40625 21.84375 63.234375 
Q 18.3125 60.0625 18.3125 54.390625 
z
" id="DejaVuSans-38"/>
      </defs>
      <g style="fill:#1a1a1a;" transform="translate(32.785 125.169573)scale(0.14 -0.14)">
       <use xlink:href="#DejaVuSans-38"/>
       <use x="63.623047" xlink:href="#DejaVuSans-30"/>
      </g>
     </g>
    </g>
    <g id="ytick_6">
     <g id="line2d_13">
      <g>
       <use style="fill:#1a1a1a;stroke:#1a1a1a;stroke-width:0.8;" x="57.6" xlink:href="#mf238bef228" y="72.917333"/>
      </g>
     </g>
     <g id="text_14">
      <!-- 100 -->
      <g style="fill:#1a1a1a;" transform="translate(23.8775 78.23624)scale(0.14 -0.14)">
       <use xlink:href="#DejaVuSans-31"/>
       <use x="63.623047" xlink:href="#DejaVuSans-30"/>
       <use x="127.246094" xlink:href="#DejaVuSans-30"/>
      </g>
     </g>
    </g>
    <g id="text_15">
     <!-- # sequences -->
     <defs>
      <path d="M 56.203125 29.59375 
L 56.203125 25.203125 
L 14.890625 25.203125 
Q 15.484375 15.921875 20.484375 11.0625 
Q 25.484375 6.203125 34.421875 6.203125 
Q 39.59375 6.203125 44.453125 7.46875 
Q 49.3125 8.734375 54.109375 11.28125 
L 54.109375 2.78125 
Q 49.265625 0.734375 44.1875 -0.34375 
Q 39.109375 -1.421875 33.890625 -1.421875 
Q 20.796875 -1.421875 13.15625 6.1875 
Q 5.515625 13.8125 5.515625 26.8125 
Q 5.515625 40.234375 12.765625 48.109375 
Q 20.015625 56 32.328125 56 
Q 43.359375 56 49.78125 48.890625 
Q 56.203125 41.796875 56.203125 29.59375 
z
M 47.21875 32.234375 
Q 47.125 39.59375 43.09375 43.984375 
Q 39.0625 48.390625 32.421875 48.390625 
Q 24.90625 48.390625 20.390625 44.140625 
Q 15.875 39.890625 15.1875 32.171875 
z
" id="DejaVuSans-65"/>
      <path d="M 14.796875 27.296875 
Q 14.796875 17.390625 18.875 11.75 
Q 22.953125 6.109375 30.078125 6.109375 
Q 37.203125 6.109375 41.296875 11.75 
Q 45.40625 17.390625 45.40625 27.296875 
Q 45.40625 37.203125 41.296875 42.84375 
Q 37.203125 48.484375 30.078125 48.484375 
Q 22.953125 48.484375 18.875 42.84375 
Q 14.796875 37.203125 14.796875 27.296875 
z
M 45.40625 8.203125 
Q 42.578125 3.328125 38.25 0.953125 
Q 33.9375 -1.421875 27.875 -1.421875 
Q 17.96875 -1.421875 11.734375 6.484375 
Q 5.515625 14.40625 5.515625 27.296875 
Q 5.515625 40.1875 11.734375 48.09375 
Q 17.96875 56 27.875 56 
Q 33.9375 56 38.25 53.625 
Q 42.578125 51.265625 45.40625 46.390625 
L 45.40625 54.6875 
L 54.390625 54.6875 
L 54.390625 -20.796875 
L 45.40625 -20.796875 
z
" id="DejaVuSans-71"/>
      <path d="M 8.5 21.578125 
L 8.5 54.6875 
L 17.484375 54.6875 
L 17.484375 21.921875 
Q 17.484375 14.15625 20.5 10.265625 
Q 23.53125 6.390625 29.59375 6.390625 
Q 36.859375 6.390625 41.078125 11.03125 
Q 45.3125 15.671875 45.3125 23.6875 
L 45.3125 54.6875 
L 54.296875 54.6875 
L 54.296875 0 
L 45.3125 0 
L 45.3125 8.40625 
Q 42.046875 3.421875 37.71875 1 
Q 33.40625 -1.421875 27.6875 -1.421875 
Q 18.265625 -1.421875 13.375 4.4375 
Q 8.5 10.296875 8.5 21.578125 
z
M 31.109375 56 
z
" id="DejaVuSans-75"/>
      <path d="M 48.78125 52.59375 
L 48.78125 44.1875 
Q 44.96875 46.296875 41.140625 47.34375 
Q 37.3125 48.390625 33.40625 48.390625 
Q 24.65625 48.390625 19.8125 42.84375 
Q 14.984375 37.3125 14.984375 27.296875 
Q 14.984375 17.28125 19.8125 11.734375 
Q 24.65625 6.203125 33.40625 6.203125 
Q 37.3125 6.203125 41.140625 7.25 
Q 44.96875 8.296875 48.78125 10.40625 
L 48.78125 2.09375 
Q 45.015625 0.34375 40.984375 -0.53125 
Q 36.96875 -1.421875 32.421875 -1.421875 
Q 20.0625 -1.421875 12.78125 6.34375 
Q 5.515625 14.109375 5.515625 27.296875 
Q 5.515625 40.671875 12.859375 48.328125 
Q 20.21875 56 33.015625 56 
Q 37.15625 56 41.109375 55.140625 
Q 45.0625 54.296875 48.78125 52.59375 
z
" id="DejaVuSans-63"/>
     </defs>
     <g style="fill:#1a1a1a;" transform="translate(16.55 226.49425)rotate(-90)scale(0.16 -0.16)">
      <use xlink:href="#DejaVuSans-23"/>
      <use x="83.789062" xlink:href="#DejaVuSans-20"/>
      <use x="115.576172" xlink:href="#DejaVuSans-73"/>
      <use x="167.675781" xlink:href="#DejaVuSans-65"/>
      <use x="229.199219" xlink:href="#DejaVuSans-71"/>
      <use x="292.675781" xlink:href="#DejaVuSans-75"/>
      <use x="356.054688" xlink:href="#DejaVuSans-65"/>
      <use x="417.578125" xlink:href="#DejaVuSans-6e"/>
      <use x="480.957031" xlink:href="#DejaVuSans-63"/>
      <use x="535.9375" xlink:href="#DejaVuSans-65"/>
      <use x="597.460938" xlink:href="#DejaVuSans-73"/>
     </g>
    </g>
   </g>
   <g id="patch_53">
    <path d="M 57.6 307.584 
L 57.6 41.472 
" style="fill:none;stroke:#1a1a1a;stroke-linecap:square;stroke-linejoin:miter;stroke-width:0.8;"/>
   </g>
   <g id="patch_54">
    <path d="M 414.72 307.584 
L 414.72 41.472 
" style="fill:none;stroke:#1a1a1a;stroke-linecap:square;stroke-linejoin:miter;stroke-width:0.8;"/>
   </g>
   <g id="patch_55">
    <path d="M 57.6 307.584 
L 414.72 307.584 
" style="fill:none;stroke:#1a1a1a;stroke-linecap:square;stroke-linejoin:miter;stroke-width:0.8;"/>
   </g>
   <g id="patch_56">
    <path d="M 57.6 41.472 
L 414.72 41.472 
" style="fill:none;stroke:#1a1a1a;stroke-linecap:square;stroke-linejoin:miter;stroke-width:0.8;"/>
   </g>
   <g id="text_16">
    <!-- # SHMs in IGHV sequences -->
    <g style="fill:#1a1a1a;" transform="translate(140.698594 35.472)scale(0.14 -0.14)">
     <use xlink:href="#DejaVuSans-23"/>
     <use x="83.789062" xlink:href="#DejaVuSans-20"/>
     <use x="115.576172" xlink:href="#DejaVuSans-53"/>
     <use x="179.052734" xlink:href="#DejaVuSans-48"/>
     <use x="254.248047" xlink:href="#DejaVuSans-4d"/>
     <use x="340.527344" xlink:href="#DejaVuSans-73"/>
     <use x="392.626953" xlink:href="#DejaVuSans-20"/>
     <use x="424.414062" xlink:href="#DejaVuSans-69"/>
     <use x="452.197266" xlink:href="#DejaVuSans-6e"/>
     <use x="515.576172" xlink:href="#DejaVuSans-20"/>
     <use x="547.363281" xlink:href="#DejaVuSans-49"/>
     <use x="576.855469" xlink:href="#DejaVuSans-47"/>
     <use x="654.345703" xlink:href="#DejaVuSans-48"/>
     <use x="729.541016" xlink:href="#DejaVuSans-56"/>
     <use x="797.949219" xlink:href="#DejaVuSans-20"/>
     <use x="829.736328" xlink:href="#DejaVuSans-73"/>
     <use x="881.835938" xlink:href="#DejaVuSans-65"/>
     <use x="943.359375" xlink:href="#DejaVuSans-71"/>
     <use x="1006.835938" xlink:href="#DejaVuSans-75"/>
     <use x="1070.214844" xlink:href="#DejaVuSans-65"/>
     <use x="1131.738281" xlink:href="#DejaVuSans-6e"/>
     <use x="1195.117188" xlink:href="#DejaVuSans-63"/>
     <use x="1250.097656" xlink:href="#DejaVuSans-65"/>
     <use x="1311.621094" xlink:href="#DejaVuSans-73"/>
    </g>
   </g>
  </g>
 </g>
 <defs>
  <clipPath id="pa78617c613">
   <rect height="266.112" width="357.12" x="57.6" y="41.472"/>
  </clipPath>
 </defs>
</svg>
