<?xml version="1.0" encoding="utf-8" standalone="no"?>
<!DOCTYPE svg PUBLIC "-//W3C//DTD SVG 1.1//EN"
  "http://www.w3.org/Graphics/SVG/1.1/DTD/svg11.dtd">
<!-- Created with matplotlib (http://matplotlib.org/) -->
<svg height="576pt" version="1.1" viewBox="0 0 720 576" width="720pt" xmlns="http://www.w3.org/2000/svg" xmlns:xlink="http://www.w3.org/1999/xlink">
 <defs>
  <style type="text/css">
*{stroke-linecap:butt;stroke-linejoin:round;}
  </style>
 </defs>
 <g id="figure_1">
  <g id="patch_1">
   <path d="M 0 576 
L 720 576 
L 720 0 
L 0 0 
z
" style="fill:#ffffff;"/>
  </g>
  <g id="axes_1">
   <g id="patch_2">
    <path d="M 90 512.64 
L 648 512.64 
L 648 69.12 
L 90 69.12 
z
" style="fill:#ffffff;"/>
   </g>
   <g id="patch_3">
    <path clip-path="url(#p9ebfdfe91b)" d="M 115.363636 512.64 
L 124.224295 512.64 
L 124.224295 305.211429 
L 115.363636 305.211429 
z
" style="fill:#1f77b4;"/>
   </g>
   <g id="patch_4">
    <path clip-path="url(#p9ebfdfe91b)" d="M 126.43946 512.64 
L 135.300119 512.64 
L 135.300119 286.354286 
L 126.43946 286.354286 
z
" style="fill:#1f77b4;"/>
   </g>
   <g id="patch_5">
    <path clip-path="url(#p9ebfdfe91b)" d="M 137.515284 512.64 
L 146.375943 512.64 
L 146.375943 486.24 
L 137.515284 486.24 
z
" style="fill:#1f77b4;"/>
   </g>
   <g id="patch_6">
    <path clip-path="url(#p9ebfdfe91b)" d="M 148.591108 512.64 
L 157.451767 512.64 
L 157.451767 490.011429 
L 148.591108 490.011429 
z
" style="fill:#1f77b4;"/>
   </g>
   <g id="patch_7">
    <path clip-path="url(#p9ebfdfe91b)" d="M 159.666931 512.64 
L 168.52759 512.64 
L 168.52759 418.354286 
L 159.666931 418.354286 
z
" style="fill:#1f77b4;"/>
   </g>
   <g id="patch_8">
    <path clip-path="url(#p9ebfdfe91b)" d="M 170.742755 512.64 
L 179.603414 512.64 
L 179.603414 486.24 
L 170.742755 486.24 
z
" style="fill:#1f77b4;"/>
   </g>
   <g id="patch_9">
    <path clip-path="url(#p9ebfdfe91b)" d="M 181.818579 512.64 
L 190.679238 512.64 
L 190.679238 369.325714 
L 181.818579 369.325714 
z
" style="fill:#1f77b4;"/>
   </g>
   <g id="patch_10">
    <path clip-path="url(#p9ebfdfe91b)" d="M 192.894403 512.64 
L 201.755062 512.64 
L 201.755062 508.868571 
L 192.894403 508.868571 
z
" style="fill:#1f77b4;"/>
   </g>
   <g id="patch_11">
    <path clip-path="url(#p9ebfdfe91b)" d="M 203.970226 512.64 
L 212.830885 512.64 
L 212.830885 373.097143 
L 203.970226 373.097143 
z
" style="fill:#1f77b4;"/>
   </g>
   <g id="patch_12">
    <path clip-path="url(#p9ebfdfe91b)" d="M 215.04605 512.64 
L 223.906709 512.64 
L 223.906709 486.24 
L 215.04605 486.24 
z
" style="fill:#1f77b4;"/>
   </g>
   <g id="patch_13">
    <path clip-path="url(#p9ebfdfe91b)" d="M 226.121874 512.64 
L 234.982533 512.64 
L 234.982533 497.554286 
L 226.121874 497.554286 
z
" style="fill:#1f77b4;"/>
   </g>
   <g id="patch_14">
    <path clip-path="url(#p9ebfdfe91b)" d="M 237.197697 512.64 
L 246.058356 512.64 
L 246.058356 440.982857 
L 237.197697 440.982857 
z
" style="fill:#1f77b4;"/>
   </g>
   <g id="patch_15">
    <path clip-path="url(#p9ebfdfe91b)" d="M 248.273521 512.64 
L 257.13418 512.64 
L 257.13418 474.925714 
L 248.273521 474.925714 
z
" style="fill:#1f77b4;"/>
   </g>
   <g id="patch_16">
    <path clip-path="url(#p9ebfdfe91b)" d="M 259.349345 512.64 
L 268.210004 512.64 
L 268.210004 452.297143 
L 259.349345 452.297143 
z
" style="fill:#1f77b4;"/>
   </g>
   <g id="patch_17">
    <path clip-path="url(#p9ebfdfe91b)" d="M 270.425169 512.64 
L 279.285828 512.64 
L 279.285828 433.44 
L 270.425169 433.44 
z
" style="fill:#1f77b4;"/>
   </g>
   <g id="patch_18">
    <path clip-path="url(#p9ebfdfe91b)" d="M 281.500992 512.64 
L 290.361651 512.64 
L 290.361651 508.868571 
L 281.500992 508.868571 
z
" style="fill:#1f77b4;"/>
   </g>
   <g id="patch_19">
    <path clip-path="url(#p9ebfdfe91b)" d="M 292.576816 512.64 
L 301.437475 512.64 
L 301.437475 90.24 
L 292.576816 90.24 
z
" style="fill:#1f77b4;"/>
   </g>
   <g id="patch_20">
    <path clip-path="url(#p9ebfdfe91b)" d="M 303.65264 512.64 
L 312.513299 512.64 
L 312.513299 169.44 
L 303.65264 169.44 
z
" style="fill:#1f77b4;"/>
   </g>
   <g id="patch_21">
    <path clip-path="url(#p9ebfdfe91b)" d="M 314.728464 512.64 
L 323.589123 512.64 
L 323.589123 429.668571 
L 314.728464 429.668571 
z
" style="fill:#1f77b4;"/>
   </g>
   <g id="patch_22">
    <path clip-path="url(#p9ebfdfe91b)" d="M 325.804287 512.64 
L 334.664946 512.64 
L 334.664946 433.44 
L 325.804287 433.44 
z
" style="fill:#1f77b4;"/>
   </g>
   <g id="patch_23">
    <path clip-path="url(#p9ebfdfe91b)" d="M 336.880111 512.64 
L 345.74077 512.64 
L 345.74077 486.24 
L 336.880111 486.24 
z
" style="fill:#1f77b4;"/>
   </g>
   <g id="patch_24">
    <path clip-path="url(#p9ebfdfe91b)" d="M 347.955935 512.64 
L 356.816594 512.64 
L 356.816594 418.354286 
L 347.955935 418.354286 
z
" style="fill:#1f77b4;"/>
   </g>
   <g id="patch_25">
    <path clip-path="url(#p9ebfdfe91b)" d="M 359.031759 512.64 
L 367.892418 512.64 
L 367.892418 501.325714 
L 359.031759 501.325714 
z
" style="fill:#1f77b4;"/>
   </g>
   <g id="patch_26">
    <path clip-path="url(#p9ebfdfe91b)" d="M 370.107582 512.64 
L 378.968241 512.64 
L 378.968241 399.497143 
L 370.107582 399.497143 
z
" style="fill:#1f77b4;"/>
   </g>
   <g id="patch_27">
    <path clip-path="url(#p9ebfdfe91b)" d="M 381.183406 512.64 
L 390.044065 512.64 
L 390.044065 478.697143 
L 381.183406 478.697143 
z
" style="fill:#1f77b4;"/>
   </g>
   <g id="patch_28">
    <path clip-path="url(#p9ebfdfe91b)" d="M 392.25923 512.64 
L 401.119889 512.64 
L 401.119889 459.84 
L 392.25923 459.84 
z
" style="fill:#1f77b4;"/>
   </g>
   <g id="patch_29">
    <path clip-path="url(#p9ebfdfe91b)" d="M 403.335054 512.64 
L 412.195713 512.64 
L 412.195713 403.268571 
L 403.335054 403.268571 
z
" style="fill:#1f77b4;"/>
   </g>
   <g id="patch_30">
    <path clip-path="url(#p9ebfdfe91b)" d="M 414.410877 512.64 
L 423.271536 512.64 
L 423.271536 256.182857 
L 414.410877 256.182857 
z
" style="fill:#1f77b4;"/>
   </g>
   <g id="patch_31">
    <path clip-path="url(#p9ebfdfe91b)" d="M 425.486701 512.64 
L 434.34736 512.64 
L 434.34736 497.554286 
L 425.486701 497.554286 
z
" style="fill:#1f77b4;"/>
   </g>
   <g id="patch_32">
    <path clip-path="url(#p9ebfdfe91b)" d="M 436.562525 512.64 
L 445.423184 512.64 
L 445.423184 501.325714 
L 436.562525 501.325714 
z
" style="fill:#1f77b4;"/>
   </g>
   <g id="patch_33">
    <path clip-path="url(#p9ebfdfe91b)" d="M 447.638349 512.64 
L 456.499008 512.64 
L 456.499008 456.068571 
L 447.638349 456.068571 
z
" style="fill:#1f77b4;"/>
   </g>
   <g id="patch_34">
    <path clip-path="url(#p9ebfdfe91b)" d="M 458.714172 512.64 
L 467.574831 512.64 
L 467.574831 425.897143 
L 458.714172 425.897143 
z
" style="fill:#1f77b4;"/>
   </g>
   <g id="patch_35">
    <path clip-path="url(#p9ebfdfe91b)" d="M 469.789996 512.64 
L 478.650655 512.64 
L 478.650655 508.868571 
L 469.789996 508.868571 
z
" style="fill:#1f77b4;"/>
   </g>
   <g id="patch_36">
    <path clip-path="url(#p9ebfdfe91b)" d="M 480.86582 512.64 
L 489.726479 512.64 
L 489.726479 493.782857 
L 480.86582 493.782857 
z
" style="fill:#1f77b4;"/>
   </g>
   <g id="patch_37">
    <path clip-path="url(#p9ebfdfe91b)" d="M 491.941644 512.64 
L 500.802303 512.64 
L 500.802303 486.24 
L 491.941644 486.24 
z
" style="fill:#1f77b4;"/>
   </g>
   <g id="patch_38">
    <path clip-path="url(#p9ebfdfe91b)" d="M 503.017467 512.64 
L 511.878126 512.64 
L 511.878126 486.24 
L 503.017467 486.24 
z
" style="fill:#1f77b4;"/>
   </g>
   <g id="patch_39">
    <path clip-path="url(#p9ebfdfe91b)" d="M 514.093291 512.64 
L 522.95395 512.64 
L 522.95395 422.125714 
L 514.093291 422.125714 
z
" style="fill:#1f77b4;"/>
   </g>
   <g id="patch_40">
    <path clip-path="url(#p9ebfdfe91b)" d="M 525.169115 512.64 
L 534.029774 512.64 
L 534.029774 474.925714 
L 525.169115 474.925714 
z
" style="fill:#1f77b4;"/>
   </g>
   <g id="patch_41">
    <path clip-path="url(#p9ebfdfe91b)" d="M 536.244938 512.64 
L 545.105597 512.64 
L 545.105597 407.04 
L 536.244938 407.04 
z
" style="fill:#1f77b4;"/>
   </g>
   <g id="patch_42">
    <path clip-path="url(#p9ebfdfe91b)" d="M 547.320762 512.64 
L 556.181421 512.64 
L 556.181421 425.897143 
L 547.320762 425.897143 
z
" style="fill:#1f77b4;"/>
   </g>
   <g id="patch_43">
    <path clip-path="url(#p9ebfdfe91b)" d="M 558.396586 512.64 
L 567.257245 512.64 
L 567.257245 418.354286 
L 558.396586 418.354286 
z
" style="fill:#1f77b4;"/>
   </g>
   <g id="patch_44">
    <path clip-path="url(#p9ebfdfe91b)" d="M 569.47241 512.64 
L 578.333069 512.64 
L 578.333069 490.011429 
L 569.47241 490.011429 
z
" style="fill:#1f77b4;"/>
   </g>
   <g id="patch_45">
    <path clip-path="url(#p9ebfdfe91b)" d="M 580.548233 512.64 
L 589.408892 512.64 
L 589.408892 478.697143 
L 580.548233 478.697143 
z
" style="fill:#1f77b4;"/>
   </g>
   <g id="patch_46">
    <path clip-path="url(#p9ebfdfe91b)" d="M 591.624057 512.64 
L 600.484716 512.64 
L 600.484716 305.211429 
L 591.624057 305.211429 
z
" style="fill:#1f77b4;"/>
   </g>
   <g id="patch_47">
    <path clip-path="url(#p9ebfdfe91b)" d="M 602.699881 512.64 
L 611.56054 512.64 
L 611.56054 478.697143 
L 602.699881 478.697143 
z
" style="fill:#1f77b4;"/>
   </g>
   <g id="patch_48">
    <path clip-path="url(#p9ebfdfe91b)" d="M 613.775705 512.64 
L 622.636364 512.64 
L 622.636364 508.868571 
L 613.775705 508.868571 
z
" style="fill:#1f77b4;"/>
   </g>
   <g id="matplotlib.axis_1">
    <g id="xtick_1">
     <g id="line2d_1">
      <defs>
       <path d="M 0 0 
L 0 3.5 
" id="m0fc1b9e66b" style="stroke:#000000;stroke-width:0.8;"/>
      </defs>
      <g>
       <use style="stroke:#000000;stroke-width:0.8;" x="119.793966" xlink:href="#m0fc1b9e66b" y="512.64"/>
      </g>
     </g>
     <g id="text_1">
      <!-- IGHV1-18 -->
      <defs>
       <path d="M 9.8125 72.90625 
L 19.671875 72.90625 
L 19.671875 0 
L 9.8125 0 
z
" id="DejaVuSans-49"/>
       <path d="M 59.515625 10.40625 
L 59.515625 29.984375 
L 43.40625 29.984375 
L 43.40625 38.09375 
L 69.28125 38.09375 
L 69.28125 6.78125 
Q 63.578125 2.734375 56.6875 0.65625 
Q 49.8125 -1.421875 42 -1.421875 
Q 24.90625 -1.421875 15.25 8.5625 
Q 5.609375 18.5625 5.609375 36.375 
Q 5.609375 54.25 15.25 64.234375 
Q 24.90625 74.21875 42 74.21875 
Q 49.125 74.21875 55.546875 72.453125 
Q 61.96875 70.703125 67.390625 67.28125 
L 67.390625 56.78125 
Q 61.921875 61.421875 55.765625 63.765625 
Q 49.609375 66.109375 42.828125 66.109375 
Q 29.4375 66.109375 22.71875 58.640625 
Q 16.015625 51.171875 16.015625 36.375 
Q 16.015625 21.625 22.71875 14.15625 
Q 29.4375 6.6875 42.828125 6.6875 
Q 48.046875 6.6875 52.140625 7.59375 
Q 56.25 8.5 59.515625 10.40625 
z
" id="DejaVuSans-47"/>
       <path d="M 9.8125 72.90625 
L 19.671875 72.90625 
L 19.671875 43.015625 
L 55.515625 43.015625 
L 55.515625 72.90625 
L 65.375 72.90625 
L 65.375 0 
L 55.515625 0 
L 55.515625 34.71875 
L 19.671875 34.71875 
L 19.671875 0 
L 9.8125 0 
z
" id="DejaVuSans-48"/>
       <path d="M 28.609375 0 
L 0.78125 72.90625 
L 11.078125 72.90625 
L 34.1875 11.53125 
L 57.328125 72.90625 
L 67.578125 72.90625 
L 39.796875 0 
z
" id="DejaVuSans-56"/>
       <path d="M 12.40625 8.296875 
L 28.515625 8.296875 
L 28.515625 63.921875 
L 10.984375 60.40625 
L 10.984375 69.390625 
L 28.421875 72.90625 
L 38.28125 72.90625 
L 38.28125 8.296875 
L 54.390625 8.296875 
L 54.390625 0 
L 12.40625 0 
z
" id="DejaVuSans-31"/>
       <path d="M 4.890625 31.390625 
L 31.203125 31.390625 
L 31.203125 23.390625 
L 4.890625 23.390625 
z
" id="DejaVuSans-2d"/>
       <path d="M 31.78125 34.625 
Q 24.75 34.625 20.71875 30.859375 
Q 16.703125 27.09375 16.703125 20.515625 
Q 16.703125 13.921875 20.71875 10.15625 
Q 24.75 6.390625 31.78125 6.390625 
Q 38.8125 6.390625 42.859375 10.171875 
Q 46.921875 13.96875 46.921875 20.515625 
Q 46.921875 27.09375 42.890625 30.859375 
Q 38.875 34.625 31.78125 34.625 
z
M 21.921875 38.8125 
Q 15.578125 40.375 12.03125 44.71875 
Q 8.5 49.078125 8.5 55.328125 
Q 8.5 64.0625 14.71875 69.140625 
Q 20.953125 74.21875 31.78125 74.21875 
Q 42.671875 74.21875 48.875 69.140625 
Q 55.078125 64.0625 55.078125 55.328125 
Q 55.078125 49.078125 51.53125 44.71875 
Q 48 40.375 41.703125 38.8125 
Q 48.828125 37.15625 52.796875 32.3125 
Q 56.78125 27.484375 56.78125 20.515625 
Q 56.78125 9.90625 50.3125 4.234375 
Q 43.84375 -1.421875 31.78125 -1.421875 
Q 19.734375 -1.421875 13.25 4.234375 
Q 6.78125 9.90625 6.78125 20.515625 
Q 6.78125 27.484375 10.78125 32.3125 
Q 14.796875 37.15625 21.921875 38.8125 
z
M 18.3125 54.390625 
Q 18.3125 48.734375 21.84375 45.5625 
Q 25.390625 42.390625 31.78125 42.390625 
Q 38.140625 42.390625 41.71875 45.5625 
Q 45.3125 48.734375 45.3125 54.390625 
Q 45.3125 60.0625 41.71875 63.234375 
Q 38.140625 66.40625 31.78125 66.40625 
Q 25.390625 66.40625 21.84375 63.234375 
Q 18.3125 60.0625 18.3125 54.390625 
z
" id="DejaVuSans-38"/>
      </defs>
      <g transform="translate(122.553341 567.394688)rotate(-90)scale(0.1 -0.1)">
       <use xlink:href="#DejaVuSans-49"/>
       <use x="29.492188" xlink:href="#DejaVuSans-47"/>
       <use x="106.982422" xlink:href="#DejaVuSans-48"/>
       <use x="182.177734" xlink:href="#DejaVuSans-56"/>
       <use x="250.585938" xlink:href="#DejaVuSans-31"/>
       <use x="314.208984" xlink:href="#DejaVuSans-2d"/>
       <use x="350.292969" xlink:href="#DejaVuSans-31"/>
       <use x="413.916016" xlink:href="#DejaVuSans-38"/>
      </g>
     </g>
    </g>
    <g id="xtick_2">
     <g id="line2d_2">
      <g>
       <use style="stroke:#000000;stroke-width:0.8;" x="130.86979" xlink:href="#m0fc1b9e66b" y="512.64"/>
      </g>
     </g>
     <g id="text_2">
      <!-- IGHV1-2 -->
      <defs>
       <path d="M 19.1875 8.296875 
L 53.609375 8.296875 
L 53.609375 0 
L 7.328125 0 
L 7.328125 8.296875 
Q 12.9375 14.109375 22.625 23.890625 
Q 32.328125 33.6875 34.8125 36.53125 
Q 39.546875 41.84375 41.421875 45.53125 
Q 43.3125 49.21875 43.3125 52.78125 
Q 43.3125 58.59375 39.234375 62.25 
Q 35.15625 65.921875 28.609375 65.921875 
Q 23.96875 65.921875 18.8125 64.3125 
Q 13.671875 62.703125 7.8125 59.421875 
L 7.8125 69.390625 
Q 13.765625 71.78125 18.9375 73 
Q 24.125 74.21875 28.421875 74.21875 
Q 39.75 74.21875 46.484375 68.546875 
Q 53.21875 62.890625 53.21875 53.421875 
Q 53.21875 48.921875 51.53125 44.890625 
Q 49.859375 40.875 45.40625 35.40625 
Q 44.1875 33.984375 37.640625 27.21875 
Q 31.109375 20.453125 19.1875 8.296875 
z
" id="DejaVuSans-32"/>
      </defs>
      <g transform="translate(133.629165 561.032187)rotate(-90)scale(0.1 -0.1)">
       <use xlink:href="#DejaVuSans-49"/>
       <use x="29.492188" xlink:href="#DejaVuSans-47"/>
       <use x="106.982422" xlink:href="#DejaVuSans-48"/>
       <use x="182.177734" xlink:href="#DejaVuSans-56"/>
       <use x="250.585938" xlink:href="#DejaVuSans-31"/>
       <use x="314.208984" xlink:href="#DejaVuSans-2d"/>
       <use x="350.292969" xlink:href="#DejaVuSans-32"/>
      </g>
     </g>
    </g>
    <g id="xtick_3">
     <g id="line2d_3">
      <g>
       <use style="stroke:#000000;stroke-width:0.8;" x="141.945613" xlink:href="#m0fc1b9e66b" y="512.64"/>
      </g>
     </g>
     <g id="text_3">
      <!-- IGHV1-24 -->
      <defs>
       <path d="M 37.796875 64.3125 
L 12.890625 25.390625 
L 37.796875 25.390625 
z
M 35.203125 72.90625 
L 47.609375 72.90625 
L 47.609375 25.390625 
L 58.015625 25.390625 
L 58.015625 17.1875 
L 47.609375 17.1875 
L 47.609375 0 
L 37.796875 0 
L 37.796875 17.1875 
L 4.890625 17.1875 
L 4.890625 26.703125 
z
" id="DejaVuSans-34"/>
      </defs>
      <g transform="translate(144.704988 567.394688)rotate(-90)scale(0.1 -0.1)">
       <use xlink:href="#DejaVuSans-49"/>
       <use x="29.492188" xlink:href="#DejaVuSans-47"/>
       <use x="106.982422" xlink:href="#DejaVuSans-48"/>
       <use x="182.177734" xlink:href="#DejaVuSans-56"/>
       <use x="250.585938" xlink:href="#DejaVuSans-31"/>
       <use x="314.208984" xlink:href="#DejaVuSans-2d"/>
       <use x="350.292969" xlink:href="#DejaVuSans-32"/>
       <use x="413.916016" xlink:href="#DejaVuSans-34"/>
      </g>
     </g>
    </g>
    <g id="xtick_4">
     <g id="line2d_4">
      <g>
       <use style="stroke:#000000;stroke-width:0.8;" x="153.021437" xlink:href="#m0fc1b9e66b" y="512.64"/>
      </g>
     </g>
     <g id="text_4">
      <!-- IGHV1-3 -->
      <defs>
       <path d="M 40.578125 39.3125 
Q 47.65625 37.796875 51.625 33 
Q 55.609375 28.21875 55.609375 21.1875 
Q 55.609375 10.40625 48.1875 4.484375 
Q 40.765625 -1.421875 27.09375 -1.421875 
Q 22.515625 -1.421875 17.65625 -0.515625 
Q 12.796875 0.390625 7.625 2.203125 
L 7.625 11.71875 
Q 11.71875 9.328125 16.59375 8.109375 
Q 21.484375 6.890625 26.8125 6.890625 
Q 36.078125 6.890625 40.9375 10.546875 
Q 45.796875 14.203125 45.796875 21.1875 
Q 45.796875 27.640625 41.28125 31.265625 
Q 36.765625 34.90625 28.71875 34.90625 
L 20.21875 34.90625 
L 20.21875 43.015625 
L 29.109375 43.015625 
Q 36.375 43.015625 40.234375 45.921875 
Q 44.09375 48.828125 44.09375 54.296875 
Q 44.09375 59.90625 40.109375 62.90625 
Q 36.140625 65.921875 28.71875 65.921875 
Q 24.65625 65.921875 20.015625 65.03125 
Q 15.375 64.15625 9.8125 62.3125 
L 9.8125 71.09375 
Q 15.4375 72.65625 20.34375 73.4375 
Q 25.25 74.21875 29.59375 74.21875 
Q 40.828125 74.21875 47.359375 69.109375 
Q 53.90625 64.015625 53.90625 55.328125 
Q 53.90625 49.265625 50.4375 45.09375 
Q 46.96875 40.921875 40.578125 39.3125 
z
" id="DejaVuSans-33"/>
      </defs>
      <g transform="translate(155.780812 561.032187)rotate(-90)scale(0.1 -0.1)">
       <use xlink:href="#DejaVuSans-49"/>
       <use x="29.492188" xlink:href="#DejaVuSans-47"/>
       <use x="106.982422" xlink:href="#DejaVuSans-48"/>
       <use x="182.177734" xlink:href="#DejaVuSans-56"/>
       <use x="250.585938" xlink:href="#DejaVuSans-31"/>
       <use x="314.208984" xlink:href="#DejaVuSans-2d"/>
       <use x="350.292969" xlink:href="#DejaVuSans-33"/>
      </g>
     </g>
    </g>
    <g id="xtick_5">
     <g id="line2d_5">
      <g>
       <use style="stroke:#000000;stroke-width:0.8;" x="164.097261" xlink:href="#m0fc1b9e66b" y="512.64"/>
      </g>
     </g>
     <g id="text_5">
      <!-- IGHV1-46 -->
      <defs>
       <path d="M 33.015625 40.375 
Q 26.375 40.375 22.484375 35.828125 
Q 18.609375 31.296875 18.609375 23.390625 
Q 18.609375 15.53125 22.484375 10.953125 
Q 26.375 6.390625 33.015625 6.390625 
Q 39.65625 6.390625 43.53125 10.953125 
Q 47.40625 15.53125 47.40625 23.390625 
Q 47.40625 31.296875 43.53125 35.828125 
Q 39.65625 40.375 33.015625 40.375 
z
M 52.59375 71.296875 
L 52.59375 62.3125 
Q 48.875 64.0625 45.09375 64.984375 
Q 41.3125 65.921875 37.59375 65.921875 
Q 27.828125 65.921875 22.671875 59.328125 
Q 17.53125 52.734375 16.796875 39.40625 
Q 19.671875 43.65625 24.015625 45.921875 
Q 28.375 48.1875 33.59375 48.1875 
Q 44.578125 48.1875 50.953125 41.515625 
Q 57.328125 34.859375 57.328125 23.390625 
Q 57.328125 12.15625 50.6875 5.359375 
Q 44.046875 -1.421875 33.015625 -1.421875 
Q 20.359375 -1.421875 13.671875 8.265625 
Q 6.984375 17.96875 6.984375 36.375 
Q 6.984375 53.65625 15.1875 63.9375 
Q 23.390625 74.21875 37.203125 74.21875 
Q 40.921875 74.21875 44.703125 73.484375 
Q 48.484375 72.75 52.59375 71.296875 
z
" id="DejaVuSans-36"/>
      </defs>
      <g transform="translate(166.856636 567.394688)rotate(-90)scale(0.1 -0.1)">
       <use xlink:href="#DejaVuSans-49"/>
       <use x="29.492188" xlink:href="#DejaVuSans-47"/>
       <use x="106.982422" xlink:href="#DejaVuSans-48"/>
       <use x="182.177734" xlink:href="#DejaVuSans-56"/>
       <use x="250.585938" xlink:href="#DejaVuSans-31"/>
       <use x="314.208984" xlink:href="#DejaVuSans-2d"/>
       <use x="350.292969" xlink:href="#DejaVuSans-34"/>
       <use x="413.916016" xlink:href="#DejaVuSans-36"/>
      </g>
     </g>
    </g>
    <g id="xtick_6">
     <g id="line2d_6">
      <g>
       <use style="stroke:#000000;stroke-width:0.8;" x="175.173085" xlink:href="#m0fc1b9e66b" y="512.64"/>
      </g>
     </g>
     <g id="text_6">
      <!-- IGHV1-58 -->
      <defs>
       <path d="M 10.796875 72.90625 
L 49.515625 72.90625 
L 49.515625 64.59375 
L 19.828125 64.59375 
L 19.828125 46.734375 
Q 21.96875 47.46875 24.109375 47.828125 
Q 26.265625 48.1875 28.421875 48.1875 
Q 40.625 48.1875 47.75 41.5 
Q 54.890625 34.8125 54.890625 23.390625 
Q 54.890625 11.625 47.5625 5.09375 
Q 40.234375 -1.421875 26.90625 -1.421875 
Q 22.3125 -1.421875 17.546875 -0.640625 
Q 12.796875 0.140625 7.71875 1.703125 
L 7.71875 11.625 
Q 12.109375 9.234375 16.796875 8.0625 
Q 21.484375 6.890625 26.703125 6.890625 
Q 35.15625 6.890625 40.078125 11.328125 
Q 45.015625 15.765625 45.015625 23.390625 
Q 45.015625 31 40.078125 35.4375 
Q 35.15625 39.890625 26.703125 39.890625 
Q 22.75 39.890625 18.8125 39.015625 
Q 14.890625 38.140625 10.796875 36.28125 
z
" id="DejaVuSans-35"/>
      </defs>
      <g transform="translate(177.93246 567.394688)rotate(-90)scale(0.1 -0.1)">
       <use xlink:href="#DejaVuSans-49"/>
       <use x="29.492188" xlink:href="#DejaVuSans-47"/>
       <use x="106.982422" xlink:href="#DejaVuSans-48"/>
       <use x="182.177734" xlink:href="#DejaVuSans-56"/>
       <use x="250.585938" xlink:href="#DejaVuSans-31"/>
       <use x="314.208984" xlink:href="#DejaVuSans-2d"/>
       <use x="350.292969" xlink:href="#DejaVuSans-35"/>
       <use x="413.916016" xlink:href="#DejaVuSans-38"/>
      </g>
     </g>
    </g>
    <g id="xtick_7">
     <g id="line2d_7">
      <g>
       <use style="stroke:#000000;stroke-width:0.8;" x="186.248908" xlink:href="#m0fc1b9e66b" y="512.64"/>
      </g>
     </g>
     <g id="text_7">
      <!-- IGHV1-69 -->
      <defs>
       <path d="M 10.984375 1.515625 
L 10.984375 10.5 
Q 14.703125 8.734375 18.5 7.8125 
Q 22.3125 6.890625 25.984375 6.890625 
Q 35.75 6.890625 40.890625 13.453125 
Q 46.046875 20.015625 46.78125 33.40625 
Q 43.953125 29.203125 39.59375 26.953125 
Q 35.25 24.703125 29.984375 24.703125 
Q 19.046875 24.703125 12.671875 31.3125 
Q 6.296875 37.9375 6.296875 49.421875 
Q 6.296875 60.640625 12.9375 67.421875 
Q 19.578125 74.21875 30.609375 74.21875 
Q 43.265625 74.21875 49.921875 64.515625 
Q 56.59375 54.828125 56.59375 36.375 
Q 56.59375 19.140625 48.40625 8.859375 
Q 40.234375 -1.421875 26.421875 -1.421875 
Q 22.703125 -1.421875 18.890625 -0.6875 
Q 15.09375 0.046875 10.984375 1.515625 
z
M 30.609375 32.421875 
Q 37.25 32.421875 41.125 36.953125 
Q 45.015625 41.5 45.015625 49.421875 
Q 45.015625 57.28125 41.125 61.84375 
Q 37.25 66.40625 30.609375 66.40625 
Q 23.96875 66.40625 20.09375 61.84375 
Q 16.21875 57.28125 16.21875 49.421875 
Q 16.21875 41.5 20.09375 36.953125 
Q 23.96875 32.421875 30.609375 32.421875 
z
" id="DejaVuSans-39"/>
      </defs>
      <g transform="translate(189.008283 567.394688)rotate(-90)scale(0.1 -0.1)">
       <use xlink:href="#DejaVuSans-49"/>
       <use x="29.492188" xlink:href="#DejaVuSans-47"/>
       <use x="106.982422" xlink:href="#DejaVuSans-48"/>
       <use x="182.177734" xlink:href="#DejaVuSans-56"/>
       <use x="250.585938" xlink:href="#DejaVuSans-31"/>
       <use x="314.208984" xlink:href="#DejaVuSans-2d"/>
       <use x="350.292969" xlink:href="#DejaVuSans-36"/>
       <use x="413.916016" xlink:href="#DejaVuSans-39"/>
      </g>
     </g>
    </g>
    <g id="xtick_8">
     <g id="line2d_8">
      <g>
       <use style="stroke:#000000;stroke-width:0.8;" x="197.324732" xlink:href="#m0fc1b9e66b" y="512.64"/>
      </g>
     </g>
     <g id="text_8">
      <!-- IGHV1-69-2 -->
      <g transform="translate(200.084107 577.365)rotate(-90)scale(0.1 -0.1)">
       <use xlink:href="#DejaVuSans-49"/>
       <use x="29.492188" xlink:href="#DejaVuSans-47"/>
       <use x="106.982422" xlink:href="#DejaVuSans-48"/>
       <use x="182.177734" xlink:href="#DejaVuSans-56"/>
       <use x="250.585938" xlink:href="#DejaVuSans-31"/>
       <use x="314.208984" xlink:href="#DejaVuSans-2d"/>
       <use x="350.292969" xlink:href="#DejaVuSans-36"/>
       <use x="413.916016" xlink:href="#DejaVuSans-39"/>
       <use x="477.539062" xlink:href="#DejaVuSans-2d"/>
       <use x="513.623047" xlink:href="#DejaVuSans-32"/>
      </g>
     </g>
    </g>
    <g id="xtick_9">
     <g id="line2d_9">
      <g>
       <use style="stroke:#000000;stroke-width:0.8;" x="208.400556" xlink:href="#m0fc1b9e66b" y="512.64"/>
      </g>
     </g>
     <g id="text_9">
      <!-- IGHV1-8 -->
      <g transform="translate(211.159931 561.032187)rotate(-90)scale(0.1 -0.1)">
       <use xlink:href="#DejaVuSans-49"/>
       <use x="29.492188" xlink:href="#DejaVuSans-47"/>
       <use x="106.982422" xlink:href="#DejaVuSans-48"/>
       <use x="182.177734" xlink:href="#DejaVuSans-56"/>
       <use x="250.585938" xlink:href="#DejaVuSans-31"/>
       <use x="314.208984" xlink:href="#DejaVuSans-2d"/>
       <use x="350.292969" xlink:href="#DejaVuSans-38"/>
      </g>
     </g>
    </g>
    <g id="xtick_10">
     <g id="line2d_10">
      <g>
       <use style="stroke:#000000;stroke-width:0.8;" x="219.47638" xlink:href="#m0fc1b9e66b" y="512.64"/>
      </g>
     </g>
     <g id="text_10">
      <!-- IGHV2-5 -->
      <g transform="translate(222.235755 561.032187)rotate(-90)scale(0.1 -0.1)">
       <use xlink:href="#DejaVuSans-49"/>
       <use x="29.492188" xlink:href="#DejaVuSans-47"/>
       <use x="106.982422" xlink:href="#DejaVuSans-48"/>
       <use x="182.177734" xlink:href="#DejaVuSans-56"/>
       <use x="250.585938" xlink:href="#DejaVuSans-32"/>
       <use x="314.208984" xlink:href="#DejaVuSans-2d"/>
       <use x="350.292969" xlink:href="#DejaVuSans-35"/>
      </g>
     </g>
    </g>
    <g id="xtick_11">
     <g id="line2d_11">
      <g>
       <use style="stroke:#000000;stroke-width:0.8;" x="230.552203" xlink:href="#m0fc1b9e66b" y="512.64"/>
      </g>
     </g>
     <g id="text_11">
      <!-- IGHV2-70 -->
      <defs>
       <path d="M 8.203125 72.90625 
L 55.078125 72.90625 
L 55.078125 68.703125 
L 28.609375 0 
L 18.3125 0 
L 43.21875 64.59375 
L 8.203125 64.59375 
z
" id="DejaVuSans-37"/>
       <path d="M 31.78125 66.40625 
Q 24.171875 66.40625 20.328125 58.90625 
Q 16.5 51.421875 16.5 36.375 
Q 16.5 21.390625 20.328125 13.890625 
Q 24.171875 6.390625 31.78125 6.390625 
Q 39.453125 6.390625 43.28125 13.890625 
Q 47.125 21.390625 47.125 36.375 
Q 47.125 51.421875 43.28125 58.90625 
Q 39.453125 66.40625 31.78125 66.40625 
z
M 31.78125 74.21875 
Q 44.046875 74.21875 50.515625 64.515625 
Q 56.984375 54.828125 56.984375 36.375 
Q 56.984375 17.96875 50.515625 8.265625 
Q 44.046875 -1.421875 31.78125 -1.421875 
Q 19.53125 -1.421875 13.0625 8.265625 
Q 6.59375 17.96875 6.59375 36.375 
Q 6.59375 54.828125 13.0625 64.515625 
Q 19.53125 74.21875 31.78125 74.21875 
z
" id="DejaVuSans-30"/>
      </defs>
      <g transform="translate(233.311578 567.394688)rotate(-90)scale(0.1 -0.1)">
       <use xlink:href="#DejaVuSans-49"/>
       <use x="29.492188" xlink:href="#DejaVuSans-47"/>
       <use x="106.982422" xlink:href="#DejaVuSans-48"/>
       <use x="182.177734" xlink:href="#DejaVuSans-56"/>
       <use x="250.585938" xlink:href="#DejaVuSans-32"/>
       <use x="314.208984" xlink:href="#DejaVuSans-2d"/>
       <use x="350.292969" xlink:href="#DejaVuSans-37"/>
       <use x="413.916016" xlink:href="#DejaVuSans-30"/>
      </g>
     </g>
    </g>
    <g id="xtick_12">
     <g id="line2d_12">
      <g>
       <use style="stroke:#000000;stroke-width:0.8;" x="241.628027" xlink:href="#m0fc1b9e66b" y="512.64"/>
      </g>
     </g>
     <g id="text_12">
      <!-- IGHV3-11 -->
      <g transform="translate(244.387402 567.394688)rotate(-90)scale(0.1 -0.1)">
       <use xlink:href="#DejaVuSans-49"/>
       <use x="29.492188" xlink:href="#DejaVuSans-47"/>
       <use x="106.982422" xlink:href="#DejaVuSans-48"/>
       <use x="182.177734" xlink:href="#DejaVuSans-56"/>
       <use x="250.585938" xlink:href="#DejaVuSans-33"/>
       <use x="314.208984" xlink:href="#DejaVuSans-2d"/>
       <use x="350.292969" xlink:href="#DejaVuSans-31"/>
       <use x="413.916016" xlink:href="#DejaVuSans-31"/>
      </g>
     </g>
    </g>
    <g id="xtick_13">
     <g id="line2d_13">
      <g>
       <use style="stroke:#000000;stroke-width:0.8;" x="252.703851" xlink:href="#m0fc1b9e66b" y="512.64"/>
      </g>
     </g>
     <g id="text_13">
      <!-- IGHV3-13 -->
      <g transform="translate(255.463226 567.394688)rotate(-90)scale(0.1 -0.1)">
       <use xlink:href="#DejaVuSans-49"/>
       <use x="29.492188" xlink:href="#DejaVuSans-47"/>
       <use x="106.982422" xlink:href="#DejaVuSans-48"/>
       <use x="182.177734" xlink:href="#DejaVuSans-56"/>
       <use x="250.585938" xlink:href="#DejaVuSans-33"/>
       <use x="314.208984" xlink:href="#DejaVuSans-2d"/>
       <use x="350.292969" xlink:href="#DejaVuSans-31"/>
       <use x="413.916016" xlink:href="#DejaVuSans-33"/>
      </g>
     </g>
    </g>
    <g id="xtick_14">
     <g id="line2d_14">
      <g>
       <use style="stroke:#000000;stroke-width:0.8;" x="263.779674" xlink:href="#m0fc1b9e66b" y="512.64"/>
      </g>
     </g>
     <g id="text_14">
      <!-- IGHV3-15 -->
      <g transform="translate(266.539049 567.394688)rotate(-90)scale(0.1 -0.1)">
       <use xlink:href="#DejaVuSans-49"/>
       <use x="29.492188" xlink:href="#DejaVuSans-47"/>
       <use x="106.982422" xlink:href="#DejaVuSans-48"/>
       <use x="182.177734" xlink:href="#DejaVuSans-56"/>
       <use x="250.585938" xlink:href="#DejaVuSans-33"/>
       <use x="314.208984" xlink:href="#DejaVuSans-2d"/>
       <use x="350.292969" xlink:href="#DejaVuSans-31"/>
       <use x="413.916016" xlink:href="#DejaVuSans-35"/>
      </g>
     </g>
    </g>
    <g id="xtick_15">
     <g id="line2d_15">
      <g>
       <use style="stroke:#000000;stroke-width:0.8;" x="274.855498" xlink:href="#m0fc1b9e66b" y="512.64"/>
      </g>
     </g>
     <g id="text_15">
      <!-- IGHV3-21 -->
      <g transform="translate(277.614873 567.394688)rotate(-90)scale(0.1 -0.1)">
       <use xlink:href="#DejaVuSans-49"/>
       <use x="29.492188" xlink:href="#DejaVuSans-47"/>
       <use x="106.982422" xlink:href="#DejaVuSans-48"/>
       <use x="182.177734" xlink:href="#DejaVuSans-56"/>
       <use x="250.585938" xlink:href="#DejaVuSans-33"/>
       <use x="314.208984" xlink:href="#DejaVuSans-2d"/>
       <use x="350.292969" xlink:href="#DejaVuSans-32"/>
       <use x="413.916016" xlink:href="#DejaVuSans-31"/>
      </g>
     </g>
    </g>
    <g id="xtick_16">
     <g id="line2d_16">
      <g>
       <use style="stroke:#000000;stroke-width:0.8;" x="285.931322" xlink:href="#m0fc1b9e66b" y="512.64"/>
      </g>
     </g>
     <g id="text_16">
      <!-- IGHV3-22 -->
      <g transform="translate(288.690697 567.394688)rotate(-90)scale(0.1 -0.1)">
       <use xlink:href="#DejaVuSans-49"/>
       <use x="29.492188" xlink:href="#DejaVuSans-47"/>
       <use x="106.982422" xlink:href="#DejaVuSans-48"/>
       <use x="182.177734" xlink:href="#DejaVuSans-56"/>
       <use x="250.585938" xlink:href="#DejaVuSans-33"/>
       <use x="314.208984" xlink:href="#DejaVuSans-2d"/>
       <use x="350.292969" xlink:href="#DejaVuSans-32"/>
       <use x="413.916016" xlink:href="#DejaVuSans-32"/>
      </g>
     </g>
    </g>
    <g id="xtick_17">
     <g id="line2d_17">
      <g>
       <use style="stroke:#000000;stroke-width:0.8;" x="297.007146" xlink:href="#m0fc1b9e66b" y="512.64"/>
      </g>
     </g>
     <g id="text_17">
      <!-- IGHV3-23 -->
      <g transform="translate(299.766521 567.394688)rotate(-90)scale(0.1 -0.1)">
       <use xlink:href="#DejaVuSans-49"/>
       <use x="29.492188" xlink:href="#DejaVuSans-47"/>
       <use x="106.982422" xlink:href="#DejaVuSans-48"/>
       <use x="182.177734" xlink:href="#DejaVuSans-56"/>
       <use x="250.585938" xlink:href="#DejaVuSans-33"/>
       <use x="314.208984" xlink:href="#DejaVuSans-2d"/>
       <use x="350.292969" xlink:href="#DejaVuSans-32"/>
       <use x="413.916016" xlink:href="#DejaVuSans-33"/>
      </g>
     </g>
    </g>
    <g id="xtick_18">
     <g id="line2d_18">
      <g>
       <use style="stroke:#000000;stroke-width:0.8;" x="308.082969" xlink:href="#m0fc1b9e66b" y="512.64"/>
      </g>
     </g>
     <g id="text_18">
      <!-- IGHV3-30 -->
      <g transform="translate(310.842344 567.394688)rotate(-90)scale(0.1 -0.1)">
       <use xlink:href="#DejaVuSans-49"/>
       <use x="29.492188" xlink:href="#DejaVuSans-47"/>
       <use x="106.982422" xlink:href="#DejaVuSans-48"/>
       <use x="182.177734" xlink:href="#DejaVuSans-56"/>
       <use x="250.585938" xlink:href="#DejaVuSans-33"/>
       <use x="314.208984" xlink:href="#DejaVuSans-2d"/>
       <use x="350.292969" xlink:href="#DejaVuSans-33"/>
       <use x="413.916016" xlink:href="#DejaVuSans-30"/>
      </g>
     </g>
    </g>
    <g id="xtick_19">
     <g id="line2d_19">
      <g>
       <use style="stroke:#000000;stroke-width:0.8;" x="319.158793" xlink:href="#m0fc1b9e66b" y="512.64"/>
      </g>
     </g>
     <g id="text_19">
      <!-- IGHV3-30-3 -->
      <g transform="translate(321.918168 577.365)rotate(-90)scale(0.1 -0.1)">
       <use xlink:href="#DejaVuSans-49"/>
       <use x="29.492188" xlink:href="#DejaVuSans-47"/>
       <use x="106.982422" xlink:href="#DejaVuSans-48"/>
       <use x="182.177734" xlink:href="#DejaVuSans-56"/>
       <use x="250.585938" xlink:href="#DejaVuSans-33"/>
       <use x="314.208984" xlink:href="#DejaVuSans-2d"/>
       <use x="350.292969" xlink:href="#DejaVuSans-33"/>
       <use x="413.916016" xlink:href="#DejaVuSans-30"/>
       <use x="477.539062" xlink:href="#DejaVuSans-2d"/>
       <use x="513.623047" xlink:href="#DejaVuSans-33"/>
      </g>
     </g>
    </g>
    <g id="xtick_20">
     <g id="line2d_20">
      <g>
       <use style="stroke:#000000;stroke-width:0.8;" x="330.234617" xlink:href="#m0fc1b9e66b" y="512.64"/>
      </g>
     </g>
     <g id="text_20">
      <!-- IGHV3-33 -->
      <g transform="translate(332.993992 567.394688)rotate(-90)scale(0.1 -0.1)">
       <use xlink:href="#DejaVuSans-49"/>
       <use x="29.492188" xlink:href="#DejaVuSans-47"/>
       <use x="106.982422" xlink:href="#DejaVuSans-48"/>
       <use x="182.177734" xlink:href="#DejaVuSans-56"/>
       <use x="250.585938" xlink:href="#DejaVuSans-33"/>
       <use x="314.208984" xlink:href="#DejaVuSans-2d"/>
       <use x="350.292969" xlink:href="#DejaVuSans-33"/>
       <use x="413.916016" xlink:href="#DejaVuSans-33"/>
      </g>
     </g>
    </g>
    <g id="xtick_21">
     <g id="line2d_21">
      <g>
       <use style="stroke:#000000;stroke-width:0.8;" x="341.310441" xlink:href="#m0fc1b9e66b" y="512.64"/>
      </g>
     </g>
     <g id="text_21">
      <!-- IGHV3-43 -->
      <g transform="translate(344.069816 567.394688)rotate(-90)scale(0.1 -0.1)">
       <use xlink:href="#DejaVuSans-49"/>
       <use x="29.492188" xlink:href="#DejaVuSans-47"/>
       <use x="106.982422" xlink:href="#DejaVuSans-48"/>
       <use x="182.177734" xlink:href="#DejaVuSans-56"/>
       <use x="250.585938" xlink:href="#DejaVuSans-33"/>
       <use x="314.208984" xlink:href="#DejaVuSans-2d"/>
       <use x="350.292969" xlink:href="#DejaVuSans-34"/>
       <use x="413.916016" xlink:href="#DejaVuSans-33"/>
      </g>
     </g>
    </g>
    <g id="xtick_22">
     <g id="line2d_22">
      <g>
       <use style="stroke:#000000;stroke-width:0.8;" x="352.386264" xlink:href="#m0fc1b9e66b" y="512.64"/>
      </g>
     </g>
     <g id="text_22">
      <!-- IGHV3-48 -->
      <g transform="translate(355.145639 567.394688)rotate(-90)scale(0.1 -0.1)">
       <use xlink:href="#DejaVuSans-49"/>
       <use x="29.492188" xlink:href="#DejaVuSans-47"/>
       <use x="106.982422" xlink:href="#DejaVuSans-48"/>
       <use x="182.177734" xlink:href="#DejaVuSans-56"/>
       <use x="250.585938" xlink:href="#DejaVuSans-33"/>
       <use x="314.208984" xlink:href="#DejaVuSans-2d"/>
       <use x="350.292969" xlink:href="#DejaVuSans-34"/>
       <use x="413.916016" xlink:href="#DejaVuSans-38"/>
      </g>
     </g>
    </g>
    <g id="xtick_23">
     <g id="line2d_23">
      <g>
       <use style="stroke:#000000;stroke-width:0.8;" x="363.462088" xlink:href="#m0fc1b9e66b" y="512.64"/>
      </g>
     </g>
     <g id="text_23">
      <!-- IGHV3-49 -->
      <g transform="translate(366.221463 567.394688)rotate(-90)scale(0.1 -0.1)">
       <use xlink:href="#DejaVuSans-49"/>
       <use x="29.492188" xlink:href="#DejaVuSans-47"/>
       <use x="106.982422" xlink:href="#DejaVuSans-48"/>
       <use x="182.177734" xlink:href="#DejaVuSans-56"/>
       <use x="250.585938" xlink:href="#DejaVuSans-33"/>
       <use x="314.208984" xlink:href="#DejaVuSans-2d"/>
       <use x="350.292969" xlink:href="#DejaVuSans-34"/>
       <use x="413.916016" xlink:href="#DejaVuSans-39"/>
      </g>
     </g>
    </g>
    <g id="xtick_24">
     <g id="line2d_24">
      <g>
       <use style="stroke:#000000;stroke-width:0.8;" x="374.537912" xlink:href="#m0fc1b9e66b" y="512.64"/>
      </g>
     </g>
     <g id="text_24">
      <!-- IGHV3-53 -->
      <g transform="translate(377.297287 567.394688)rotate(-90)scale(0.1 -0.1)">
       <use xlink:href="#DejaVuSans-49"/>
       <use x="29.492188" xlink:href="#DejaVuSans-47"/>
       <use x="106.982422" xlink:href="#DejaVuSans-48"/>
       <use x="182.177734" xlink:href="#DejaVuSans-56"/>
       <use x="250.585938" xlink:href="#DejaVuSans-33"/>
       <use x="314.208984" xlink:href="#DejaVuSans-2d"/>
       <use x="350.292969" xlink:href="#DejaVuSans-35"/>
       <use x="413.916016" xlink:href="#DejaVuSans-33"/>
      </g>
     </g>
    </g>
    <g id="xtick_25">
     <g id="line2d_25">
      <g>
       <use style="stroke:#000000;stroke-width:0.8;" x="385.613736" xlink:href="#m0fc1b9e66b" y="512.64"/>
      </g>
     </g>
     <g id="text_25">
      <!-- IGHV3-64 -->
      <g transform="translate(388.373111 567.394688)rotate(-90)scale(0.1 -0.1)">
       <use xlink:href="#DejaVuSans-49"/>
       <use x="29.492188" xlink:href="#DejaVuSans-47"/>
       <use x="106.982422" xlink:href="#DejaVuSans-48"/>
       <use x="182.177734" xlink:href="#DejaVuSans-56"/>
       <use x="250.585938" xlink:href="#DejaVuSans-33"/>
       <use x="314.208984" xlink:href="#DejaVuSans-2d"/>
       <use x="350.292969" xlink:href="#DejaVuSans-36"/>
       <use x="413.916016" xlink:href="#DejaVuSans-34"/>
      </g>
     </g>
    </g>
    <g id="xtick_26">
     <g id="line2d_26">
      <g>
       <use style="stroke:#000000;stroke-width:0.8;" x="396.689559" xlink:href="#m0fc1b9e66b" y="512.64"/>
      </g>
     </g>
     <g id="text_26">
      <!-- IGHV3-64D -->
      <defs>
       <path d="M 19.671875 64.796875 
L 19.671875 8.109375 
L 31.59375 8.109375 
Q 46.6875 8.109375 53.6875 14.9375 
Q 60.6875 21.78125 60.6875 36.53125 
Q 60.6875 51.171875 53.6875 57.984375 
Q 46.6875 64.796875 31.59375 64.796875 
z
M 9.8125 72.90625 
L 30.078125 72.90625 
Q 51.265625 72.90625 61.171875 64.09375 
Q 71.09375 55.28125 71.09375 36.53125 
Q 71.09375 17.671875 61.125 8.828125 
Q 51.171875 0 30.078125 0 
L 9.8125 0 
z
" id="DejaVuSans-44"/>
      </defs>
      <g transform="translate(399.448934 575.094687)rotate(-90)scale(0.1 -0.1)">
       <use xlink:href="#DejaVuSans-49"/>
       <use x="29.492188" xlink:href="#DejaVuSans-47"/>
       <use x="106.982422" xlink:href="#DejaVuSans-48"/>
       <use x="182.177734" xlink:href="#DejaVuSans-56"/>
       <use x="250.585938" xlink:href="#DejaVuSans-33"/>
       <use x="314.208984" xlink:href="#DejaVuSans-2d"/>
       <use x="350.292969" xlink:href="#DejaVuSans-36"/>
       <use x="413.916016" xlink:href="#DejaVuSans-34"/>
       <use x="477.539062" xlink:href="#DejaVuSans-44"/>
      </g>
     </g>
    </g>
    <g id="xtick_27">
     <g id="line2d_27">
      <g>
       <use style="stroke:#000000;stroke-width:0.8;" x="407.765383" xlink:href="#m0fc1b9e66b" y="512.64"/>
      </g>
     </g>
     <g id="text_27">
      <!-- IGHV3-66 -->
      <g transform="translate(410.524758 567.394688)rotate(-90)scale(0.1 -0.1)">
       <use xlink:href="#DejaVuSans-49"/>
       <use x="29.492188" xlink:href="#DejaVuSans-47"/>
       <use x="106.982422" xlink:href="#DejaVuSans-48"/>
       <use x="182.177734" xlink:href="#DejaVuSans-56"/>
       <use x="250.585938" xlink:href="#DejaVuSans-33"/>
       <use x="314.208984" xlink:href="#DejaVuSans-2d"/>
       <use x="350.292969" xlink:href="#DejaVuSans-36"/>
       <use x="413.916016" xlink:href="#DejaVuSans-36"/>
      </g>
     </g>
    </g>
    <g id="xtick_28">
     <g id="line2d_28">
      <g>
       <use style="stroke:#000000;stroke-width:0.8;" x="418.841207" xlink:href="#m0fc1b9e66b" y="512.64"/>
      </g>
     </g>
     <g id="text_28">
      <!-- IGHV3-7 -->
      <g transform="translate(421.600582 561.032187)rotate(-90)scale(0.1 -0.1)">
       <use xlink:href="#DejaVuSans-49"/>
       <use x="29.492188" xlink:href="#DejaVuSans-47"/>
       <use x="106.982422" xlink:href="#DejaVuSans-48"/>
       <use x="182.177734" xlink:href="#DejaVuSans-56"/>
       <use x="250.585938" xlink:href="#DejaVuSans-33"/>
       <use x="314.208984" xlink:href="#DejaVuSans-2d"/>
       <use x="350.292969" xlink:href="#DejaVuSans-37"/>
      </g>
     </g>
    </g>
    <g id="xtick_29">
     <g id="line2d_29">
      <g>
       <use style="stroke:#000000;stroke-width:0.8;" x="429.917031" xlink:href="#m0fc1b9e66b" y="512.64"/>
      </g>
     </g>
     <g id="text_29">
      <!-- IGHV3-72 -->
      <g transform="translate(432.676406 567.394688)rotate(-90)scale(0.1 -0.1)">
       <use xlink:href="#DejaVuSans-49"/>
       <use x="29.492188" xlink:href="#DejaVuSans-47"/>
       <use x="106.982422" xlink:href="#DejaVuSans-48"/>
       <use x="182.177734" xlink:href="#DejaVuSans-56"/>
       <use x="250.585938" xlink:href="#DejaVuSans-33"/>
       <use x="314.208984" xlink:href="#DejaVuSans-2d"/>
       <use x="350.292969" xlink:href="#DejaVuSans-37"/>
       <use x="413.916016" xlink:href="#DejaVuSans-32"/>
      </g>
     </g>
    </g>
    <g id="xtick_30">
     <g id="line2d_30">
      <g>
       <use style="stroke:#000000;stroke-width:0.8;" x="440.992854" xlink:href="#m0fc1b9e66b" y="512.64"/>
      </g>
     </g>
     <g id="text_30">
      <!-- IGHV3-73 -->
      <g transform="translate(443.752229 567.394688)rotate(-90)scale(0.1 -0.1)">
       <use xlink:href="#DejaVuSans-49"/>
       <use x="29.492188" xlink:href="#DejaVuSans-47"/>
       <use x="106.982422" xlink:href="#DejaVuSans-48"/>
       <use x="182.177734" xlink:href="#DejaVuSans-56"/>
       <use x="250.585938" xlink:href="#DejaVuSans-33"/>
       <use x="314.208984" xlink:href="#DejaVuSans-2d"/>
       <use x="350.292969" xlink:href="#DejaVuSans-37"/>
       <use x="413.916016" xlink:href="#DejaVuSans-33"/>
      </g>
     </g>
    </g>
    <g id="xtick_31">
     <g id="line2d_31">
      <g>
       <use style="stroke:#000000;stroke-width:0.8;" x="452.068678" xlink:href="#m0fc1b9e66b" y="512.64"/>
      </g>
     </g>
     <g id="text_31">
      <!-- IGHV3-74 -->
      <g transform="translate(454.828053 567.394688)rotate(-90)scale(0.1 -0.1)">
       <use xlink:href="#DejaVuSans-49"/>
       <use x="29.492188" xlink:href="#DejaVuSans-47"/>
       <use x="106.982422" xlink:href="#DejaVuSans-48"/>
       <use x="182.177734" xlink:href="#DejaVuSans-56"/>
       <use x="250.585938" xlink:href="#DejaVuSans-33"/>
       <use x="314.208984" xlink:href="#DejaVuSans-2d"/>
       <use x="350.292969" xlink:href="#DejaVuSans-37"/>
       <use x="413.916016" xlink:href="#DejaVuSans-34"/>
      </g>
     </g>
    </g>
    <g id="xtick_32">
     <g id="line2d_32">
      <g>
       <use style="stroke:#000000;stroke-width:0.8;" x="463.144502" xlink:href="#m0fc1b9e66b" y="512.64"/>
      </g>
     </g>
     <g id="text_32">
      <!-- IGHV3-9 -->
      <g transform="translate(465.903877 561.032187)rotate(-90)scale(0.1 -0.1)">
       <use xlink:href="#DejaVuSans-49"/>
       <use x="29.492188" xlink:href="#DejaVuSans-47"/>
       <use x="106.982422" xlink:href="#DejaVuSans-48"/>
       <use x="182.177734" xlink:href="#DejaVuSans-56"/>
       <use x="250.585938" xlink:href="#DejaVuSans-33"/>
       <use x="314.208984" xlink:href="#DejaVuSans-2d"/>
       <use x="350.292969" xlink:href="#DejaVuSans-39"/>
      </g>
     </g>
    </g>
    <g id="xtick_33">
     <g id="line2d_33">
      <g>
       <use style="stroke:#000000;stroke-width:0.8;" x="474.220326" xlink:href="#m0fc1b9e66b" y="512.64"/>
      </g>
     </g>
     <g id="text_33">
      <!-- IGHV3-NL1 -->
      <defs>
       <path d="M 9.8125 72.90625 
L 23.09375 72.90625 
L 55.421875 11.921875 
L 55.421875 72.90625 
L 64.984375 72.90625 
L 64.984375 0 
L 51.703125 0 
L 19.390625 60.984375 
L 19.390625 0 
L 9.8125 0 
z
" id="DejaVuSans-4e"/>
       <path d="M 9.8125 72.90625 
L 19.671875 72.90625 
L 19.671875 8.296875 
L 55.171875 8.296875 
L 55.171875 0 
L 9.8125 0 
z
" id="DejaVuSans-4c"/>
      </defs>
      <g transform="translate(476.979701 574.085312)rotate(-90)scale(0.1 -0.1)">
       <use xlink:href="#DejaVuSans-49"/>
       <use x="29.492188" xlink:href="#DejaVuSans-47"/>
       <use x="106.982422" xlink:href="#DejaVuSans-48"/>
       <use x="182.177734" xlink:href="#DejaVuSans-56"/>
       <use x="250.585938" xlink:href="#DejaVuSans-33"/>
       <use x="314.208984" xlink:href="#DejaVuSans-2d"/>
       <use x="350.292969" xlink:href="#DejaVuSans-4e"/>
       <use x="425.097656" xlink:href="#DejaVuSans-4c"/>
       <use x="480.810547" xlink:href="#DejaVuSans-31"/>
      </g>
     </g>
    </g>
    <g id="xtick_34">
     <g id="line2d_34">
      <g>
       <use style="stroke:#000000;stroke-width:0.8;" x="485.296149" xlink:href="#m0fc1b9e66b" y="512.64"/>
      </g>
     </g>
     <g id="text_34">
      <!-- IGHV4-30-2 -->
      <g transform="translate(488.055524 577.365)rotate(-90)scale(0.1 -0.1)">
       <use xlink:href="#DejaVuSans-49"/>
       <use x="29.492188" xlink:href="#DejaVuSans-47"/>
       <use x="106.982422" xlink:href="#DejaVuSans-48"/>
       <use x="182.177734" xlink:href="#DejaVuSans-56"/>
       <use x="250.585938" xlink:href="#DejaVuSans-34"/>
       <use x="314.208984" xlink:href="#DejaVuSans-2d"/>
       <use x="350.292969" xlink:href="#DejaVuSans-33"/>
       <use x="413.916016" xlink:href="#DejaVuSans-30"/>
       <use x="477.539062" xlink:href="#DejaVuSans-2d"/>
       <use x="513.623047" xlink:href="#DejaVuSans-32"/>
      </g>
     </g>
    </g>
    <g id="xtick_35">
     <g id="line2d_35">
      <g>
       <use style="stroke:#000000;stroke-width:0.8;" x="496.371973" xlink:href="#m0fc1b9e66b" y="512.64"/>
      </g>
     </g>
     <g id="text_35">
      <!-- IGHV4-30-4 -->
      <g transform="translate(499.131348 577.365)rotate(-90)scale(0.1 -0.1)">
       <use xlink:href="#DejaVuSans-49"/>
       <use x="29.492188" xlink:href="#DejaVuSans-47"/>
       <use x="106.982422" xlink:href="#DejaVuSans-48"/>
       <use x="182.177734" xlink:href="#DejaVuSans-56"/>
       <use x="250.585938" xlink:href="#DejaVuSans-34"/>
       <use x="314.208984" xlink:href="#DejaVuSans-2d"/>
       <use x="350.292969" xlink:href="#DejaVuSans-33"/>
       <use x="413.916016" xlink:href="#DejaVuSans-30"/>
       <use x="477.539062" xlink:href="#DejaVuSans-2d"/>
       <use x="513.623047" xlink:href="#DejaVuSans-34"/>
      </g>
     </g>
    </g>
    <g id="xtick_36">
     <g id="line2d_36">
      <g>
       <use style="stroke:#000000;stroke-width:0.8;" x="507.447797" xlink:href="#m0fc1b9e66b" y="512.64"/>
      </g>
     </g>
     <g id="text_36">
      <!-- IGHV4-31 -->
      <g transform="translate(510.207172 567.394688)rotate(-90)scale(0.1 -0.1)">
       <use xlink:href="#DejaVuSans-49"/>
       <use x="29.492188" xlink:href="#DejaVuSans-47"/>
       <use x="106.982422" xlink:href="#DejaVuSans-48"/>
       <use x="182.177734" xlink:href="#DejaVuSans-56"/>
       <use x="250.585938" xlink:href="#DejaVuSans-34"/>
       <use x="314.208984" xlink:href="#DejaVuSans-2d"/>
       <use x="350.292969" xlink:href="#DejaVuSans-33"/>
       <use x="413.916016" xlink:href="#DejaVuSans-31"/>
      </g>
     </g>
    </g>
    <g id="xtick_37">
     <g id="line2d_37">
      <g>
       <use style="stroke:#000000;stroke-width:0.8;" x="518.52362" xlink:href="#m0fc1b9e66b" y="512.64"/>
      </g>
     </g>
     <g id="text_37">
      <!-- IGHV4-34 -->
      <g transform="translate(521.282995 567.394688)rotate(-90)scale(0.1 -0.1)">
       <use xlink:href="#DejaVuSans-49"/>
       <use x="29.492188" xlink:href="#DejaVuSans-47"/>
       <use x="106.982422" xlink:href="#DejaVuSans-48"/>
       <use x="182.177734" xlink:href="#DejaVuSans-56"/>
       <use x="250.585938" xlink:href="#DejaVuSans-34"/>
       <use x="314.208984" xlink:href="#DejaVuSans-2d"/>
       <use x="350.292969" xlink:href="#DejaVuSans-33"/>
       <use x="413.916016" xlink:href="#DejaVuSans-34"/>
      </g>
     </g>
    </g>
    <g id="xtick_38">
     <g id="line2d_38">
      <g>
       <use style="stroke:#000000;stroke-width:0.8;" x="529.599444" xlink:href="#m0fc1b9e66b" y="512.64"/>
      </g>
     </g>
     <g id="text_38">
      <!-- IGHV4-38-2 -->
      <g transform="translate(532.358819 577.365)rotate(-90)scale(0.1 -0.1)">
       <use xlink:href="#DejaVuSans-49"/>
       <use x="29.492188" xlink:href="#DejaVuSans-47"/>
       <use x="106.982422" xlink:href="#DejaVuSans-48"/>
       <use x="182.177734" xlink:href="#DejaVuSans-56"/>
       <use x="250.585938" xlink:href="#DejaVuSans-34"/>
       <use x="314.208984" xlink:href="#DejaVuSans-2d"/>
       <use x="350.292969" xlink:href="#DejaVuSans-33"/>
       <use x="413.916016" xlink:href="#DejaVuSans-38"/>
       <use x="477.539062" xlink:href="#DejaVuSans-2d"/>
       <use x="513.623047" xlink:href="#DejaVuSans-32"/>
      </g>
     </g>
    </g>
    <g id="xtick_39">
     <g id="line2d_39">
      <g>
       <use style="stroke:#000000;stroke-width:0.8;" x="540.675268" xlink:href="#m0fc1b9e66b" y="512.64"/>
      </g>
     </g>
     <g id="text_39">
      <!-- IGHV4-39 -->
      <g transform="translate(543.434643 567.394688)rotate(-90)scale(0.1 -0.1)">
       <use xlink:href="#DejaVuSans-49"/>
       <use x="29.492188" xlink:href="#DejaVuSans-47"/>
       <use x="106.982422" xlink:href="#DejaVuSans-48"/>
       <use x="182.177734" xlink:href="#DejaVuSans-56"/>
       <use x="250.585938" xlink:href="#DejaVuSans-34"/>
       <use x="314.208984" xlink:href="#DejaVuSans-2d"/>
       <use x="350.292969" xlink:href="#DejaVuSans-33"/>
       <use x="413.916016" xlink:href="#DejaVuSans-39"/>
      </g>
     </g>
    </g>
    <g id="xtick_40">
     <g id="line2d_40">
      <g>
       <use style="stroke:#000000;stroke-width:0.8;" x="551.751092" xlink:href="#m0fc1b9e66b" y="512.64"/>
      </g>
     </g>
     <g id="text_40">
      <!-- IGHV4-4 -->
      <g transform="translate(554.510467 561.032187)rotate(-90)scale(0.1 -0.1)">
       <use xlink:href="#DejaVuSans-49"/>
       <use x="29.492188" xlink:href="#DejaVuSans-47"/>
       <use x="106.982422" xlink:href="#DejaVuSans-48"/>
       <use x="182.177734" xlink:href="#DejaVuSans-56"/>
       <use x="250.585938" xlink:href="#DejaVuSans-34"/>
       <use x="314.208984" xlink:href="#DejaVuSans-2d"/>
       <use x="350.292969" xlink:href="#DejaVuSans-34"/>
      </g>
     </g>
    </g>
    <g id="xtick_41">
     <g id="line2d_41">
      <g>
       <use style="stroke:#000000;stroke-width:0.8;" x="562.826915" xlink:href="#m0fc1b9e66b" y="512.64"/>
      </g>
     </g>
     <g id="text_41">
      <!-- IGHV4-59 -->
      <g transform="translate(565.58629 567.394688)rotate(-90)scale(0.1 -0.1)">
       <use xlink:href="#DejaVuSans-49"/>
       <use x="29.492188" xlink:href="#DejaVuSans-47"/>
       <use x="106.982422" xlink:href="#DejaVuSans-48"/>
       <use x="182.177734" xlink:href="#DejaVuSans-56"/>
       <use x="250.585938" xlink:href="#DejaVuSans-34"/>
       <use x="314.208984" xlink:href="#DejaVuSans-2d"/>
       <use x="350.292969" xlink:href="#DejaVuSans-35"/>
       <use x="413.916016" xlink:href="#DejaVuSans-39"/>
      </g>
     </g>
    </g>
    <g id="xtick_42">
     <g id="line2d_42">
      <g>
       <use style="stroke:#000000;stroke-width:0.8;" x="573.902739" xlink:href="#m0fc1b9e66b" y="512.64"/>
      </g>
     </g>
     <g id="text_42">
      <!-- IGHV4-61 -->
      <g transform="translate(576.662114 567.394688)rotate(-90)scale(0.1 -0.1)">
       <use xlink:href="#DejaVuSans-49"/>
       <use x="29.492188" xlink:href="#DejaVuSans-47"/>
       <use x="106.982422" xlink:href="#DejaVuSans-48"/>
       <use x="182.177734" xlink:href="#DejaVuSans-56"/>
       <use x="250.585938" xlink:href="#DejaVuSans-34"/>
       <use x="314.208984" xlink:href="#DejaVuSans-2d"/>
       <use x="350.292969" xlink:href="#DejaVuSans-36"/>
       <use x="413.916016" xlink:href="#DejaVuSans-31"/>
      </g>
     </g>
    </g>
    <g id="xtick_43">
     <g id="line2d_43">
      <g>
       <use style="stroke:#000000;stroke-width:0.8;" x="584.978563" xlink:href="#m0fc1b9e66b" y="512.64"/>
      </g>
     </g>
     <g id="text_43">
      <!-- IGHV5-10-1 -->
      <g transform="translate(587.737938 577.365)rotate(-90)scale(0.1 -0.1)">
       <use xlink:href="#DejaVuSans-49"/>
       <use x="29.492188" xlink:href="#DejaVuSans-47"/>
       <use x="106.982422" xlink:href="#DejaVuSans-48"/>
       <use x="182.177734" xlink:href="#DejaVuSans-56"/>
       <use x="250.585938" xlink:href="#DejaVuSans-35"/>
       <use x="314.208984" xlink:href="#DejaVuSans-2d"/>
       <use x="350.292969" xlink:href="#DejaVuSans-31"/>
       <use x="413.916016" xlink:href="#DejaVuSans-30"/>
       <use x="477.539062" xlink:href="#DejaVuSans-2d"/>
       <use x="513.623047" xlink:href="#DejaVuSans-31"/>
      </g>
     </g>
    </g>
    <g id="xtick_44">
     <g id="line2d_44">
      <g>
       <use style="stroke:#000000;stroke-width:0.8;" x="596.054387" xlink:href="#m0fc1b9e66b" y="512.64"/>
      </g>
     </g>
     <g id="text_44">
      <!-- IGHV5-51 -->
      <g transform="translate(598.813762 567.394688)rotate(-90)scale(0.1 -0.1)">
       <use xlink:href="#DejaVuSans-49"/>
       <use x="29.492188" xlink:href="#DejaVuSans-47"/>
       <use x="106.982422" xlink:href="#DejaVuSans-48"/>
       <use x="182.177734" xlink:href="#DejaVuSans-56"/>
       <use x="250.585938" xlink:href="#DejaVuSans-35"/>
       <use x="314.208984" xlink:href="#DejaVuSans-2d"/>
       <use x="350.292969" xlink:href="#DejaVuSans-35"/>
       <use x="413.916016" xlink:href="#DejaVuSans-31"/>
      </g>
     </g>
    </g>
    <g id="xtick_45">
     <g id="line2d_45">
      <g>
       <use style="stroke:#000000;stroke-width:0.8;" x="607.13021" xlink:href="#m0fc1b9e66b" y="512.64"/>
      </g>
     </g>
     <g id="text_45">
      <!-- IGHV6-1 -->
      <g transform="translate(609.889585 561.032187)rotate(-90)scale(0.1 -0.1)">
       <use xlink:href="#DejaVuSans-49"/>
       <use x="29.492188" xlink:href="#DejaVuSans-47"/>
       <use x="106.982422" xlink:href="#DejaVuSans-48"/>
       <use x="182.177734" xlink:href="#DejaVuSans-56"/>
       <use x="250.585938" xlink:href="#DejaVuSans-36"/>
       <use x="314.208984" xlink:href="#DejaVuSans-2d"/>
       <use x="350.292969" xlink:href="#DejaVuSans-31"/>
      </g>
     </g>
    </g>
    <g id="xtick_46">
     <g id="line2d_46">
      <g>
       <use style="stroke:#000000;stroke-width:0.8;" x="618.206034" xlink:href="#m0fc1b9e66b" y="512.64"/>
      </g>
     </g>
     <g id="text_46">
      <!-- IGHV7-4-1 -->
      <g transform="translate(620.965409 571.0025)rotate(-90)scale(0.1 -0.1)">
       <use xlink:href="#DejaVuSans-49"/>
       <use x="29.492188" xlink:href="#DejaVuSans-47"/>
       <use x="106.982422" xlink:href="#DejaVuSans-48"/>
       <use x="182.177734" xlink:href="#DejaVuSans-56"/>
       <use x="250.585938" xlink:href="#DejaVuSans-37"/>
       <use x="314.208984" xlink:href="#DejaVuSans-2d"/>
       <use x="350.292969" xlink:href="#DejaVuSans-34"/>
       <use x="413.916016" xlink:href="#DejaVuSans-2d"/>
       <use x="450" xlink:href="#DejaVuSans-31"/>
      </g>
     </g>
    </g>
   </g>
   <g id="matplotlib.axis_2">
    <g id="ytick_1">
     <g id="line2d_47">
      <defs>
       <path d="M 0 0 
L -3.5 0 
" id="m5e3925b3b5" style="stroke:#000000;stroke-width:0.8;"/>
      </defs>
      <g>
       <use style="stroke:#000000;stroke-width:0.8;" x="90" xlink:href="#m5e3925b3b5" y="512.64"/>
      </g>
     </g>
     <g id="text_47">
      <!-- 0 -->
      <g transform="translate(76.6375 516.439219)scale(0.1 -0.1)">
       <use xlink:href="#DejaVuSans-30"/>
      </g>
     </g>
    </g>
    <g id="ytick_2">
     <g id="line2d_48">
      <g>
       <use style="stroke:#000000;stroke-width:0.8;" x="90" xlink:href="#m5e3925b3b5" y="437.211429"/>
      </g>
     </g>
     <g id="text_48">
      <!-- 2 -->
      <g transform="translate(76.6375 441.010647)scale(0.1 -0.1)">
       <use xlink:href="#DejaVuSans-32"/>
      </g>
     </g>
    </g>
    <g id="ytick_3">
     <g id="line2d_49">
      <g>
       <use style="stroke:#000000;stroke-width:0.8;" x="90" xlink:href="#m5e3925b3b5" y="361.782857"/>
      </g>
     </g>
     <g id="text_49">
      <!-- 4 -->
      <g transform="translate(76.6375 365.582076)scale(0.1 -0.1)">
       <use xlink:href="#DejaVuSans-34"/>
      </g>
     </g>
    </g>
    <g id="ytick_4">
     <g id="line2d_50">
      <g>
       <use style="stroke:#000000;stroke-width:0.8;" x="90" xlink:href="#m5e3925b3b5" y="286.354286"/>
      </g>
     </g>
     <g id="text_50">
      <!-- 6 -->
      <g transform="translate(76.6375 290.153504)scale(0.1 -0.1)">
       <use xlink:href="#DejaVuSans-36"/>
      </g>
     </g>
    </g>
    <g id="ytick_5">
     <g id="line2d_51">
      <g>
       <use style="stroke:#000000;stroke-width:0.8;" x="90" xlink:href="#m5e3925b3b5" y="210.925714"/>
      </g>
     </g>
     <g id="text_51">
      <!-- 8 -->
      <g transform="translate(76.6375 214.724933)scale(0.1 -0.1)">
       <use xlink:href="#DejaVuSans-38"/>
      </g>
     </g>
    </g>
    <g id="ytick_6">
     <g id="line2d_52">
      <g>
       <use style="stroke:#000000;stroke-width:0.8;" x="90" xlink:href="#m5e3925b3b5" y="135.497143"/>
      </g>
     </g>
     <g id="text_52">
      <!-- 10 -->
      <g transform="translate(70.275 139.296362)scale(0.1 -0.1)">
       <use xlink:href="#DejaVuSans-31"/>
       <use x="63.623047" xlink:href="#DejaVuSans-30"/>
      </g>
     </g>
    </g>
    <g id="text_53">
     <!-- % of sequences -->
     <defs>
      <path d="M 72.703125 32.078125 
Q 68.453125 32.078125 66.03125 28.46875 
Q 63.625 24.859375 63.625 18.40625 
Q 63.625 12.0625 66.03125 8.421875 
Q 68.453125 4.78125 72.703125 4.78125 
Q 76.859375 4.78125 79.265625 8.421875 
Q 81.6875 12.0625 81.6875 18.40625 
Q 81.6875 24.8125 79.265625 28.4375 
Q 76.859375 32.078125 72.703125 32.078125 
z
M 72.703125 38.28125 
Q 80.421875 38.28125 84.953125 32.90625 
Q 89.5 27.546875 89.5 18.40625 
Q 89.5 9.28125 84.9375 3.921875 
Q 80.375 -1.421875 72.703125 -1.421875 
Q 64.890625 -1.421875 60.34375 3.921875 
Q 55.8125 9.28125 55.8125 18.40625 
Q 55.8125 27.59375 60.375 32.9375 
Q 64.9375 38.28125 72.703125 38.28125 
z
M 22.3125 68.015625 
Q 18.109375 68.015625 15.6875 64.375 
Q 13.28125 60.75 13.28125 54.390625 
Q 13.28125 47.953125 15.671875 44.328125 
Q 18.0625 40.71875 22.3125 40.71875 
Q 26.5625 40.71875 28.96875 44.328125 
Q 31.390625 47.953125 31.390625 54.390625 
Q 31.390625 60.6875 28.953125 64.34375 
Q 26.515625 68.015625 22.3125 68.015625 
z
M 66.40625 74.21875 
L 74.21875 74.21875 
L 28.609375 -1.421875 
L 20.796875 -1.421875 
z
M 22.3125 74.21875 
Q 30.03125 74.21875 34.609375 68.875 
Q 39.203125 63.53125 39.203125 54.390625 
Q 39.203125 45.171875 34.640625 39.84375 
Q 30.078125 34.515625 22.3125 34.515625 
Q 14.546875 34.515625 10.03125 39.859375 
Q 5.515625 45.21875 5.515625 54.390625 
Q 5.515625 63.484375 10.046875 68.84375 
Q 14.59375 74.21875 22.3125 74.21875 
z
" id="DejaVuSans-25"/>
      <path id="DejaVuSans-20"/>
      <path d="M 30.609375 48.390625 
Q 23.390625 48.390625 19.1875 42.75 
Q 14.984375 37.109375 14.984375 27.296875 
Q 14.984375 17.484375 19.15625 11.84375 
Q 23.34375 6.203125 30.609375 6.203125 
Q 37.796875 6.203125 41.984375 11.859375 
Q 46.1875 17.53125 46.1875 27.296875 
Q 46.1875 37.015625 41.984375 42.703125 
Q 37.796875 48.390625 30.609375 48.390625 
z
M 30.609375 56 
Q 42.328125 56 49.015625 48.375 
Q 55.71875 40.765625 55.71875 27.296875 
Q 55.71875 13.875 49.015625 6.21875 
Q 42.328125 -1.421875 30.609375 -1.421875 
Q 18.84375 -1.421875 12.171875 6.21875 
Q 5.515625 13.875 5.515625 27.296875 
Q 5.515625 40.765625 12.171875 48.375 
Q 18.84375 56 30.609375 56 
z
" id="DejaVuSans-6f"/>
      <path d="M 37.109375 75.984375 
L 37.109375 68.5 
L 28.515625 68.5 
Q 23.6875 68.5 21.796875 66.546875 
Q 19.921875 64.59375 19.921875 59.515625 
L 19.921875 54.6875 
L 34.71875 54.6875 
L 34.71875 47.703125 
L 19.921875 47.703125 
L 19.921875 0 
L 10.890625 0 
L 10.890625 47.703125 
L 2.296875 47.703125 
L 2.296875 54.6875 
L 10.890625 54.6875 
L 10.890625 58.5 
Q 10.890625 67.625 15.140625 71.796875 
Q 19.390625 75.984375 28.609375 75.984375 
z
" id="DejaVuSans-66"/>
      <path d="M 44.28125 53.078125 
L 44.28125 44.578125 
Q 40.484375 46.53125 36.375 47.5 
Q 32.28125 48.484375 27.875 48.484375 
Q 21.1875 48.484375 17.84375 46.4375 
Q 14.5 44.390625 14.5 40.28125 
Q 14.5 37.15625 16.890625 35.375 
Q 19.28125 33.59375 26.515625 31.984375 
L 29.59375 31.296875 
Q 39.15625 29.25 43.1875 25.515625 
Q 47.21875 21.78125 47.21875 15.09375 
Q 47.21875 7.46875 41.1875 3.015625 
Q 35.15625 -1.421875 24.609375 -1.421875 
Q 20.21875 -1.421875 15.453125 -0.5625 
Q 10.6875 0.296875 5.421875 2 
L 5.421875 11.28125 
Q 10.40625 8.6875 15.234375 7.390625 
Q 20.0625 6.109375 24.8125 6.109375 
Q 31.15625 6.109375 34.5625 8.28125 
Q 37.984375 10.453125 37.984375 14.40625 
Q 37.984375 18.0625 35.515625 20.015625 
Q 33.0625 21.96875 24.703125 23.78125 
L 21.578125 24.515625 
Q 13.234375 26.265625 9.515625 29.90625 
Q 5.8125 33.546875 5.8125 39.890625 
Q 5.8125 47.609375 11.28125 51.796875 
Q 16.75 56 26.8125 56 
Q 31.78125 56 36.171875 55.265625 
Q 40.578125 54.546875 44.28125 53.078125 
z
" id="DejaVuSans-73"/>
      <path d="M 56.203125 29.59375 
L 56.203125 25.203125 
L 14.890625 25.203125 
Q 15.484375 15.921875 20.484375 11.0625 
Q 25.484375 6.203125 34.421875 6.203125 
Q 39.59375 6.203125 44.453125 7.46875 
Q 49.3125 8.734375 54.109375 11.28125 
L 54.109375 2.78125 
Q 49.265625 0.734375 44.1875 -0.34375 
Q 39.109375 -1.421875 33.890625 -1.421875 
Q 20.796875 -1.421875 13.15625 6.1875 
Q 5.515625 13.8125 5.515625 26.8125 
Q 5.515625 40.234375 12.765625 48.109375 
Q 20.015625 56 32.328125 56 
Q 43.359375 56 49.78125 48.890625 
Q 56.203125 41.796875 56.203125 29.59375 
z
M 47.21875 32.234375 
Q 47.125 39.59375 43.09375 43.984375 
Q 39.0625 48.390625 32.421875 48.390625 
Q 24.90625 48.390625 20.390625 44.140625 
Q 15.875 39.890625 15.1875 32.171875 
z
" id="DejaVuSans-65"/>
      <path d="M 14.796875 27.296875 
Q 14.796875 17.390625 18.875 11.75 
Q 22.953125 6.109375 30.078125 6.109375 
Q 37.203125 6.109375 41.296875 11.75 
Q 45.40625 17.390625 45.40625 27.296875 
Q 45.40625 37.203125 41.296875 42.84375 
Q 37.203125 48.484375 30.078125 48.484375 
Q 22.953125 48.484375 18.875 42.84375 
Q 14.796875 37.203125 14.796875 27.296875 
z
M 45.40625 8.203125 
Q 42.578125 3.328125 38.25 0.953125 
Q 33.9375 -1.421875 27.875 -1.421875 
Q 17.96875 -1.421875 11.734375 6.484375 
Q 5.515625 14.40625 5.515625 27.296875 
Q 5.515625 40.1875 11.734375 48.09375 
Q 17.96875 56 27.875 56 
Q 33.9375 56 38.25 53.625 
Q 42.578125 51.265625 45.40625 46.390625 
L 45.40625 54.6875 
L 54.390625 54.6875 
L 54.390625 -20.796875 
L 45.40625 -20.796875 
z
" id="DejaVuSans-71"/>
      <path d="M 8.5 21.578125 
L 8.5 54.6875 
L 17.484375 54.6875 
L 17.484375 21.921875 
Q 17.484375 14.15625 20.5 10.265625 
Q 23.53125 6.390625 29.59375 6.390625 
Q 36.859375 6.390625 41.078125 11.03125 
Q 45.3125 15.671875 45.3125 23.6875 
L 45.3125 54.6875 
L 54.296875 54.6875 
L 54.296875 0 
L 45.3125 0 
L 45.3125 8.40625 
Q 42.046875 3.421875 37.71875 1 
Q 33.40625 -1.421875 27.6875 -1.421875 
Q 18.265625 -1.421875 13.375 4.4375 
Q 8.5 10.296875 8.5 21.578125 
z
M 31.109375 56 
z
" id="DejaVuSans-75"/>
      <path d="M 54.890625 33.015625 
L 54.890625 0 
L 45.90625 0 
L 45.90625 32.71875 
Q 45.90625 40.484375 42.875 44.328125 
Q 39.84375 48.1875 33.796875 48.1875 
Q 26.515625 48.1875 22.3125 43.546875 
Q 18.109375 38.921875 18.109375 30.90625 
L 18.109375 0 
L 9.078125 0 
L 9.078125 54.6875 
L 18.109375 54.6875 
L 18.109375 46.1875 
Q 21.34375 51.125 25.703125 53.5625 
Q 30.078125 56 35.796875 56 
Q 45.21875 56 50.046875 50.171875 
Q 54.890625 44.34375 54.890625 33.015625 
z
" id="DejaVuSans-6e"/>
      <path d="M 48.78125 52.59375 
L 48.78125 44.1875 
Q 44.96875 46.296875 41.140625 47.34375 
Q 37.3125 48.390625 33.40625 48.390625 
Q 24.65625 48.390625 19.8125 42.84375 
Q 14.984375 37.3125 14.984375 27.296875 
Q 14.984375 17.28125 19.8125 11.734375 
Q 24.65625 6.203125 33.40625 6.203125 
Q 37.3125 6.203125 41.140625 7.25 
Q 44.96875 8.296875 48.78125 10.40625 
L 48.78125 2.09375 
Q 45.015625 0.34375 40.984375 -0.53125 
Q 36.96875 -1.421875 32.421875 -1.421875 
Q 20.0625 -1.421875 12.78125 6.34375 
Q 5.515625 14.109375 5.515625 27.296875 
Q 5.515625 40.671875 12.859375 48.328125 
Q 20.21875 56 33.015625 56 
Q 37.15625 56 41.109375 55.140625 
Q 45.0625 54.296875 48.78125 52.59375 
z
" id="DejaVuSans-63"/>
     </defs>
     <g transform="translate(63.363438 346.107813)rotate(-90)scale(0.14 -0.14)">
      <use xlink:href="#DejaVuSans-25"/>
      <use x="95.019531" xlink:href="#DejaVuSans-20"/>
      <use x="126.806641" xlink:href="#DejaVuSans-6f"/>
      <use x="187.988281" xlink:href="#DejaVuSans-66"/>
      <use x="223.193359" xlink:href="#DejaVuSans-20"/>
      <use x="254.980469" xlink:href="#DejaVuSans-73"/>
      <use x="307.080078" xlink:href="#DejaVuSans-65"/>
      <use x="368.603516" xlink:href="#DejaVuSans-71"/>
      <use x="432.080078" xlink:href="#DejaVuSans-75"/>
      <use x="495.458984" xlink:href="#DejaVuSans-65"/>
      <use x="556.982422" xlink:href="#DejaVuSans-6e"/>
      <use x="620.361328" xlink:href="#DejaVuSans-63"/>
      <use x="675.341797" xlink:href="#DejaVuSans-65"/>
      <use x="736.865234" xlink:href="#DejaVuSans-73"/>
     </g>
    </g>
   </g>
   <g id="patch_49">
    <path d="M 90 512.64 
L 90 69.12 
" style="fill:none;stroke:#000000;stroke-linecap:square;stroke-linejoin:miter;stroke-width:0.8;"/>
   </g>
   <g id="patch_50">
    <path d="M 648 512.64 
L 648 69.12 
" style="fill:none;stroke:#000000;stroke-linecap:square;stroke-linejoin:miter;stroke-width:0.8;"/>
   </g>
   <g id="patch_51">
    <path d="M 90 512.64 
L 648 512.64 
" style="fill:none;stroke:#000000;stroke-linecap:square;stroke-linejoin:miter;stroke-width:0.8;"/>
   </g>
   <g id="patch_52">
    <path d="M 90 69.12 
L 648 69.12 
" style="fill:none;stroke:#000000;stroke-linecap:square;stroke-linejoin:miter;stroke-width:0.8;"/>
   </g>
  </g>
 </g>
 <defs>
  <clipPath id="p9ebfdfe91b">
   <rect height="443.52" width="558" x="90" y="69.12"/>
  </clipPath>
 </defs>
</svg>
