<?xml version="1.0" encoding="utf-8" standalone="no"?>
<!DOCTYPE svg PUBLIC "-//W3C//DTD SVG 1.1//EN"
  "http://www.w3.org/Graphics/SVG/1.1/DTD/svg11.dtd">
<!-- Created with matplotlib (http://matplotlib.org/) -->
<svg height="576pt" version="1.1" viewBox="0 0 720 576" width="720pt" xmlns="http://www.w3.org/2000/svg" xmlns:xlink="http://www.w3.org/1999/xlink">
 <defs>
  <style type="text/css">
*{stroke-linecap:butt;stroke-linejoin:round;}
  </style>
 </defs>
 <g id="figure_1">
  <g id="patch_1">
   <path d="M 0 576 
L 720 576 
L 720 0 
L 0 0 
z
" style="fill:#ffffff;"/>
  </g>
  <g id="axes_1">
   <g id="patch_2">
    <path d="M 90 512.64 
L 648 512.64 
L 648 69.12 
L 90 69.12 
z
" style="fill:#ffffff;"/>
   </g>
   <g id="patch_3">
    <path clip-path="url(#p486172e968)" d="M 99.3 475.68 
L 173.7 475.68 
L 173.7 463.946667 
L 99.3 463.946667 
L 99.3 475.68 
z
" style="fill:#3274a1;stroke:#3d3d3d;stroke-linejoin:miter;stroke-width:1.5;"/>
   </g>
   <g id="patch_4">
    <path clip-path="url(#p486172e968)" d="M 192.3 475.68 
L 266.7 475.68 
L 266.7 475.68 
L 192.3 475.68 
L 192.3 475.68 
z
" style="fill:#e1812c;stroke:#3d3d3d;stroke-linejoin:miter;stroke-width:1.5;"/>
   </g>
   <g id="patch_5">
    <path clip-path="url(#p486172e968)" d="M 285.3 475.68 
L 359.7 475.68 
L 359.7 475.68 
L 285.3 475.68 
L 285.3 475.68 
z
" style="fill:#3a923a;stroke:#3d3d3d;stroke-linejoin:miter;stroke-width:1.5;"/>
   </g>
   <g id="patch_6">
    <path clip-path="url(#p486172e968)" d="M 378.3 475.68 
L 452.7 475.68 
L 452.7 475.68 
L 378.3 475.68 
L 378.3 475.68 
z
" style="fill:#c03d3e;stroke:#3d3d3d;stroke-linejoin:miter;stroke-width:1.5;"/>
   </g>
   <g id="patch_7">
    <path clip-path="url(#p486172e968)" d="M 471.3 475.68 
L 545.7 475.68 
L 545.7 475.68 
L 471.3 475.68 
L 471.3 475.68 
z
" style="fill:#9372b2;stroke:#3d3d3d;stroke-linejoin:miter;stroke-width:1.5;"/>
   </g>
   <g id="patch_8">
    <path clip-path="url(#p486172e968)" d="M 564.3 475.68 
L 638.7 475.68 
L 638.7 436.587692 
L 564.3 436.587692 
L 564.3 475.68 
z
" style="fill:#845b53;stroke:#3d3d3d;stroke-linejoin:miter;stroke-width:1.5;"/>
   </g>
   <g id="matplotlib.axis_1">
    <g id="xtick_1">
     <g id="line2d_1">
      <defs>
       <path d="M 0 0 
L 0 3.5 
" id="m430643fd4e" style="stroke:#1a1a1a;stroke-width:0.8;"/>
      </defs>
      <g>
       <use style="fill:#1a1a1a;stroke:#1a1a1a;stroke-width:0.8;" x="136.5" xlink:href="#m430643fd4e" y="512.64"/>
      </g>
     </g>
     <g id="text_1">
      <!-- IGHJ6 -->
      <defs>
       <path d="M 9.8125 72.90625 
L 19.671875 72.90625 
L 19.671875 0 
L 9.8125 0 
z
" id="DejaVuSans-49"/>
       <path d="M 59.515625 10.40625 
L 59.515625 29.984375 
L 43.40625 29.984375 
L 43.40625 38.09375 
L 69.28125 38.09375 
L 69.28125 6.78125 
Q 63.578125 2.734375 56.6875 0.65625 
Q 49.8125 -1.421875 42 -1.421875 
Q 24.90625 -1.421875 15.25 8.5625 
Q 5.609375 18.5625 5.609375 36.375 
Q 5.609375 54.25 15.25 64.234375 
Q 24.90625 74.21875 42 74.21875 
Q 49.125 74.21875 55.546875 72.453125 
Q 61.96875 70.703125 67.390625 67.28125 
L 67.390625 56.78125 
Q 61.921875 61.421875 55.765625 63.765625 
Q 49.609375 66.109375 42.828125 66.109375 
Q 29.4375 66.109375 22.71875 58.640625 
Q 16.015625 51.171875 16.015625 36.375 
Q 16.015625 21.625 22.71875 14.15625 
Q 29.4375 6.6875 42.828125 6.6875 
Q 48.046875 6.6875 52.140625 7.59375 
Q 56.25 8.5 59.515625 10.40625 
z
" id="DejaVuSans-47"/>
       <path d="M 9.8125 72.90625 
L 19.671875 72.90625 
L 19.671875 43.015625 
L 55.515625 43.015625 
L 55.515625 72.90625 
L 65.375 72.90625 
L 65.375 0 
L 55.515625 0 
L 55.515625 34.71875 
L 19.671875 34.71875 
L 19.671875 0 
L 9.8125 0 
z
" id="DejaVuSans-48"/>
       <path d="M 9.8125 72.90625 
L 19.671875 72.90625 
L 19.671875 5.078125 
Q 19.671875 -8.109375 14.671875 -14.0625 
Q 9.671875 -20.015625 -1.421875 -20.015625 
L -5.171875 -20.015625 
L -5.171875 -11.71875 
L -2.09375 -11.71875 
Q 4.4375 -11.71875 7.125 -8.046875 
Q 9.8125 -4.390625 9.8125 5.078125 
z
" id="DejaVuSans-4a"/>
       <path d="M 33.015625 40.375 
Q 26.375 40.375 22.484375 35.828125 
Q 18.609375 31.296875 18.609375 23.390625 
Q 18.609375 15.53125 22.484375 10.953125 
Q 26.375 6.390625 33.015625 6.390625 
Q 39.65625 6.390625 43.53125 10.953125 
Q 47.40625 15.53125 47.40625 23.390625 
Q 47.40625 31.296875 43.53125 35.828125 
Q 39.65625 40.375 33.015625 40.375 
z
M 52.59375 71.296875 
L 52.59375 62.3125 
Q 48.875 64.0625 45.09375 64.984375 
Q 41.3125 65.921875 37.59375 65.921875 
Q 27.828125 65.921875 22.671875 59.328125 
Q 17.53125 52.734375 16.796875 39.40625 
Q 19.671875 43.65625 24.015625 45.921875 
Q 28.375 48.1875 33.59375 48.1875 
Q 44.578125 48.1875 50.953125 41.515625 
Q 57.328125 34.859375 57.328125 23.390625 
Q 57.328125 12.15625 50.6875 5.359375 
Q 44.046875 -1.421875 33.015625 -1.421875 
Q 20.359375 -1.421875 13.671875 8.265625 
Q 6.984375 17.96875 6.984375 36.375 
Q 6.984375 53.65625 15.1875 63.9375 
Q 23.390625 74.21875 37.203125 74.21875 
Q 40.921875 74.21875 44.703125 73.484375 
Q 48.484375 72.75 52.59375 71.296875 
z
" id="DejaVuSans-36"/>
      </defs>
      <g style="fill:#1a1a1a;" transform="translate(139.259375 547.17125)rotate(-90)scale(0.1 -0.1)">
       <use xlink:href="#DejaVuSans-49"/>
       <use x="29.492188" xlink:href="#DejaVuSans-47"/>
       <use x="106.982422" xlink:href="#DejaVuSans-48"/>
       <use x="182.177734" xlink:href="#DejaVuSans-4a"/>
       <use x="211.669922" xlink:href="#DejaVuSans-36"/>
      </g>
     </g>
    </g>
    <g id="xtick_2">
     <g id="line2d_2">
      <g>
       <use style="fill:#1a1a1a;stroke:#1a1a1a;stroke-width:0.8;" x="229.5" xlink:href="#m430643fd4e" y="512.64"/>
      </g>
     </g>
     <g id="text_2">
      <!-- IGHJ5 -->
      <defs>
       <path d="M 10.796875 72.90625 
L 49.515625 72.90625 
L 49.515625 64.59375 
L 19.828125 64.59375 
L 19.828125 46.734375 
Q 21.96875 47.46875 24.109375 47.828125 
Q 26.265625 48.1875 28.421875 48.1875 
Q 40.625 48.1875 47.75 41.5 
Q 54.890625 34.8125 54.890625 23.390625 
Q 54.890625 11.625 47.5625 5.09375 
Q 40.234375 -1.421875 26.90625 -1.421875 
Q 22.3125 -1.421875 17.546875 -0.640625 
Q 12.796875 0.140625 7.71875 1.703125 
L 7.71875 11.625 
Q 12.109375 9.234375 16.796875 8.0625 
Q 21.484375 6.890625 26.703125 6.890625 
Q 35.15625 6.890625 40.078125 11.328125 
Q 45.015625 15.765625 45.015625 23.390625 
Q 45.015625 31 40.078125 35.4375 
Q 35.15625 39.890625 26.703125 39.890625 
Q 22.75 39.890625 18.8125 39.015625 
Q 14.890625 38.140625 10.796875 36.28125 
z
" id="DejaVuSans-35"/>
      </defs>
      <g style="fill:#1a1a1a;" transform="translate(232.259375 547.17125)rotate(-90)scale(0.1 -0.1)">
       <use xlink:href="#DejaVuSans-49"/>
       <use x="29.492188" xlink:href="#DejaVuSans-47"/>
       <use x="106.982422" xlink:href="#DejaVuSans-48"/>
       <use x="182.177734" xlink:href="#DejaVuSans-4a"/>
       <use x="211.669922" xlink:href="#DejaVuSans-35"/>
      </g>
     </g>
    </g>
    <g id="xtick_3">
     <g id="line2d_3">
      <g>
       <use style="fill:#1a1a1a;stroke:#1a1a1a;stroke-width:0.8;" x="322.5" xlink:href="#m430643fd4e" y="512.64"/>
      </g>
     </g>
     <g id="text_3">
      <!-- IGHJ4 -->
      <defs>
       <path d="M 37.796875 64.3125 
L 12.890625 25.390625 
L 37.796875 25.390625 
z
M 35.203125 72.90625 
L 47.609375 72.90625 
L 47.609375 25.390625 
L 58.015625 25.390625 
L 58.015625 17.1875 
L 47.609375 17.1875 
L 47.609375 0 
L 37.796875 0 
L 37.796875 17.1875 
L 4.890625 17.1875 
L 4.890625 26.703125 
z
" id="DejaVuSans-34"/>
      </defs>
      <g style="fill:#1a1a1a;" transform="translate(325.259375 547.17125)rotate(-90)scale(0.1 -0.1)">
       <use xlink:href="#DejaVuSans-49"/>
       <use x="29.492188" xlink:href="#DejaVuSans-47"/>
       <use x="106.982422" xlink:href="#DejaVuSans-48"/>
       <use x="182.177734" xlink:href="#DejaVuSans-4a"/>
       <use x="211.669922" xlink:href="#DejaVuSans-34"/>
      </g>
     </g>
    </g>
    <g id="xtick_4">
     <g id="line2d_4">
      <g>
       <use style="fill:#1a1a1a;stroke:#1a1a1a;stroke-width:0.8;" x="415.5" xlink:href="#m430643fd4e" y="512.64"/>
      </g>
     </g>
     <g id="text_4">
      <!-- IGHJ3 -->
      <defs>
       <path d="M 40.578125 39.3125 
Q 47.65625 37.796875 51.625 33 
Q 55.609375 28.21875 55.609375 21.1875 
Q 55.609375 10.40625 48.1875 4.484375 
Q 40.765625 -1.421875 27.09375 -1.421875 
Q 22.515625 -1.421875 17.65625 -0.515625 
Q 12.796875 0.390625 7.625 2.203125 
L 7.625 11.71875 
Q 11.71875 9.328125 16.59375 8.109375 
Q 21.484375 6.890625 26.8125 6.890625 
Q 36.078125 6.890625 40.9375 10.546875 
Q 45.796875 14.203125 45.796875 21.1875 
Q 45.796875 27.640625 41.28125 31.265625 
Q 36.765625 34.90625 28.71875 34.90625 
L 20.21875 34.90625 
L 20.21875 43.015625 
L 29.109375 43.015625 
Q 36.375 43.015625 40.234375 45.921875 
Q 44.09375 48.828125 44.09375 54.296875 
Q 44.09375 59.90625 40.109375 62.90625 
Q 36.140625 65.921875 28.71875 65.921875 
Q 24.65625 65.921875 20.015625 65.03125 
Q 15.375 64.15625 9.8125 62.3125 
L 9.8125 71.09375 
Q 15.4375 72.65625 20.34375 73.4375 
Q 25.25 74.21875 29.59375 74.21875 
Q 40.828125 74.21875 47.359375 69.109375 
Q 53.90625 64.015625 53.90625 55.328125 
Q 53.90625 49.265625 50.4375 45.09375 
Q 46.96875 40.921875 40.578125 39.3125 
z
" id="DejaVuSans-33"/>
      </defs>
      <g style="fill:#1a1a1a;" transform="translate(418.259375 547.17125)rotate(-90)scale(0.1 -0.1)">
       <use xlink:href="#DejaVuSans-49"/>
       <use x="29.492188" xlink:href="#DejaVuSans-47"/>
       <use x="106.982422" xlink:href="#DejaVuSans-48"/>
       <use x="182.177734" xlink:href="#DejaVuSans-4a"/>
       <use x="211.669922" xlink:href="#DejaVuSans-33"/>
      </g>
     </g>
    </g>
    <g id="xtick_5">
     <g id="line2d_5">
      <g>
       <use style="fill:#1a1a1a;stroke:#1a1a1a;stroke-width:0.8;" x="508.5" xlink:href="#m430643fd4e" y="512.64"/>
      </g>
     </g>
     <g id="text_5">
      <!-- IGHJ2 -->
      <defs>
       <path d="M 19.1875 8.296875 
L 53.609375 8.296875 
L 53.609375 0 
L 7.328125 0 
L 7.328125 8.296875 
Q 12.9375 14.109375 22.625 23.890625 
Q 32.328125 33.6875 34.8125 36.53125 
Q 39.546875 41.84375 41.421875 45.53125 
Q 43.3125 49.21875 43.3125 52.78125 
Q 43.3125 58.59375 39.234375 62.25 
Q 35.15625 65.921875 28.609375 65.921875 
Q 23.96875 65.921875 18.8125 64.3125 
Q 13.671875 62.703125 7.8125 59.421875 
L 7.8125 69.390625 
Q 13.765625 71.78125 18.9375 73 
Q 24.125 74.21875 28.421875 74.21875 
Q 39.75 74.21875 46.484375 68.546875 
Q 53.21875 62.890625 53.21875 53.421875 
Q 53.21875 48.921875 51.53125 44.890625 
Q 49.859375 40.875 45.40625 35.40625 
Q 44.1875 33.984375 37.640625 27.21875 
Q 31.109375 20.453125 19.1875 8.296875 
z
" id="DejaVuSans-32"/>
      </defs>
      <g style="fill:#1a1a1a;" transform="translate(511.259375 547.17125)rotate(-90)scale(0.1 -0.1)">
       <use xlink:href="#DejaVuSans-49"/>
       <use x="29.492188" xlink:href="#DejaVuSans-47"/>
       <use x="106.982422" xlink:href="#DejaVuSans-48"/>
       <use x="182.177734" xlink:href="#DejaVuSans-4a"/>
       <use x="211.669922" xlink:href="#DejaVuSans-32"/>
      </g>
     </g>
    </g>
    <g id="xtick_6">
     <g id="line2d_6">
      <g>
       <use style="fill:#1a1a1a;stroke:#1a1a1a;stroke-width:0.8;" x="601.5" xlink:href="#m430643fd4e" y="512.64"/>
      </g>
     </g>
     <g id="text_6">
      <!-- IGHJ1 -->
      <defs>
       <path d="M 12.40625 8.296875 
L 28.515625 8.296875 
L 28.515625 63.921875 
L 10.984375 60.40625 
L 10.984375 69.390625 
L 28.421875 72.90625 
L 38.28125 72.90625 
L 38.28125 8.296875 
L 54.390625 8.296875 
L 54.390625 0 
L 12.40625 0 
z
" id="DejaVuSans-31"/>
      </defs>
      <g style="fill:#1a1a1a;" transform="translate(604.259375 547.17125)rotate(-90)scale(0.1 -0.1)">
       <use xlink:href="#DejaVuSans-49"/>
       <use x="29.492188" xlink:href="#DejaVuSans-47"/>
       <use x="106.982422" xlink:href="#DejaVuSans-48"/>
       <use x="182.177734" xlink:href="#DejaVuSans-4a"/>
       <use x="211.669922" xlink:href="#DejaVuSans-31"/>
      </g>
     </g>
    </g>
   </g>
   <g id="matplotlib.axis_2">
    <g id="ytick_1">
     <g id="line2d_7">
      <defs>
       <path d="M 0 0 
L -3.5 0 
" id="m4c5c27e5c1" style="stroke:#1a1a1a;stroke-width:0.8;"/>
      </defs>
      <g>
       <use style="fill:#1a1a1a;stroke:#1a1a1a;stroke-width:0.8;" x="90" xlink:href="#m4c5c27e5c1" y="475.68"/>
      </g>
     </g>
     <g id="text_7">
      <!-- 0.0 -->
      <defs>
       <path d="M 31.78125 66.40625 
Q 24.171875 66.40625 20.328125 58.90625 
Q 16.5 51.421875 16.5 36.375 
Q 16.5 21.390625 20.328125 13.890625 
Q 24.171875 6.390625 31.78125 6.390625 
Q 39.453125 6.390625 43.28125 13.890625 
Q 47.125 21.390625 47.125 36.375 
Q 47.125 51.421875 43.28125 58.90625 
Q 39.453125 66.40625 31.78125 66.40625 
z
M 31.78125 74.21875 
Q 44.046875 74.21875 50.515625 64.515625 
Q 56.984375 54.828125 56.984375 36.375 
Q 56.984375 17.96875 50.515625 8.265625 
Q 44.046875 -1.421875 31.78125 -1.421875 
Q 19.53125 -1.421875 13.0625 8.265625 
Q 6.59375 17.96875 6.59375 36.375 
Q 6.59375 54.828125 13.0625 64.515625 
Q 19.53125 74.21875 31.78125 74.21875 
z
" id="DejaVuSans-30"/>
       <path d="M 10.6875 12.40625 
L 21 12.40625 
L 21 0 
L 10.6875 0 
z
" id="DejaVuSans-2e"/>
      </defs>
      <g style="fill:#1a1a1a;" transform="translate(67.096875 479.479219)scale(0.1 -0.1)">
       <use xlink:href="#DejaVuSans-30"/>
       <use x="63.623047" xlink:href="#DejaVuSans-2e"/>
       <use x="95.410156" xlink:href="#DejaVuSans-30"/>
      </g>
     </g>
    </g>
    <g id="ytick_2">
     <g id="line2d_8">
      <g>
       <use style="fill:#1a1a1a;stroke:#1a1a1a;stroke-width:0.8;" x="90" xlink:href="#m4c5c27e5c1" y="401.76"/>
      </g>
     </g>
     <g id="text_8">
      <!-- 0.1 -->
      <g style="fill:#1a1a1a;" transform="translate(67.096875 405.559219)scale(0.1 -0.1)">
       <use xlink:href="#DejaVuSans-30"/>
       <use x="63.623047" xlink:href="#DejaVuSans-2e"/>
       <use x="95.410156" xlink:href="#DejaVuSans-31"/>
      </g>
     </g>
    </g>
    <g id="ytick_3">
     <g id="line2d_9">
      <g>
       <use style="fill:#1a1a1a;stroke:#1a1a1a;stroke-width:0.8;" x="90" xlink:href="#m4c5c27e5c1" y="327.84"/>
      </g>
     </g>
     <g id="text_9">
      <!-- 0.2 -->
      <g style="fill:#1a1a1a;" transform="translate(67.096875 331.639219)scale(0.1 -0.1)">
       <use xlink:href="#DejaVuSans-30"/>
       <use x="63.623047" xlink:href="#DejaVuSans-2e"/>
       <use x="95.410156" xlink:href="#DejaVuSans-32"/>
      </g>
     </g>
    </g>
    <g id="ytick_4">
     <g id="line2d_10">
      <g>
       <use style="fill:#1a1a1a;stroke:#1a1a1a;stroke-width:0.8;" x="90" xlink:href="#m4c5c27e5c1" y="253.92"/>
      </g>
     </g>
     <g id="text_10">
      <!-- 0.3 -->
      <g style="fill:#1a1a1a;" transform="translate(67.096875 257.719219)scale(0.1 -0.1)">
       <use xlink:href="#DejaVuSans-30"/>
       <use x="63.623047" xlink:href="#DejaVuSans-2e"/>
       <use x="95.410156" xlink:href="#DejaVuSans-33"/>
      </g>
     </g>
    </g>
    <g id="ytick_5">
     <g id="line2d_11">
      <g>
       <use style="fill:#1a1a1a;stroke:#1a1a1a;stroke-width:0.8;" x="90" xlink:href="#m4c5c27e5c1" y="180"/>
      </g>
     </g>
     <g id="text_11">
      <!-- 0.4 -->
      <g style="fill:#1a1a1a;" transform="translate(67.096875 183.799219)scale(0.1 -0.1)">
       <use xlink:href="#DejaVuSans-30"/>
       <use x="63.623047" xlink:href="#DejaVuSans-2e"/>
       <use x="95.410156" xlink:href="#DejaVuSans-34"/>
      </g>
     </g>
    </g>
    <g id="ytick_6">
     <g id="line2d_12">
      <g>
       <use style="fill:#1a1a1a;stroke:#1a1a1a;stroke-width:0.8;" x="90" xlink:href="#m4c5c27e5c1" y="106.08"/>
      </g>
     </g>
     <g id="text_12">
      <!-- 0.5 -->
      <g style="fill:#1a1a1a;" transform="translate(67.096875 109.879219)scale(0.1 -0.1)">
       <use xlink:href="#DejaVuSans-30"/>
       <use x="63.623047" xlink:href="#DejaVuSans-2e"/>
       <use x="95.410156" xlink:href="#DejaVuSans-35"/>
      </g>
     </g>
    </g>
    <g id="text_13">
     <!-- Mutability -->
     <defs>
      <path d="M 9.8125 72.90625 
L 24.515625 72.90625 
L 43.109375 23.296875 
L 61.8125 72.90625 
L 76.515625 72.90625 
L 76.515625 0 
L 66.890625 0 
L 66.890625 64.015625 
L 48.09375 14.015625 
L 38.1875 14.015625 
L 19.390625 64.015625 
L 19.390625 0 
L 9.8125 0 
z
" id="DejaVuSans-4d"/>
      <path d="M 8.5 21.578125 
L 8.5 54.6875 
L 17.484375 54.6875 
L 17.484375 21.921875 
Q 17.484375 14.15625 20.5 10.265625 
Q 23.53125 6.390625 29.59375 6.390625 
Q 36.859375 6.390625 41.078125 11.03125 
Q 45.3125 15.671875 45.3125 23.6875 
L 45.3125 54.6875 
L 54.296875 54.6875 
L 54.296875 0 
L 45.3125 0 
L 45.3125 8.40625 
Q 42.046875 3.421875 37.71875 1 
Q 33.40625 -1.421875 27.6875 -1.421875 
Q 18.265625 -1.421875 13.375 4.4375 
Q 8.5 10.296875 8.5 21.578125 
z
M 31.109375 56 
z
" id="DejaVuSans-75"/>
      <path d="M 18.3125 70.21875 
L 18.3125 54.6875 
L 36.8125 54.6875 
L 36.8125 47.703125 
L 18.3125 47.703125 
L 18.3125 18.015625 
Q 18.3125 11.328125 20.140625 9.421875 
Q 21.96875 7.515625 27.59375 7.515625 
L 36.8125 7.515625 
L 36.8125 0 
L 27.59375 0 
Q 17.1875 0 13.234375 3.875 
Q 9.28125 7.765625 9.28125 18.015625 
L 9.28125 47.703125 
L 2.6875 47.703125 
L 2.6875 54.6875 
L 9.28125 54.6875 
L 9.28125 70.21875 
z
" id="DejaVuSans-74"/>
      <path d="M 34.28125 27.484375 
Q 23.390625 27.484375 19.1875 25 
Q 14.984375 22.515625 14.984375 16.5 
Q 14.984375 11.71875 18.140625 8.90625 
Q 21.296875 6.109375 26.703125 6.109375 
Q 34.1875 6.109375 38.703125 11.40625 
Q 43.21875 16.703125 43.21875 25.484375 
L 43.21875 27.484375 
z
M 52.203125 31.203125 
L 52.203125 0 
L 43.21875 0 
L 43.21875 8.296875 
Q 40.140625 3.328125 35.546875 0.953125 
Q 30.953125 -1.421875 24.3125 -1.421875 
Q 15.921875 -1.421875 10.953125 3.296875 
Q 6 8.015625 6 15.921875 
Q 6 25.140625 12.171875 29.828125 
Q 18.359375 34.515625 30.609375 34.515625 
L 43.21875 34.515625 
L 43.21875 35.40625 
Q 43.21875 41.609375 39.140625 45 
Q 35.0625 48.390625 27.6875 48.390625 
Q 23 48.390625 18.546875 47.265625 
Q 14.109375 46.140625 10.015625 43.890625 
L 10.015625 52.203125 
Q 14.9375 54.109375 19.578125 55.046875 
Q 24.21875 56 28.609375 56 
Q 40.484375 56 46.34375 49.84375 
Q 52.203125 43.703125 52.203125 31.203125 
z
" id="DejaVuSans-61"/>
      <path d="M 48.6875 27.296875 
Q 48.6875 37.203125 44.609375 42.84375 
Q 40.53125 48.484375 33.40625 48.484375 
Q 26.265625 48.484375 22.1875 42.84375 
Q 18.109375 37.203125 18.109375 27.296875 
Q 18.109375 17.390625 22.1875 11.75 
Q 26.265625 6.109375 33.40625 6.109375 
Q 40.53125 6.109375 44.609375 11.75 
Q 48.6875 17.390625 48.6875 27.296875 
z
M 18.109375 46.390625 
Q 20.953125 51.265625 25.265625 53.625 
Q 29.59375 56 35.59375 56 
Q 45.5625 56 51.78125 48.09375 
Q 58.015625 40.1875 58.015625 27.296875 
Q 58.015625 14.40625 51.78125 6.484375 
Q 45.5625 -1.421875 35.59375 -1.421875 
Q 29.59375 -1.421875 25.265625 0.953125 
Q 20.953125 3.328125 18.109375 8.203125 
L 18.109375 0 
L 9.078125 0 
L 9.078125 75.984375 
L 18.109375 75.984375 
z
" id="DejaVuSans-62"/>
      <path d="M 9.421875 54.6875 
L 18.40625 54.6875 
L 18.40625 0 
L 9.421875 0 
z
M 9.421875 75.984375 
L 18.40625 75.984375 
L 18.40625 64.59375 
L 9.421875 64.59375 
z
" id="DejaVuSans-69"/>
      <path d="M 9.421875 75.984375 
L 18.40625 75.984375 
L 18.40625 0 
L 9.421875 0 
z
" id="DejaVuSans-6c"/>
      <path d="M 32.171875 -5.078125 
Q 28.375 -14.84375 24.75 -17.8125 
Q 21.140625 -20.796875 15.09375 -20.796875 
L 7.90625 -20.796875 
L 7.90625 -13.28125 
L 13.1875 -13.28125 
Q 16.890625 -13.28125 18.9375 -11.515625 
Q 21 -9.765625 23.484375 -3.21875 
L 25.09375 0.875 
L 2.984375 54.6875 
L 12.5 54.6875 
L 29.59375 11.921875 
L 46.6875 54.6875 
L 56.203125 54.6875 
z
" id="DejaVuSans-79"/>
     </defs>
     <g style="fill:#1a1a1a;" transform="translate(61.017187 315.647969)rotate(-90)scale(0.1 -0.1)">
      <use xlink:href="#DejaVuSans-4d"/>
      <use x="86.279297" xlink:href="#DejaVuSans-75"/>
      <use x="149.658203" xlink:href="#DejaVuSans-74"/>
      <use x="188.867188" xlink:href="#DejaVuSans-61"/>
      <use x="250.146484" xlink:href="#DejaVuSans-62"/>
      <use x="313.623047" xlink:href="#DejaVuSans-69"/>
      <use x="341.40625" xlink:href="#DejaVuSans-6c"/>
      <use x="369.189453" xlink:href="#DejaVuSans-69"/>
      <use x="396.972656" xlink:href="#DejaVuSans-74"/>
      <use x="436.181641" xlink:href="#DejaVuSans-79"/>
     </g>
    </g>
   </g>
   <g id="line2d_13">
    <path clip-path="url(#p486172e968)" d="M 136.5 475.68 
L 136.5 475.68 
" style="fill:none;stroke:#3d3d3d;stroke-linecap:square;stroke-width:1.5;"/>
   </g>
   <g id="line2d_14">
    <path clip-path="url(#p486172e968)" d="M 136.5 463.946667 
L 136.5 452.213333 
" style="fill:none;stroke:#3d3d3d;stroke-linecap:square;stroke-width:1.5;"/>
   </g>
   <g id="line2d_15">
    <path clip-path="url(#p486172e968)" d="M 117.9 475.68 
L 155.1 475.68 
" style="fill:none;stroke:#3d3d3d;stroke-linecap:square;stroke-width:1.5;"/>
   </g>
   <g id="line2d_16">
    <path clip-path="url(#p486172e968)" d="M 117.9 452.213333 
L 155.1 452.213333 
" style="fill:none;stroke:#3d3d3d;stroke-linecap:square;stroke-width:1.5;"/>
   </g>
   <g id="line2d_17">
    <defs>
     <path d="M -0 3.535534 
L 2.12132 0 
L -0 -3.535534 
L -2.12132 -0 
z
" id="m503d21ecfb" style="stroke:#3d3d3d;stroke-linejoin:miter;"/>
    </defs>
    <g clip-path="url(#p486172e968)">
     <use style="fill:#3d3d3d;stroke:#3d3d3d;stroke-linejoin:miter;" x="136.5" xlink:href="#m503d21ecfb" y="358.346667"/>
     <use style="fill:#3d3d3d;stroke:#3d3d3d;stroke-linejoin:miter;" x="136.5" xlink:href="#m503d21ecfb" y="428.746667"/>
     <use style="fill:#3d3d3d;stroke:#3d3d3d;stroke-linejoin:miter;" x="136.5" xlink:href="#m503d21ecfb" y="440.48"/>
     <use style="fill:#3d3d3d;stroke:#3d3d3d;stroke-linejoin:miter;" x="136.5" xlink:href="#m503d21ecfb" y="440.48"/>
     <use style="fill:#3d3d3d;stroke:#3d3d3d;stroke-linejoin:miter;" x="136.5" xlink:href="#m503d21ecfb" y="440.48"/>
     <use style="fill:#3d3d3d;stroke:#3d3d3d;stroke-linejoin:miter;" x="136.5" xlink:href="#m503d21ecfb" y="405.28"/>
     <use style="fill:#3d3d3d;stroke:#3d3d3d;stroke-linejoin:miter;" x="136.5" xlink:href="#m503d21ecfb" y="440.48"/>
     <use style="fill:#3d3d3d;stroke:#3d3d3d;stroke-linejoin:miter;" x="136.5" xlink:href="#m503d21ecfb" y="417.013333"/>
     <use style="fill:#3d3d3d;stroke:#3d3d3d;stroke-linejoin:miter;" x="136.5" xlink:href="#m503d21ecfb" y="393.546667"/>
     <use style="fill:#3d3d3d;stroke:#3d3d3d;stroke-linejoin:miter;" x="136.5" xlink:href="#m503d21ecfb" y="440.48"/>
     <use style="fill:#3d3d3d;stroke:#3d3d3d;stroke-linejoin:miter;" x="136.5" xlink:href="#m503d21ecfb" y="405.28"/>
     <use style="fill:#3d3d3d;stroke:#3d3d3d;stroke-linejoin:miter;" x="136.5" xlink:href="#m503d21ecfb" y="428.746667"/>
     <use style="fill:#3d3d3d;stroke:#3d3d3d;stroke-linejoin:miter;" x="136.5" xlink:href="#m503d21ecfb" y="440.48"/>
     <use style="fill:#3d3d3d;stroke:#3d3d3d;stroke-linejoin:miter;" x="136.5" xlink:href="#m503d21ecfb" y="417.013333"/>
     <use style="fill:#3d3d3d;stroke:#3d3d3d;stroke-linejoin:miter;" x="136.5" xlink:href="#m503d21ecfb" y="428.746667"/>
     <use style="fill:#3d3d3d;stroke:#3d3d3d;stroke-linejoin:miter;" x="136.5" xlink:href="#m503d21ecfb" y="417.013333"/>
     <use style="fill:#3d3d3d;stroke:#3d3d3d;stroke-linejoin:miter;" x="136.5" xlink:href="#m503d21ecfb" y="428.746667"/>
     <use style="fill:#3d3d3d;stroke:#3d3d3d;stroke-linejoin:miter;" x="136.5" xlink:href="#m503d21ecfb" y="417.013333"/>
     <use style="fill:#3d3d3d;stroke:#3d3d3d;stroke-linejoin:miter;" x="136.5" xlink:href="#m503d21ecfb" y="370.08"/>
     <use style="fill:#3d3d3d;stroke:#3d3d3d;stroke-linejoin:miter;" x="136.5" xlink:href="#m503d21ecfb" y="440.48"/>
     <use style="fill:#3d3d3d;stroke:#3d3d3d;stroke-linejoin:miter;" x="136.5" xlink:href="#m503d21ecfb" y="417.013333"/>
     <use style="fill:#3d3d3d;stroke:#3d3d3d;stroke-linejoin:miter;" x="136.5" xlink:href="#m503d21ecfb" y="428.746667"/>
     <use style="fill:#3d3d3d;stroke:#3d3d3d;stroke-linejoin:miter;" x="136.5" xlink:href="#m503d21ecfb" y="405.28"/>
    </g>
   </g>
   <g id="line2d_18">
    <path clip-path="url(#p486172e968)" d="M 229.5 475.68 
L 229.5 475.68 
" style="fill:none;stroke:#3d3d3d;stroke-linecap:square;stroke-width:1.5;"/>
   </g>
   <g id="line2d_19">
    <path clip-path="url(#p486172e968)" d="M 229.5 475.68 
L 229.5 475.68 
" style="fill:none;stroke:#3d3d3d;stroke-linecap:square;stroke-width:1.5;"/>
   </g>
   <g id="line2d_20">
    <path clip-path="url(#p486172e968)" d="M 210.9 475.68 
L 248.1 475.68 
" style="fill:none;stroke:#3d3d3d;stroke-linecap:square;stroke-width:1.5;"/>
   </g>
   <g id="line2d_21">
    <path clip-path="url(#p486172e968)" d="M 210.9 475.68 
L 248.1 475.68 
" style="fill:none;stroke:#3d3d3d;stroke-linecap:square;stroke-width:1.5;"/>
   </g>
   <g id="line2d_22">
    <g clip-path="url(#p486172e968)">
     <use style="fill:#3d3d3d;stroke:#3d3d3d;stroke-linejoin:miter;" x="229.5" xlink:href="#m503d21ecfb" y="461.185882"/>
     <use style="fill:#3d3d3d;stroke:#3d3d3d;stroke-linejoin:miter;" x="229.5" xlink:href="#m503d21ecfb" y="446.691765"/>
     <use style="fill:#3d3d3d;stroke:#3d3d3d;stroke-linejoin:miter;" x="229.5" xlink:href="#m503d21ecfb" y="432.197647"/>
     <use style="fill:#3d3d3d;stroke:#3d3d3d;stroke-linejoin:miter;" x="229.5" xlink:href="#m503d21ecfb" y="432.197647"/>
     <use style="fill:#3d3d3d;stroke:#3d3d3d;stroke-linejoin:miter;" x="229.5" xlink:href="#m503d21ecfb" y="446.691765"/>
     <use style="fill:#3d3d3d;stroke:#3d3d3d;stroke-linejoin:miter;" x="229.5" xlink:href="#m503d21ecfb" y="446.691765"/>
     <use style="fill:#3d3d3d;stroke:#3d3d3d;stroke-linejoin:miter;" x="229.5" xlink:href="#m503d21ecfb" y="446.691765"/>
     <use style="fill:#3d3d3d;stroke:#3d3d3d;stroke-linejoin:miter;" x="229.5" xlink:href="#m503d21ecfb" y="417.703529"/>
     <use style="fill:#3d3d3d;stroke:#3d3d3d;stroke-linejoin:miter;" x="229.5" xlink:href="#m503d21ecfb" y="461.185882"/>
     <use style="fill:#3d3d3d;stroke:#3d3d3d;stroke-linejoin:miter;" x="229.5" xlink:href="#m503d21ecfb" y="432.197647"/>
     <use style="fill:#3d3d3d;stroke:#3d3d3d;stroke-linejoin:miter;" x="229.5" xlink:href="#m503d21ecfb" y="446.691765"/>
     <use style="fill:#3d3d3d;stroke:#3d3d3d;stroke-linejoin:miter;" x="229.5" xlink:href="#m503d21ecfb" y="461.185882"/>
     <use style="fill:#3d3d3d;stroke:#3d3d3d;stroke-linejoin:miter;" x="229.5" xlink:href="#m503d21ecfb" y="432.197647"/>
     <use style="fill:#3d3d3d;stroke:#3d3d3d;stroke-linejoin:miter;" x="229.5" xlink:href="#m503d21ecfb" y="446.691765"/>
     <use style="fill:#3d3d3d;stroke:#3d3d3d;stroke-linejoin:miter;" x="229.5" xlink:href="#m503d21ecfb" y="461.185882"/>
     <use style="fill:#3d3d3d;stroke:#3d3d3d;stroke-linejoin:miter;" x="229.5" xlink:href="#m503d21ecfb" y="446.691765"/>
     <use style="fill:#3d3d3d;stroke:#3d3d3d;stroke-linejoin:miter;" x="229.5" xlink:href="#m503d21ecfb" y="432.197647"/>
     <use style="fill:#3d3d3d;stroke:#3d3d3d;stroke-linejoin:miter;" x="229.5" xlink:href="#m503d21ecfb" y="446.691765"/>
     <use style="fill:#3d3d3d;stroke:#3d3d3d;stroke-linejoin:miter;" x="229.5" xlink:href="#m503d21ecfb" y="461.185882"/>
     <use style="fill:#3d3d3d;stroke:#3d3d3d;stroke-linejoin:miter;" x="229.5" xlink:href="#m503d21ecfb" y="446.691765"/>
     <use style="fill:#3d3d3d;stroke:#3d3d3d;stroke-linejoin:miter;" x="229.5" xlink:href="#m503d21ecfb" y="446.691765"/>
     <use style="fill:#3d3d3d;stroke:#3d3d3d;stroke-linejoin:miter;" x="229.5" xlink:href="#m503d21ecfb" y="432.197647"/>
     <use style="fill:#3d3d3d;stroke:#3d3d3d;stroke-linejoin:miter;" x="229.5" xlink:href="#m503d21ecfb" y="446.691765"/>
     <use style="fill:#3d3d3d;stroke:#3d3d3d;stroke-linejoin:miter;" x="229.5" xlink:href="#m503d21ecfb" y="446.691765"/>
     <use style="fill:#3d3d3d;stroke:#3d3d3d;stroke-linejoin:miter;" x="229.5" xlink:href="#m503d21ecfb" y="461.185882"/>
     <use style="fill:#3d3d3d;stroke:#3d3d3d;stroke-linejoin:miter;" x="229.5" xlink:href="#m503d21ecfb" y="432.197647"/>
     <use style="fill:#3d3d3d;stroke:#3d3d3d;stroke-linejoin:miter;" x="229.5" xlink:href="#m503d21ecfb" y="446.691765"/>
     <use style="fill:#3d3d3d;stroke:#3d3d3d;stroke-linejoin:miter;" x="229.5" xlink:href="#m503d21ecfb" y="403.209412"/>
     <use style="fill:#3d3d3d;stroke:#3d3d3d;stroke-linejoin:miter;" x="229.5" xlink:href="#m503d21ecfb" y="432.197647"/>
    </g>
   </g>
   <g id="line2d_23">
    <path clip-path="url(#p486172e968)" d="M 322.5 475.68 
L 322.5 475.68 
" style="fill:none;stroke:#3d3d3d;stroke-linecap:square;stroke-width:1.5;"/>
   </g>
   <g id="line2d_24">
    <path clip-path="url(#p486172e968)" d="M 322.5 475.68 
L 322.5 475.68 
" style="fill:none;stroke:#3d3d3d;stroke-linecap:square;stroke-width:1.5;"/>
   </g>
   <g id="line2d_25">
    <path clip-path="url(#p486172e968)" d="M 303.9 475.68 
L 341.1 475.68 
" style="fill:none;stroke:#3d3d3d;stroke-linecap:square;stroke-width:1.5;"/>
   </g>
   <g id="line2d_26">
    <path clip-path="url(#p486172e968)" d="M 303.9 475.68 
L 341.1 475.68 
" style="fill:none;stroke:#3d3d3d;stroke-linecap:square;stroke-width:1.5;"/>
   </g>
   <g id="line2d_27">
    <g clip-path="url(#p486172e968)">
     <use style="fill:#3d3d3d;stroke:#3d3d3d;stroke-linejoin:miter;" x="322.5" xlink:href="#m503d21ecfb" y="460.28"/>
     <use style="fill:#3d3d3d;stroke:#3d3d3d;stroke-linejoin:miter;" x="322.5" xlink:href="#m503d21ecfb" y="460.28"/>
     <use style="fill:#3d3d3d;stroke:#3d3d3d;stroke-linejoin:miter;" x="322.5" xlink:href="#m503d21ecfb" y="460.28"/>
     <use style="fill:#3d3d3d;stroke:#3d3d3d;stroke-linejoin:miter;" x="322.5" xlink:href="#m503d21ecfb" y="444.88"/>
     <use style="fill:#3d3d3d;stroke:#3d3d3d;stroke-linejoin:miter;" x="322.5" xlink:href="#m503d21ecfb" y="444.88"/>
     <use style="fill:#3d3d3d;stroke:#3d3d3d;stroke-linejoin:miter;" x="322.5" xlink:href="#m503d21ecfb" y="444.88"/>
     <use style="fill:#3d3d3d;stroke:#3d3d3d;stroke-linejoin:miter;" x="322.5" xlink:href="#m503d21ecfb" y="460.28"/>
     <use style="fill:#3d3d3d;stroke:#3d3d3d;stroke-linejoin:miter;" x="322.5" xlink:href="#m503d21ecfb" y="460.28"/>
     <use style="fill:#3d3d3d;stroke:#3d3d3d;stroke-linejoin:miter;" x="322.5" xlink:href="#m503d21ecfb" y="460.28"/>
     <use style="fill:#3d3d3d;stroke:#3d3d3d;stroke-linejoin:miter;" x="322.5" xlink:href="#m503d21ecfb" y="460.28"/>
     <use style="fill:#3d3d3d;stroke:#3d3d3d;stroke-linejoin:miter;" x="322.5" xlink:href="#m503d21ecfb" y="460.28"/>
     <use style="fill:#3d3d3d;stroke:#3d3d3d;stroke-linejoin:miter;" x="322.5" xlink:href="#m503d21ecfb" y="460.28"/>
     <use style="fill:#3d3d3d;stroke:#3d3d3d;stroke-linejoin:miter;" x="322.5" xlink:href="#m503d21ecfb" y="444.88"/>
     <use style="fill:#3d3d3d;stroke:#3d3d3d;stroke-linejoin:miter;" x="322.5" xlink:href="#m503d21ecfb" y="460.28"/>
     <use style="fill:#3d3d3d;stroke:#3d3d3d;stroke-linejoin:miter;" x="322.5" xlink:href="#m503d21ecfb" y="460.28"/>
     <use style="fill:#3d3d3d;stroke:#3d3d3d;stroke-linejoin:miter;" x="322.5" xlink:href="#m503d21ecfb" y="460.28"/>
     <use style="fill:#3d3d3d;stroke:#3d3d3d;stroke-linejoin:miter;" x="322.5" xlink:href="#m503d21ecfb" y="460.28"/>
     <use style="fill:#3d3d3d;stroke:#3d3d3d;stroke-linejoin:miter;" x="322.5" xlink:href="#m503d21ecfb" y="460.28"/>
     <use style="fill:#3d3d3d;stroke:#3d3d3d;stroke-linejoin:miter;" x="322.5" xlink:href="#m503d21ecfb" y="460.28"/>
     <use style="fill:#3d3d3d;stroke:#3d3d3d;stroke-linejoin:miter;" x="322.5" xlink:href="#m503d21ecfb" y="460.28"/>
     <use style="fill:#3d3d3d;stroke:#3d3d3d;stroke-linejoin:miter;" x="322.5" xlink:href="#m503d21ecfb" y="460.28"/>
     <use style="fill:#3d3d3d;stroke:#3d3d3d;stroke-linejoin:miter;" x="322.5" xlink:href="#m503d21ecfb" y="460.28"/>
     <use style="fill:#3d3d3d;stroke:#3d3d3d;stroke-linejoin:miter;" x="322.5" xlink:href="#m503d21ecfb" y="460.28"/>
     <use style="fill:#3d3d3d;stroke:#3d3d3d;stroke-linejoin:miter;" x="322.5" xlink:href="#m503d21ecfb" y="460.28"/>
     <use style="fill:#3d3d3d;stroke:#3d3d3d;stroke-linejoin:miter;" x="322.5" xlink:href="#m503d21ecfb" y="460.28"/>
     <use style="fill:#3d3d3d;stroke:#3d3d3d;stroke-linejoin:miter;" x="322.5" xlink:href="#m503d21ecfb" y="460.28"/>
     <use style="fill:#3d3d3d;stroke:#3d3d3d;stroke-linejoin:miter;" x="322.5" xlink:href="#m503d21ecfb" y="444.88"/>
     <use style="fill:#3d3d3d;stroke:#3d3d3d;stroke-linejoin:miter;" x="322.5" xlink:href="#m503d21ecfb" y="460.28"/>
     <use style="fill:#3d3d3d;stroke:#3d3d3d;stroke-linejoin:miter;" x="322.5" xlink:href="#m503d21ecfb" y="460.28"/>
     <use style="fill:#3d3d3d;stroke:#3d3d3d;stroke-linejoin:miter;" x="322.5" xlink:href="#m503d21ecfb" y="460.28"/>
     <use style="fill:#3d3d3d;stroke:#3d3d3d;stroke-linejoin:miter;" x="322.5" xlink:href="#m503d21ecfb" y="444.88"/>
     <use style="fill:#3d3d3d;stroke:#3d3d3d;stroke-linejoin:miter;" x="322.5" xlink:href="#m503d21ecfb" y="460.28"/>
     <use style="fill:#3d3d3d;stroke:#3d3d3d;stroke-linejoin:miter;" x="322.5" xlink:href="#m503d21ecfb" y="460.28"/>
     <use style="fill:#3d3d3d;stroke:#3d3d3d;stroke-linejoin:miter;" x="322.5" xlink:href="#m503d21ecfb" y="444.88"/>
     <use style="fill:#3d3d3d;stroke:#3d3d3d;stroke-linejoin:miter;" x="322.5" xlink:href="#m503d21ecfb" y="460.28"/>
     <use style="fill:#3d3d3d;stroke:#3d3d3d;stroke-linejoin:miter;" x="322.5" xlink:href="#m503d21ecfb" y="444.88"/>
     <use style="fill:#3d3d3d;stroke:#3d3d3d;stroke-linejoin:miter;" x="322.5" xlink:href="#m503d21ecfb" y="429.48"/>
     <use style="fill:#3d3d3d;stroke:#3d3d3d;stroke-linejoin:miter;" x="322.5" xlink:href="#m503d21ecfb" y="460.28"/>
     <use style="fill:#3d3d3d;stroke:#3d3d3d;stroke-linejoin:miter;" x="322.5" xlink:href="#m503d21ecfb" y="444.88"/>
     <use style="fill:#3d3d3d;stroke:#3d3d3d;stroke-linejoin:miter;" x="322.5" xlink:href="#m503d21ecfb" y="460.28"/>
     <use style="fill:#3d3d3d;stroke:#3d3d3d;stroke-linejoin:miter;" x="322.5" xlink:href="#m503d21ecfb" y="460.28"/>
     <use style="fill:#3d3d3d;stroke:#3d3d3d;stroke-linejoin:miter;" x="322.5" xlink:href="#m503d21ecfb" y="460.28"/>
     <use style="fill:#3d3d3d;stroke:#3d3d3d;stroke-linejoin:miter;" x="322.5" xlink:href="#m503d21ecfb" y="460.28"/>
     <use style="fill:#3d3d3d;stroke:#3d3d3d;stroke-linejoin:miter;" x="322.5" xlink:href="#m503d21ecfb" y="460.28"/>
     <use style="fill:#3d3d3d;stroke:#3d3d3d;stroke-linejoin:miter;" x="322.5" xlink:href="#m503d21ecfb" y="460.28"/>
     <use style="fill:#3d3d3d;stroke:#3d3d3d;stroke-linejoin:miter;" x="322.5" xlink:href="#m503d21ecfb" y="460.28"/>
     <use style="fill:#3d3d3d;stroke:#3d3d3d;stroke-linejoin:miter;" x="322.5" xlink:href="#m503d21ecfb" y="460.28"/>
     <use style="fill:#3d3d3d;stroke:#3d3d3d;stroke-linejoin:miter;" x="322.5" xlink:href="#m503d21ecfb" y="460.28"/>
     <use style="fill:#3d3d3d;stroke:#3d3d3d;stroke-linejoin:miter;" x="322.5" xlink:href="#m503d21ecfb" y="444.88"/>
     <use style="fill:#3d3d3d;stroke:#3d3d3d;stroke-linejoin:miter;" x="322.5" xlink:href="#m503d21ecfb" y="444.88"/>
     <use style="fill:#3d3d3d;stroke:#3d3d3d;stroke-linejoin:miter;" x="322.5" xlink:href="#m503d21ecfb" y="460.28"/>
     <use style="fill:#3d3d3d;stroke:#3d3d3d;stroke-linejoin:miter;" x="322.5" xlink:href="#m503d21ecfb" y="460.28"/>
     <use style="fill:#3d3d3d;stroke:#3d3d3d;stroke-linejoin:miter;" x="322.5" xlink:href="#m503d21ecfb" y="460.28"/>
     <use style="fill:#3d3d3d;stroke:#3d3d3d;stroke-linejoin:miter;" x="322.5" xlink:href="#m503d21ecfb" y="460.28"/>
     <use style="fill:#3d3d3d;stroke:#3d3d3d;stroke-linejoin:miter;" x="322.5" xlink:href="#m503d21ecfb" y="460.28"/>
     <use style="fill:#3d3d3d;stroke:#3d3d3d;stroke-linejoin:miter;" x="322.5" xlink:href="#m503d21ecfb" y="460.28"/>
     <use style="fill:#3d3d3d;stroke:#3d3d3d;stroke-linejoin:miter;" x="322.5" xlink:href="#m503d21ecfb" y="460.28"/>
     <use style="fill:#3d3d3d;stroke:#3d3d3d;stroke-linejoin:miter;" x="322.5" xlink:href="#m503d21ecfb" y="460.28"/>
     <use style="fill:#3d3d3d;stroke:#3d3d3d;stroke-linejoin:miter;" x="322.5" xlink:href="#m503d21ecfb" y="460.28"/>
     <use style="fill:#3d3d3d;stroke:#3d3d3d;stroke-linejoin:miter;" x="322.5" xlink:href="#m503d21ecfb" y="460.28"/>
     <use style="fill:#3d3d3d;stroke:#3d3d3d;stroke-linejoin:miter;" x="322.5" xlink:href="#m503d21ecfb" y="444.88"/>
     <use style="fill:#3d3d3d;stroke:#3d3d3d;stroke-linejoin:miter;" x="322.5" xlink:href="#m503d21ecfb" y="460.28"/>
     <use style="fill:#3d3d3d;stroke:#3d3d3d;stroke-linejoin:miter;" x="322.5" xlink:href="#m503d21ecfb" y="460.28"/>
     <use style="fill:#3d3d3d;stroke:#3d3d3d;stroke-linejoin:miter;" x="322.5" xlink:href="#m503d21ecfb" y="460.28"/>
     <use style="fill:#3d3d3d;stroke:#3d3d3d;stroke-linejoin:miter;" x="322.5" xlink:href="#m503d21ecfb" y="460.28"/>
     <use style="fill:#3d3d3d;stroke:#3d3d3d;stroke-linejoin:miter;" x="322.5" xlink:href="#m503d21ecfb" y="460.28"/>
     <use style="fill:#3d3d3d;stroke:#3d3d3d;stroke-linejoin:miter;" x="322.5" xlink:href="#m503d21ecfb" y="444.88"/>
     <use style="fill:#3d3d3d;stroke:#3d3d3d;stroke-linejoin:miter;" x="322.5" xlink:href="#m503d21ecfb" y="460.28"/>
     <use style="fill:#3d3d3d;stroke:#3d3d3d;stroke-linejoin:miter;" x="322.5" xlink:href="#m503d21ecfb" y="460.28"/>
     <use style="fill:#3d3d3d;stroke:#3d3d3d;stroke-linejoin:miter;" x="322.5" xlink:href="#m503d21ecfb" y="460.28"/>
     <use style="fill:#3d3d3d;stroke:#3d3d3d;stroke-linejoin:miter;" x="322.5" xlink:href="#m503d21ecfb" y="460.28"/>
     <use style="fill:#3d3d3d;stroke:#3d3d3d;stroke-linejoin:miter;" x="322.5" xlink:href="#m503d21ecfb" y="460.28"/>
     <use style="fill:#3d3d3d;stroke:#3d3d3d;stroke-linejoin:miter;" x="322.5" xlink:href="#m503d21ecfb" y="444.88"/>
     <use style="fill:#3d3d3d;stroke:#3d3d3d;stroke-linejoin:miter;" x="322.5" xlink:href="#m503d21ecfb" y="460.28"/>
     <use style="fill:#3d3d3d;stroke:#3d3d3d;stroke-linejoin:miter;" x="322.5" xlink:href="#m503d21ecfb" y="429.48"/>
     <use style="fill:#3d3d3d;stroke:#3d3d3d;stroke-linejoin:miter;" x="322.5" xlink:href="#m503d21ecfb" y="460.28"/>
     <use style="fill:#3d3d3d;stroke:#3d3d3d;stroke-linejoin:miter;" x="322.5" xlink:href="#m503d21ecfb" y="460.28"/>
     <use style="fill:#3d3d3d;stroke:#3d3d3d;stroke-linejoin:miter;" x="322.5" xlink:href="#m503d21ecfb" y="460.28"/>
     <use style="fill:#3d3d3d;stroke:#3d3d3d;stroke-linejoin:miter;" x="322.5" xlink:href="#m503d21ecfb" y="460.28"/>
     <use style="fill:#3d3d3d;stroke:#3d3d3d;stroke-linejoin:miter;" x="322.5" xlink:href="#m503d21ecfb" y="444.88"/>
     <use style="fill:#3d3d3d;stroke:#3d3d3d;stroke-linejoin:miter;" x="322.5" xlink:href="#m503d21ecfb" y="460.28"/>
     <use style="fill:#3d3d3d;stroke:#3d3d3d;stroke-linejoin:miter;" x="322.5" xlink:href="#m503d21ecfb" y="460.28"/>
     <use style="fill:#3d3d3d;stroke:#3d3d3d;stroke-linejoin:miter;" x="322.5" xlink:href="#m503d21ecfb" y="460.28"/>
     <use style="fill:#3d3d3d;stroke:#3d3d3d;stroke-linejoin:miter;" x="322.5" xlink:href="#m503d21ecfb" y="460.28"/>
     <use style="fill:#3d3d3d;stroke:#3d3d3d;stroke-linejoin:miter;" x="322.5" xlink:href="#m503d21ecfb" y="444.88"/>
     <use style="fill:#3d3d3d;stroke:#3d3d3d;stroke-linejoin:miter;" x="322.5" xlink:href="#m503d21ecfb" y="460.28"/>
     <use style="fill:#3d3d3d;stroke:#3d3d3d;stroke-linejoin:miter;" x="322.5" xlink:href="#m503d21ecfb" y="460.28"/>
     <use style="fill:#3d3d3d;stroke:#3d3d3d;stroke-linejoin:miter;" x="322.5" xlink:href="#m503d21ecfb" y="444.88"/>
    </g>
   </g>
   <g id="line2d_28">
    <path clip-path="url(#p486172e968)" d="M 415.5 475.68 
L 415.5 475.68 
" style="fill:none;stroke:#3d3d3d;stroke-linecap:square;stroke-width:1.5;"/>
   </g>
   <g id="line2d_29">
    <path clip-path="url(#p486172e968)" d="M 415.5 475.68 
L 415.5 475.68 
" style="fill:none;stroke:#3d3d3d;stroke-linecap:square;stroke-width:1.5;"/>
   </g>
   <g id="line2d_30">
    <path clip-path="url(#p486172e968)" d="M 396.9 475.68 
L 434.1 475.68 
" style="fill:none;stroke:#3d3d3d;stroke-linecap:square;stroke-width:1.5;"/>
   </g>
   <g id="line2d_31">
    <path clip-path="url(#p486172e968)" d="M 396.9 475.68 
L 434.1 475.68 
" style="fill:none;stroke:#3d3d3d;stroke-linecap:square;stroke-width:1.5;"/>
   </g>
   <g id="line2d_32">
    <g clip-path="url(#p486172e968)">
     <use style="fill:#3d3d3d;stroke:#3d3d3d;stroke-linejoin:miter;" x="415.5" xlink:href="#m503d21ecfb" y="446.112"/>
     <use style="fill:#3d3d3d;stroke:#3d3d3d;stroke-linejoin:miter;" x="415.5" xlink:href="#m503d21ecfb" y="460.896"/>
     <use style="fill:#3d3d3d;stroke:#3d3d3d;stroke-linejoin:miter;" x="415.5" xlink:href="#m503d21ecfb" y="446.112"/>
     <use style="fill:#3d3d3d;stroke:#3d3d3d;stroke-linejoin:miter;" x="415.5" xlink:href="#m503d21ecfb" y="446.112"/>
     <use style="fill:#3d3d3d;stroke:#3d3d3d;stroke-linejoin:miter;" x="415.5" xlink:href="#m503d21ecfb" y="460.896"/>
     <use style="fill:#3d3d3d;stroke:#3d3d3d;stroke-linejoin:miter;" x="415.5" xlink:href="#m503d21ecfb" y="460.896"/>
     <use style="fill:#3d3d3d;stroke:#3d3d3d;stroke-linejoin:miter;" x="415.5" xlink:href="#m503d21ecfb" y="446.112"/>
     <use style="fill:#3d3d3d;stroke:#3d3d3d;stroke-linejoin:miter;" x="415.5" xlink:href="#m503d21ecfb" y="460.896"/>
     <use style="fill:#3d3d3d;stroke:#3d3d3d;stroke-linejoin:miter;" x="415.5" xlink:href="#m503d21ecfb" y="460.896"/>
     <use style="fill:#3d3d3d;stroke:#3d3d3d;stroke-linejoin:miter;" x="415.5" xlink:href="#m503d21ecfb" y="446.112"/>
     <use style="fill:#3d3d3d;stroke:#3d3d3d;stroke-linejoin:miter;" x="415.5" xlink:href="#m503d21ecfb" y="416.544"/>
     <use style="fill:#3d3d3d;stroke:#3d3d3d;stroke-linejoin:miter;" x="415.5" xlink:href="#m503d21ecfb" y="460.896"/>
     <use style="fill:#3d3d3d;stroke:#3d3d3d;stroke-linejoin:miter;" x="415.5" xlink:href="#m503d21ecfb" y="446.112"/>
     <use style="fill:#3d3d3d;stroke:#3d3d3d;stroke-linejoin:miter;" x="415.5" xlink:href="#m503d21ecfb" y="446.112"/>
     <use style="fill:#3d3d3d;stroke:#3d3d3d;stroke-linejoin:miter;" x="415.5" xlink:href="#m503d21ecfb" y="460.896"/>
     <use style="fill:#3d3d3d;stroke:#3d3d3d;stroke-linejoin:miter;" x="415.5" xlink:href="#m503d21ecfb" y="460.896"/>
    </g>
   </g>
   <g id="line2d_33">
    <path clip-path="url(#p486172e968)" d="M 508.5 475.68 
L 508.5 475.68 
" style="fill:none;stroke:#3d3d3d;stroke-linecap:square;stroke-width:1.5;"/>
   </g>
   <g id="line2d_34">
    <path clip-path="url(#p486172e968)" d="M 508.5 475.68 
L 508.5 475.68 
" style="fill:none;stroke:#3d3d3d;stroke-linecap:square;stroke-width:1.5;"/>
   </g>
   <g id="line2d_35">
    <path clip-path="url(#p486172e968)" d="M 489.9 475.68 
L 527.1 475.68 
" style="fill:none;stroke:#3d3d3d;stroke-linecap:square;stroke-width:1.5;"/>
   </g>
   <g id="line2d_36">
    <path clip-path="url(#p486172e968)" d="M 489.9 475.68 
L 527.1 475.68 
" style="fill:none;stroke:#3d3d3d;stroke-linecap:square;stroke-width:1.5;"/>
   </g>
   <g id="line2d_37">
    <g clip-path="url(#p486172e968)">
     <use style="fill:#3d3d3d;stroke:#3d3d3d;stroke-linejoin:miter;" x="508.5" xlink:href="#m503d21ecfb" y="461.73283"/>
     <use style="fill:#3d3d3d;stroke:#3d3d3d;stroke-linejoin:miter;" x="508.5" xlink:href="#m503d21ecfb" y="461.73283"/>
     <use style="fill:#3d3d3d;stroke:#3d3d3d;stroke-linejoin:miter;" x="508.5" xlink:href="#m503d21ecfb" y="447.78566"/>
    </g>
   </g>
   <g id="line2d_38">
    <path clip-path="url(#p486172e968)" d="M 601.5 475.68 
L 601.5 475.68 
" style="fill:none;stroke:#3d3d3d;stroke-linecap:square;stroke-width:1.5;"/>
   </g>
   <g id="line2d_39">
    <path clip-path="url(#p486172e968)" d="M 601.5 436.587692 
L 601.5 404.603077 
" style="fill:none;stroke:#3d3d3d;stroke-linecap:square;stroke-width:1.5;"/>
   </g>
   <g id="line2d_40">
    <path clip-path="url(#p486172e968)" d="M 582.9 475.68 
L 620.1 475.68 
" style="fill:none;stroke:#3d3d3d;stroke-linecap:square;stroke-width:1.5;"/>
   </g>
   <g id="line2d_41">
    <path clip-path="url(#p486172e968)" d="M 582.9 404.603077 
L 620.1 404.603077 
" style="fill:none;stroke:#3d3d3d;stroke-linecap:square;stroke-width:1.5;"/>
   </g>
   <g id="line2d_42"/>
   <g id="line2d_43">
    <path clip-path="url(#p486172e968)" d="M 99.3 475.68 
L 173.7 475.68 
" style="fill:none;stroke:#3d3d3d;stroke-linecap:square;stroke-width:1.5;"/>
   </g>
   <g id="line2d_44">
    <path clip-path="url(#p486172e968)" d="M 192.3 475.68 
L 266.7 475.68 
" style="fill:none;stroke:#3d3d3d;stroke-linecap:square;stroke-width:1.5;"/>
   </g>
   <g id="line2d_45">
    <path clip-path="url(#p486172e968)" d="M 285.3 475.68 
L 359.7 475.68 
" style="fill:none;stroke:#3d3d3d;stroke-linecap:square;stroke-width:1.5;"/>
   </g>
   <g id="line2d_46">
    <path clip-path="url(#p486172e968)" d="M 378.3 475.68 
L 452.7 475.68 
" style="fill:none;stroke:#3d3d3d;stroke-linecap:square;stroke-width:1.5;"/>
   </g>
   <g id="line2d_47">
    <path clip-path="url(#p486172e968)" d="M 471.3 475.68 
L 545.7 475.68 
" style="fill:none;stroke:#3d3d3d;stroke-linecap:square;stroke-width:1.5;"/>
   </g>
   <g id="line2d_48">
    <path clip-path="url(#p486172e968)" d="M 564.3 475.68 
L 638.7 475.68 
" style="fill:none;stroke:#3d3d3d;stroke-linecap:square;stroke-width:1.5;"/>
   </g>
   <g id="patch_9">
    <path d="M 90 512.64 
L 90 69.12 
" style="fill:none;stroke:#1a1a1a;stroke-linecap:square;stroke-linejoin:miter;stroke-width:0.8;"/>
   </g>
   <g id="patch_10">
    <path d="M 648 512.64 
L 648 69.12 
" style="fill:none;stroke:#1a1a1a;stroke-linecap:square;stroke-linejoin:miter;stroke-width:0.8;"/>
   </g>
   <g id="patch_11">
    <path d="M 90 512.64 
L 648 512.64 
" style="fill:none;stroke:#1a1a1a;stroke-linecap:square;stroke-linejoin:miter;stroke-width:0.8;"/>
   </g>
   <g id="patch_12">
    <path d="M 90 69.12 
L 648 69.12 
" style="fill:none;stroke:#1a1a1a;stroke-linecap:square;stroke-linejoin:miter;stroke-width:0.8;"/>
   </g>
  </g>
 </g>
 <defs>
  <clipPath id="p486172e968">
   <rect height="443.52" width="558" x="90" y="69.12"/>
  </clipPath>
 </defs>
</svg>
