<?xml version="1.0" encoding="utf-8" standalone="no"?>
<!DOCTYPE svg PUBLIC "-//W3C//DTD SVG 1.1//EN"
  "http://www.w3.org/Graphics/SVG/1.1/DTD/svg11.dtd">
<!-- Created with matplotlib (http://matplotlib.org/) -->
<svg height="345.6pt" version="1.1" viewBox="0 0 460.8 345.6" width="460.8pt" xmlns="http://www.w3.org/2000/svg" xmlns:xlink="http://www.w3.org/1999/xlink">
 <defs>
  <style type="text/css">
*{stroke-linecap:butt;stroke-linejoin:round;}
  </style>
 </defs>
 <g id="figure_1">
  <g id="patch_1">
   <path d="M 0 345.6 
L 460.8 345.6 
L 460.8 0 
L 0 0 
z
" style="fill:#ffffff;"/>
  </g>
  <g id="axes_1">
   <g id="patch_2">
    <path d="M 57.6 307.584 
L 414.72 307.584 
L 414.72 41.472 
L 57.6 41.472 
z
" style="fill:#ffffff;"/>
   </g>
   <g id="patch_3">
    <path clip-path="url(#p42de4eb21e)" d="M 86.798131 307.584 
L 89.312256 307.584 
L 89.312256 54.144 
L 86.798131 54.144 
z
" style="fill:#1f77b4;"/>
   </g>
   <g id="patch_4">
    <path clip-path="url(#p42de4eb21e)" d="M 93.083443 307.584 
L 95.597568 307.584 
L 95.597568 307.584 
L 93.083443 307.584 
z
" style="fill:#1f77b4;"/>
   </g>
   <g id="patch_5">
    <path clip-path="url(#p42de4eb21e)" d="M 99.368755 307.584 
L 101.88288 307.584 
L 101.88288 307.584 
L 99.368755 307.584 
z
" style="fill:#1f77b4;"/>
   </g>
   <g id="patch_6">
    <path clip-path="url(#p42de4eb21e)" d="M 105.654067 307.584 
L 108.168192 307.584 
L 108.168192 307.584 
L 105.654067 307.584 
z
" style="fill:#1f77b4;"/>
   </g>
   <g id="patch_7">
    <path clip-path="url(#p42de4eb21e)" d="M 111.939379 307.584 
L 114.453504 307.584 
L 114.453504 287.509545 
L 111.939379 287.509545 
z
" style="fill:#1f77b4;"/>
   </g>
   <g id="patch_8">
    <path clip-path="url(#p42de4eb21e)" d="M 118.224691 307.584 
L 120.738816 307.584 
L 120.738816 307.584 
L 118.224691 307.584 
z
" style="fill:#1f77b4;"/>
   </g>
   <g id="patch_9">
    <path clip-path="url(#p42de4eb21e)" d="M 124.510003 307.584 
L 127.024128 307.584 
L 127.024128 307.584 
L 124.510003 307.584 
z
" style="fill:#1f77b4;"/>
   </g>
   <g id="patch_10">
    <path clip-path="url(#p42de4eb21e)" d="M 130.795315 307.584 
L 133.30944 307.584 
L 133.30944 307.584 
L 130.795315 307.584 
z
" style="fill:#1f77b4;"/>
   </g>
   <g id="patch_11">
    <path clip-path="url(#p42de4eb21e)" d="M 137.080627 307.584 
L 139.594752 307.584 
L 139.594752 307.584 
L 137.080627 307.584 
z
" style="fill:#1f77b4;"/>
   </g>
   <g id="patch_12">
    <path clip-path="url(#p42de4eb21e)" d="M 143.365939 307.584 
L 145.880064 307.584 
L 145.880064 157.025584 
L 143.365939 157.025584 
z
" style="fill:#1f77b4;"/>
   </g>
   <g id="patch_13">
    <path clip-path="url(#p42de4eb21e)" d="M 149.651251 307.584 
L 152.165376 307.584 
L 152.165376 307.584 
L 149.651251 307.584 
z
" style="fill:#1f77b4;"/>
   </g>
   <g id="patch_14">
    <path clip-path="url(#p42de4eb21e)" d="M 155.936563 307.584 
L 158.450688 307.584 
L 158.450688 307.584 
L 155.936563 307.584 
z
" style="fill:#1f77b4;"/>
   </g>
   <g id="patch_15">
    <path clip-path="url(#p42de4eb21e)" d="M 162.221875 307.584 
L 164.736 307.584 
L 164.736 307.584 
L 162.221875 307.584 
z
" style="fill:#1f77b4;"/>
   </g>
   <g id="patch_16">
    <path clip-path="url(#p42de4eb21e)" d="M 168.507187 307.584 
L 171.021312 307.584 
L 171.021312 307.584 
L 168.507187 307.584 
z
" style="fill:#1f77b4;"/>
   </g>
   <g id="patch_17">
    <path clip-path="url(#p42de4eb21e)" d="M 174.792499 307.584 
L 177.306624 307.584 
L 177.306624 307.584 
L 174.792499 307.584 
z
" style="fill:#1f77b4;"/>
   </g>
   <g id="patch_18">
    <path clip-path="url(#p42de4eb21e)" d="M 181.077811 307.584 
L 183.591936 307.584 
L 183.591936 307.584 
L 181.077811 307.584 
z
" style="fill:#1f77b4;"/>
   </g>
   <g id="patch_19">
    <path clip-path="url(#p42de4eb21e)" d="M 187.363123 307.584 
L 189.877248 307.584 
L 189.877248 307.584 
L 187.363123 307.584 
z
" style="fill:#1f77b4;"/>
   </g>
   <g id="patch_20">
    <path clip-path="url(#p42de4eb21e)" d="M 193.648435 307.584 
L 196.16256 307.584 
L 196.16256 307.584 
L 193.648435 307.584 
z
" style="fill:#1f77b4;"/>
   </g>
   <g id="patch_21">
    <path clip-path="url(#p42de4eb21e)" d="M 199.933747 307.584 
L 202.447872 307.584 
L 202.447872 305.074693 
L 199.933747 305.074693 
z
" style="fill:#1f77b4;"/>
   </g>
   <g id="patch_22">
    <path clip-path="url(#p42de4eb21e)" d="M 206.219059 307.584 
L 208.733184 307.584 
L 208.733184 307.584 
L 206.219059 307.584 
z
" style="fill:#1f77b4;"/>
   </g>
   <g id="patch_23">
    <path clip-path="url(#p42de4eb21e)" d="M 212.504371 307.584 
L 215.018496 307.584 
L 215.018496 307.584 
L 212.504371 307.584 
z
" style="fill:#1f77b4;"/>
   </g>
   <g id="patch_24">
    <path clip-path="url(#p42de4eb21e)" d="M 218.789683 307.584 
L 221.303808 307.584 
L 221.303808 307.584 
L 218.789683 307.584 
z
" style="fill:#1f77b4;"/>
   </g>
   <g id="patch_25">
    <path clip-path="url(#p42de4eb21e)" d="M 225.074995 307.584 
L 227.58912 307.584 
L 227.58912 234.814099 
L 225.074995 234.814099 
z
" style="fill:#1f77b4;"/>
   </g>
   <g id="patch_26">
    <path clip-path="url(#p42de4eb21e)" d="M 231.360307 307.584 
L 233.874432 307.584 
L 233.874432 307.584 
L 231.360307 307.584 
z
" style="fill:#1f77b4;"/>
   </g>
   <g id="patch_27">
    <path clip-path="url(#p42de4eb21e)" d="M 237.645619 307.584 
L 240.159744 307.584 
L 240.159744 307.584 
L 237.645619 307.584 
z
" style="fill:#1f77b4;"/>
   </g>
   <g id="patch_28">
    <path clip-path="url(#p42de4eb21e)" d="M 243.930931 307.584 
L 246.445056 307.584 
L 246.445056 307.584 
L 243.930931 307.584 
z
" style="fill:#1f77b4;"/>
   </g>
   <g id="patch_29">
    <path clip-path="url(#p42de4eb21e)" d="M 250.216243 307.584 
L 252.730368 307.584 
L 252.730368 307.584 
L 250.216243 307.584 
z
" style="fill:#1f77b4;"/>
   </g>
   <g id="patch_30">
    <path clip-path="url(#p42de4eb21e)" d="M 256.501555 307.584 
L 259.01568 307.584 
L 259.01568 252.379248 
L 256.501555 252.379248 
z
" style="fill:#1f77b4;"/>
   </g>
   <g id="patch_31">
    <path clip-path="url(#p42de4eb21e)" d="M 262.786867 307.584 
L 265.300992 307.584 
L 265.300992 307.584 
L 262.786867 307.584 
z
" style="fill:#1f77b4;"/>
   </g>
   <g id="patch_32">
    <path clip-path="url(#p42de4eb21e)" d="M 269.072179 307.584 
L 271.586304 307.584 
L 271.586304 307.584 
L 269.072179 307.584 
z
" style="fill:#1f77b4;"/>
   </g>
   <g id="patch_33">
    <path clip-path="url(#p42de4eb21e)" d="M 275.357491 307.584 
L 277.871616 307.584 
L 277.871616 307.584 
L 275.357491 307.584 
z
" style="fill:#1f77b4;"/>
   </g>
   <g id="patch_34">
    <path clip-path="url(#p42de4eb21e)" d="M 281.642803 307.584 
L 284.156928 307.584 
L 284.156928 307.584 
L 281.642803 307.584 
z
" style="fill:#1f77b4;"/>
   </g>
   <g id="patch_35">
    <path clip-path="url(#p42de4eb21e)" d="M 287.928115 307.584 
L 290.44224 307.584 
L 290.44224 307.584 
L 287.928115 307.584 
z
" style="fill:#1f77b4;"/>
   </g>
   <g id="patch_36">
    <path clip-path="url(#p42de4eb21e)" d="M 294.213427 307.584 
L 296.727552 307.584 
L 296.727552 307.584 
L 294.213427 307.584 
z
" style="fill:#1f77b4;"/>
   </g>
   <g id="patch_37">
    <path clip-path="url(#p42de4eb21e)" d="M 300.498739 307.584 
L 303.012864 307.584 
L 303.012864 307.584 
L 300.498739 307.584 
z
" style="fill:#1f77b4;"/>
   </g>
   <g id="patch_38">
    <path clip-path="url(#p42de4eb21e)" d="M 306.784051 307.584 
L 309.298176 307.584 
L 309.298176 307.584 
L 306.784051 307.584 
z
" style="fill:#1f77b4;"/>
   </g>
   <g id="patch_39">
    <path clip-path="url(#p42de4eb21e)" d="M 313.069363 307.584 
L 315.583488 307.584 
L 315.583488 292.528158 
L 313.069363 292.528158 
z
" style="fill:#1f77b4;"/>
   </g>
   <g id="patch_40">
    <path clip-path="url(#p42de4eb21e)" d="M 319.354675 307.584 
L 321.8688 307.584 
L 321.8688 307.584 
L 319.354675 307.584 
z
" style="fill:#1f77b4;"/>
   </g>
   <g id="patch_41">
    <path clip-path="url(#p42de4eb21e)" d="M 325.639987 307.584 
L 328.154112 307.584 
L 328.154112 307.584 
L 325.639987 307.584 
z
" style="fill:#1f77b4;"/>
   </g>
   <g id="patch_42">
    <path clip-path="url(#p42de4eb21e)" d="M 331.925299 307.584 
L 334.439424 307.584 
L 334.439424 307.584 
L 331.925299 307.584 
z
" style="fill:#1f77b4;"/>
   </g>
   <g id="patch_43">
    <path clip-path="url(#p42de4eb21e)" d="M 338.210611 307.584 
L 340.724736 307.584 
L 340.724736 307.584 
L 338.210611 307.584 
z
" style="fill:#1f77b4;"/>
   </g>
   <g id="patch_44">
    <path clip-path="url(#p42de4eb21e)" d="M 344.495923 307.584 
L 347.010048 307.584 
L 347.010048 307.584 
L 344.495923 307.584 
z
" style="fill:#1f77b4;"/>
   </g>
   <g id="patch_45">
    <path clip-path="url(#p42de4eb21e)" d="M 350.781235 307.584 
L 353.29536 307.584 
L 353.29536 307.584 
L 350.781235 307.584 
z
" style="fill:#1f77b4;"/>
   </g>
   <g id="patch_46">
    <path clip-path="url(#p42de4eb21e)" d="M 357.066547 307.584 
L 359.580672 307.584 
L 359.580672 307.584 
L 357.066547 307.584 
z
" style="fill:#1f77b4;"/>
   </g>
   <g id="patch_47">
    <path clip-path="url(#p42de4eb21e)" d="M 363.351859 307.584 
L 365.865984 307.584 
L 365.865984 307.584 
L 363.351859 307.584 
z
" style="fill:#1f77b4;"/>
   </g>
   <g id="patch_48">
    <path clip-path="url(#p42de4eb21e)" d="M 369.637171 307.584 
L 372.151296 307.584 
L 372.151296 307.584 
L 369.637171 307.584 
z
" style="fill:#1f77b4;"/>
   </g>
   <g id="patch_49">
    <path clip-path="url(#p42de4eb21e)" d="M 375.922483 307.584 
L 378.436608 307.584 
L 378.436608 307.584 
L 375.922483 307.584 
z
" style="fill:#1f77b4;"/>
   </g>
   <g id="patch_50">
    <path clip-path="url(#p42de4eb21e)" d="M 382.207795 307.584 
L 384.72192 307.584 
L 384.72192 307.584 
L 382.207795 307.584 
z
" style="fill:#1f77b4;"/>
   </g>
   <g id="patch_51">
    <path clip-path="url(#p42de4eb21e)" d="M 388.493107 307.584 
L 391.007232 307.584 
L 391.007232 307.584 
L 388.493107 307.584 
z
" style="fill:#1f77b4;"/>
   </g>
   <g id="patch_52">
    <path clip-path="url(#p42de4eb21e)" d="M 394.778419 307.584 
L 397.292544 307.584 
L 397.292544 307.584 
L 394.778419 307.584 
z
" style="fill:#1f77b4;"/>
   </g>
   <g id="patch_53">
    <path clip-path="url(#p42de4eb21e)" d="M 89.312256 307.584 
L 91.826381 307.584 
L 91.826381 282.490931 
L 89.312256 282.490931 
z
" style="fill:#ff7f0e;"/>
   </g>
   <g id="patch_54">
    <path clip-path="url(#p42de4eb21e)" d="M 95.597568 307.584 
L 98.111693 307.584 
L 98.111693 307.584 
L 95.597568 307.584 
z
" style="fill:#ff7f0e;"/>
   </g>
   <g id="patch_55">
    <path clip-path="url(#p42de4eb21e)" d="M 101.88288 307.584 
L 104.397005 307.584 
L 104.397005 307.584 
L 101.88288 307.584 
z
" style="fill:#ff7f0e;"/>
   </g>
   <g id="patch_56">
    <path clip-path="url(#p42de4eb21e)" d="M 108.168192 307.584 
L 110.682317 307.584 
L 110.682317 307.584 
L 108.168192 307.584 
z
" style="fill:#ff7f0e;"/>
   </g>
   <g id="patch_57">
    <path clip-path="url(#p42de4eb21e)" d="M 114.453504 307.584 
L 116.967629 307.584 
L 116.967629 305.074693 
L 114.453504 305.074693 
z
" style="fill:#ff7f0e;"/>
   </g>
   <g id="patch_58">
    <path clip-path="url(#p42de4eb21e)" d="M 120.738816 307.584 
L 123.252941 307.584 
L 123.252941 307.584 
L 120.738816 307.584 
z
" style="fill:#ff7f0e;"/>
   </g>
   <g id="patch_59">
    <path clip-path="url(#p42de4eb21e)" d="M 127.024128 307.584 
L 129.538253 307.584 
L 129.538253 307.584 
L 127.024128 307.584 
z
" style="fill:#ff7f0e;"/>
   </g>
   <g id="patch_60">
    <path clip-path="url(#p42de4eb21e)" d="M 133.30944 307.584 
L 135.823565 307.584 
L 135.823565 307.584 
L 133.30944 307.584 
z
" style="fill:#ff7f0e;"/>
   </g>
   <g id="patch_61">
    <path clip-path="url(#p42de4eb21e)" d="M 139.594752 307.584 
L 142.108877 307.584 
L 142.108877 307.584 
L 139.594752 307.584 
z
" style="fill:#ff7f0e;"/>
   </g>
   <g id="patch_62">
    <path clip-path="url(#p42de4eb21e)" d="M 145.880064 307.584 
L 148.394189 307.584 
L 148.394189 224.776871 
L 145.880064 224.776871 
z
" style="fill:#ff7f0e;"/>
   </g>
   <g id="patch_63">
    <path clip-path="url(#p42de4eb21e)" d="M 152.165376 307.584 
L 154.679501 307.584 
L 154.679501 307.584 
L 152.165376 307.584 
z
" style="fill:#ff7f0e;"/>
   </g>
   <g id="patch_64">
    <path clip-path="url(#p42de4eb21e)" d="M 158.450688 307.584 
L 160.964813 307.584 
L 160.964813 307.584 
L 158.450688 307.584 
z
" style="fill:#ff7f0e;"/>
   </g>
   <g id="patch_65">
    <path clip-path="url(#p42de4eb21e)" d="M 164.736 307.584 
L 167.250125 307.584 
L 167.250125 307.584 
L 164.736 307.584 
z
" style="fill:#ff7f0e;"/>
   </g>
   <g id="patch_66">
    <path clip-path="url(#p42de4eb21e)" d="M 171.021312 307.584 
L 173.535437 307.584 
L 173.535437 307.584 
L 171.021312 307.584 
z
" style="fill:#ff7f0e;"/>
   </g>
   <g id="patch_67">
    <path clip-path="url(#p42de4eb21e)" d="M 177.306624 307.584 
L 179.820749 307.584 
L 179.820749 307.584 
L 177.306624 307.584 
z
" style="fill:#ff7f0e;"/>
   </g>
   <g id="patch_68">
    <path clip-path="url(#p42de4eb21e)" d="M 183.591936 307.584 
L 186.106061 307.584 
L 186.106061 307.584 
L 183.591936 307.584 
z
" style="fill:#ff7f0e;"/>
   </g>
   <g id="patch_69">
    <path clip-path="url(#p42de4eb21e)" d="M 189.877248 307.584 
L 192.391373 307.584 
L 192.391373 307.584 
L 189.877248 307.584 
z
" style="fill:#ff7f0e;"/>
   </g>
   <g id="patch_70">
    <path clip-path="url(#p42de4eb21e)" d="M 196.16256 307.584 
L 198.676685 307.584 
L 198.676685 307.584 
L 196.16256 307.584 
z
" style="fill:#ff7f0e;"/>
   </g>
   <g id="patch_71">
    <path clip-path="url(#p42de4eb21e)" d="M 202.447872 307.584 
L 204.961997 307.584 
L 204.961997 300.056079 
L 202.447872 300.056079 
z
" style="fill:#ff7f0e;"/>
   </g>
   <g id="patch_72">
    <path clip-path="url(#p42de4eb21e)" d="M 208.733184 307.584 
L 211.247309 307.584 
L 211.247309 307.584 
L 208.733184 307.584 
z
" style="fill:#ff7f0e;"/>
   </g>
   <g id="patch_73">
    <path clip-path="url(#p42de4eb21e)" d="M 215.018496 307.584 
L 217.532621 307.584 
L 217.532621 307.584 
L 215.018496 307.584 
z
" style="fill:#ff7f0e;"/>
   </g>
   <g id="patch_74">
    <path clip-path="url(#p42de4eb21e)" d="M 221.303808 307.584 
L 223.817933 307.584 
L 223.817933 307.584 
L 221.303808 307.584 
z
" style="fill:#ff7f0e;"/>
   </g>
   <g id="patch_75">
    <path clip-path="url(#p42de4eb21e)" d="M 227.58912 307.584 
L 230.103245 307.584 
L 230.103245 277.472317 
L 227.58912 277.472317 
z
" style="fill:#ff7f0e;"/>
   </g>
   <g id="patch_76">
    <path clip-path="url(#p42de4eb21e)" d="M 233.874432 307.584 
L 236.388557 307.584 
L 236.388557 307.584 
L 233.874432 307.584 
z
" style="fill:#ff7f0e;"/>
   </g>
   <g id="patch_77">
    <path clip-path="url(#p42de4eb21e)" d="M 240.159744 307.584 
L 242.673869 307.584 
L 242.673869 307.584 
L 240.159744 307.584 
z
" style="fill:#ff7f0e;"/>
   </g>
   <g id="patch_78">
    <path clip-path="url(#p42de4eb21e)" d="M 246.445056 307.584 
L 248.959181 307.584 
L 248.959181 307.584 
L 246.445056 307.584 
z
" style="fill:#ff7f0e;"/>
   </g>
   <g id="patch_79">
    <path clip-path="url(#p42de4eb21e)" d="M 252.730368 307.584 
L 255.244493 307.584 
L 255.244493 307.584 
L 252.730368 307.584 
z
" style="fill:#ff7f0e;"/>
   </g>
   <g id="patch_80">
    <path clip-path="url(#p42de4eb21e)" d="M 259.01568 307.584 
L 261.529805 307.584 
L 261.529805 307.584 
L 259.01568 307.584 
z
" style="fill:#ff7f0e;"/>
   </g>
   <g id="patch_81">
    <path clip-path="url(#p42de4eb21e)" d="M 265.300992 307.584 
L 267.815117 307.584 
L 267.815117 307.584 
L 265.300992 307.584 
z
" style="fill:#ff7f0e;"/>
   </g>
   <g id="patch_82">
    <path clip-path="url(#p42de4eb21e)" d="M 271.586304 307.584 
L 274.100429 307.584 
L 274.100429 307.584 
L 271.586304 307.584 
z
" style="fill:#ff7f0e;"/>
   </g>
   <g id="patch_83">
    <path clip-path="url(#p42de4eb21e)" d="M 277.871616 307.584 
L 280.385741 307.584 
L 280.385741 307.584 
L 277.871616 307.584 
z
" style="fill:#ff7f0e;"/>
   </g>
   <g id="patch_84">
    <path clip-path="url(#p42de4eb21e)" d="M 284.156928 307.584 
L 286.671053 307.584 
L 286.671053 307.584 
L 284.156928 307.584 
z
" style="fill:#ff7f0e;"/>
   </g>
   <g id="patch_85">
    <path clip-path="url(#p42de4eb21e)" d="M 290.44224 307.584 
L 292.956365 307.584 
L 292.956365 307.584 
L 290.44224 307.584 
z
" style="fill:#ff7f0e;"/>
   </g>
   <g id="patch_86">
    <path clip-path="url(#p42de4eb21e)" d="M 296.727552 307.584 
L 299.241677 307.584 
L 299.241677 307.584 
L 296.727552 307.584 
z
" style="fill:#ff7f0e;"/>
   </g>
   <g id="patch_87">
    <path clip-path="url(#p42de4eb21e)" d="M 303.012864 307.584 
L 305.526989 307.584 
L 305.526989 307.584 
L 303.012864 307.584 
z
" style="fill:#ff7f0e;"/>
   </g>
   <g id="patch_88">
    <path clip-path="url(#p42de4eb21e)" d="M 309.298176 307.584 
L 311.812301 307.584 
L 311.812301 307.584 
L 309.298176 307.584 
z
" style="fill:#ff7f0e;"/>
   </g>
   <g id="patch_89">
    <path clip-path="url(#p42de4eb21e)" d="M 315.583488 307.584 
L 318.097613 307.584 
L 318.097613 247.360634 
L 315.583488 247.360634 
z
" style="fill:#ff7f0e;"/>
   </g>
   <g id="patch_90">
    <path clip-path="url(#p42de4eb21e)" d="M 321.8688 307.584 
L 324.382925 307.584 
L 324.382925 307.584 
L 321.8688 307.584 
z
" style="fill:#ff7f0e;"/>
   </g>
   <g id="patch_91">
    <path clip-path="url(#p42de4eb21e)" d="M 328.154112 307.584 
L 330.668237 307.584 
L 330.668237 307.584 
L 328.154112 307.584 
z
" style="fill:#ff7f0e;"/>
   </g>
   <g id="patch_92">
    <path clip-path="url(#p42de4eb21e)" d="M 334.439424 307.584 
L 336.953549 307.584 
L 336.953549 307.584 
L 334.439424 307.584 
z
" style="fill:#ff7f0e;"/>
   </g>
   <g id="patch_93">
    <path clip-path="url(#p42de4eb21e)" d="M 340.724736 307.584 
L 343.238861 307.584 
L 343.238861 300.056079 
L 340.724736 300.056079 
z
" style="fill:#ff7f0e;"/>
   </g>
   <g id="patch_94">
    <path clip-path="url(#p42de4eb21e)" d="M 347.010048 307.584 
L 349.524173 307.584 
L 349.524173 307.584 
L 347.010048 307.584 
z
" style="fill:#ff7f0e;"/>
   </g>
   <g id="patch_95">
    <path clip-path="url(#p42de4eb21e)" d="M 353.29536 307.584 
L 355.809485 307.584 
L 355.809485 307.584 
L 353.29536 307.584 
z
" style="fill:#ff7f0e;"/>
   </g>
   <g id="patch_96">
    <path clip-path="url(#p42de4eb21e)" d="M 359.580672 307.584 
L 362.094797 307.584 
L 362.094797 307.584 
L 359.580672 307.584 
z
" style="fill:#ff7f0e;"/>
   </g>
   <g id="patch_97">
    <path clip-path="url(#p42de4eb21e)" d="M 365.865984 307.584 
L 368.380109 307.584 
L 368.380109 307.584 
L 365.865984 307.584 
z
" style="fill:#ff7f0e;"/>
   </g>
   <g id="patch_98">
    <path clip-path="url(#p42de4eb21e)" d="M 372.151296 307.584 
L 374.665421 307.584 
L 374.665421 307.584 
L 372.151296 307.584 
z
" style="fill:#ff7f0e;"/>
   </g>
   <g id="patch_99">
    <path clip-path="url(#p42de4eb21e)" d="M 378.436608 307.584 
L 380.950733 307.584 
L 380.950733 307.584 
L 378.436608 307.584 
z
" style="fill:#ff7f0e;"/>
   </g>
   <g id="patch_100">
    <path clip-path="url(#p42de4eb21e)" d="M 384.72192 307.584 
L 387.236045 307.584 
L 387.236045 307.584 
L 384.72192 307.584 
z
" style="fill:#ff7f0e;"/>
   </g>
   <g id="patch_101">
    <path clip-path="url(#p42de4eb21e)" d="M 391.007232 307.584 
L 393.521357 307.584 
L 393.521357 307.584 
L 391.007232 307.584 
z
" style="fill:#ff7f0e;"/>
   </g>
   <g id="patch_102">
    <path clip-path="url(#p42de4eb21e)" d="M 397.292544 307.584 
L 399.806669 307.584 
L 399.806669 109.348752 
L 397.292544 109.348752 
z
" style="fill:#ff7f0e;"/>
   </g>
   <g id="matplotlib.axis_1">
    <g id="xtick_1">
     <g id="line2d_1">
      <defs>
       <path d="M 0 0 
L 0 3.5 
" id="mac50f3ad44" style="stroke:#1a1a1a;stroke-width:0.8;"/>
      </defs>
      <g>
       <use style="fill:#1a1a1a;stroke:#1a1a1a;stroke-width:0.8;" x="57.6" xlink:href="#mac50f3ad44" y="307.584"/>
      </g>
     </g>
     <g id="text_1">
      <!-- 0 -->
      <defs>
       <path d="M 31.78125 66.40625 
Q 24.171875 66.40625 20.328125 58.90625 
Q 16.5 51.421875 16.5 36.375 
Q 16.5 21.390625 20.328125 13.890625 
Q 24.171875 6.390625 31.78125 6.390625 
Q 39.453125 6.390625 43.28125 13.890625 
Q 47.125 21.390625 47.125 36.375 
Q 47.125 51.421875 43.28125 58.90625 
Q 39.453125 66.40625 31.78125 66.40625 
z
M 31.78125 74.21875 
Q 44.046875 74.21875 50.515625 64.515625 
Q 56.984375 54.828125 56.984375 36.375 
Q 56.984375 17.96875 50.515625 8.265625 
Q 44.046875 -1.421875 31.78125 -1.421875 
Q 19.53125 -1.421875 13.0625 8.265625 
Q 6.59375 17.96875 6.59375 36.375 
Q 6.59375 54.828125 13.0625 64.515625 
Q 19.53125 74.21875 31.78125 74.21875 
z
" id="DejaVuSans-30"/>
      </defs>
      <g style="fill:#1a1a1a;" transform="translate(53.14625 325.221812)scale(0.14 -0.14)">
       <use xlink:href="#DejaVuSans-30"/>
      </g>
     </g>
    </g>
    <g id="xtick_2">
     <g id="line2d_2">
      <g>
       <use style="fill:#1a1a1a;stroke:#1a1a1a;stroke-width:0.8;" x="86.1696" xlink:href="#mac50f3ad44" y="307.584"/>
      </g>
     </g>
     <g id="text_2">
      <!-- 1 -->
      <defs>
       <path d="M 12.40625 8.296875 
L 28.515625 8.296875 
L 28.515625 63.921875 
L 10.984375 60.40625 
L 10.984375 69.390625 
L 28.421875 72.90625 
L 38.28125 72.90625 
L 38.28125 8.296875 
L 54.390625 8.296875 
L 54.390625 0 
L 12.40625 0 
z
" id="DejaVuSans-31"/>
      </defs>
      <g style="fill:#1a1a1a;" transform="translate(81.71585 325.221812)scale(0.14 -0.14)">
       <use xlink:href="#DejaVuSans-31"/>
      </g>
     </g>
    </g>
    <g id="xtick_3">
     <g id="line2d_3">
      <g>
       <use style="fill:#1a1a1a;stroke:#1a1a1a;stroke-width:0.8;" x="114.7392" xlink:href="#mac50f3ad44" y="307.584"/>
      </g>
     </g>
     <g id="text_3">
      <!-- 2 -->
      <defs>
       <path d="M 19.1875 8.296875 
L 53.609375 8.296875 
L 53.609375 0 
L 7.328125 0 
L 7.328125 8.296875 
Q 12.9375 14.109375 22.625 23.890625 
Q 32.328125 33.6875 34.8125 36.53125 
Q 39.546875 41.84375 41.421875 45.53125 
Q 43.3125 49.21875 43.3125 52.78125 
Q 43.3125 58.59375 39.234375 62.25 
Q 35.15625 65.921875 28.609375 65.921875 
Q 23.96875 65.921875 18.8125 64.3125 
Q 13.671875 62.703125 7.8125 59.421875 
L 7.8125 69.390625 
Q 13.765625 71.78125 18.9375 73 
Q 24.125 74.21875 28.421875 74.21875 
Q 39.75 74.21875 46.484375 68.546875 
Q 53.21875 62.890625 53.21875 53.421875 
Q 53.21875 48.921875 51.53125 44.890625 
Q 49.859375 40.875 45.40625 35.40625 
Q 44.1875 33.984375 37.640625 27.21875 
Q 31.109375 20.453125 19.1875 8.296875 
z
" id="DejaVuSans-32"/>
      </defs>
      <g style="fill:#1a1a1a;" transform="translate(110.28545 325.221812)scale(0.14 -0.14)">
       <use xlink:href="#DejaVuSans-32"/>
      </g>
     </g>
    </g>
    <g id="xtick_4">
     <g id="line2d_4">
      <g>
       <use style="fill:#1a1a1a;stroke:#1a1a1a;stroke-width:0.8;" x="143.3088" xlink:href="#mac50f3ad44" y="307.584"/>
      </g>
     </g>
     <g id="text_4">
      <!-- 3 -->
      <defs>
       <path d="M 40.578125 39.3125 
Q 47.65625 37.796875 51.625 33 
Q 55.609375 28.21875 55.609375 21.1875 
Q 55.609375 10.40625 48.1875 4.484375 
Q 40.765625 -1.421875 27.09375 -1.421875 
Q 22.515625 -1.421875 17.65625 -0.515625 
Q 12.796875 0.390625 7.625 2.203125 
L 7.625 11.71875 
Q 11.71875 9.328125 16.59375 8.109375 
Q 21.484375 6.890625 26.8125 6.890625 
Q 36.078125 6.890625 40.9375 10.546875 
Q 45.796875 14.203125 45.796875 21.1875 
Q 45.796875 27.640625 41.28125 31.265625 
Q 36.765625 34.90625 28.71875 34.90625 
L 20.21875 34.90625 
L 20.21875 43.015625 
L 29.109375 43.015625 
Q 36.375 43.015625 40.234375 45.921875 
Q 44.09375 48.828125 44.09375 54.296875 
Q 44.09375 59.90625 40.109375 62.90625 
Q 36.140625 65.921875 28.71875 65.921875 
Q 24.65625 65.921875 20.015625 65.03125 
Q 15.375 64.15625 9.8125 62.3125 
L 9.8125 71.09375 
Q 15.4375 72.65625 20.34375 73.4375 
Q 25.25 74.21875 29.59375 74.21875 
Q 40.828125 74.21875 47.359375 69.109375 
Q 53.90625 64.015625 53.90625 55.328125 
Q 53.90625 49.265625 50.4375 45.09375 
Q 46.96875 40.921875 40.578125 39.3125 
z
" id="DejaVuSans-33"/>
      </defs>
      <g style="fill:#1a1a1a;" transform="translate(138.85505 325.221812)scale(0.14 -0.14)">
       <use xlink:href="#DejaVuSans-33"/>
      </g>
     </g>
    </g>
    <g id="xtick_5">
     <g id="line2d_5">
      <g>
       <use style="fill:#1a1a1a;stroke:#1a1a1a;stroke-width:0.8;" x="171.8784" xlink:href="#mac50f3ad44" y="307.584"/>
      </g>
     </g>
     <g id="text_5">
      <!-- 4 -->
      <defs>
       <path d="M 37.796875 64.3125 
L 12.890625 25.390625 
L 37.796875 25.390625 
z
M 35.203125 72.90625 
L 47.609375 72.90625 
L 47.609375 25.390625 
L 58.015625 25.390625 
L 58.015625 17.1875 
L 47.609375 17.1875 
L 47.609375 0 
L 37.796875 0 
L 37.796875 17.1875 
L 4.890625 17.1875 
L 4.890625 26.703125 
z
" id="DejaVuSans-34"/>
      </defs>
      <g style="fill:#1a1a1a;" transform="translate(167.42465 325.221812)scale(0.14 -0.14)">
       <use xlink:href="#DejaVuSans-34"/>
      </g>
     </g>
    </g>
    <g id="xtick_6">
     <g id="line2d_6">
      <g>
       <use style="fill:#1a1a1a;stroke:#1a1a1a;stroke-width:0.8;" x="200.448" xlink:href="#mac50f3ad44" y="307.584"/>
      </g>
     </g>
     <g id="text_6">
      <!-- 5 -->
      <defs>
       <path d="M 10.796875 72.90625 
L 49.515625 72.90625 
L 49.515625 64.59375 
L 19.828125 64.59375 
L 19.828125 46.734375 
Q 21.96875 47.46875 24.109375 47.828125 
Q 26.265625 48.1875 28.421875 48.1875 
Q 40.625 48.1875 47.75 41.5 
Q 54.890625 34.8125 54.890625 23.390625 
Q 54.890625 11.625 47.5625 5.09375 
Q 40.234375 -1.421875 26.90625 -1.421875 
Q 22.3125 -1.421875 17.546875 -0.640625 
Q 12.796875 0.140625 7.71875 1.703125 
L 7.71875 11.625 
Q 12.109375 9.234375 16.796875 8.0625 
Q 21.484375 6.890625 26.703125 6.890625 
Q 35.15625 6.890625 40.078125 11.328125 
Q 45.015625 15.765625 45.015625 23.390625 
Q 45.015625 31 40.078125 35.4375 
Q 35.15625 39.890625 26.703125 39.890625 
Q 22.75 39.890625 18.8125 39.015625 
Q 14.890625 38.140625 10.796875 36.28125 
z
" id="DejaVuSans-35"/>
      </defs>
      <g style="fill:#1a1a1a;" transform="translate(195.99425 325.221812)scale(0.14 -0.14)">
       <use xlink:href="#DejaVuSans-35"/>
      </g>
     </g>
    </g>
    <g id="xtick_7">
     <g id="line2d_7">
      <g>
       <use style="fill:#1a1a1a;stroke:#1a1a1a;stroke-width:0.8;" x="229.0176" xlink:href="#mac50f3ad44" y="307.584"/>
      </g>
     </g>
     <g id="text_7">
      <!-- 6 -->
      <defs>
       <path d="M 33.015625 40.375 
Q 26.375 40.375 22.484375 35.828125 
Q 18.609375 31.296875 18.609375 23.390625 
Q 18.609375 15.53125 22.484375 10.953125 
Q 26.375 6.390625 33.015625 6.390625 
Q 39.65625 6.390625 43.53125 10.953125 
Q 47.40625 15.53125 47.40625 23.390625 
Q 47.40625 31.296875 43.53125 35.828125 
Q 39.65625 40.375 33.015625 40.375 
z
M 52.59375 71.296875 
L 52.59375 62.3125 
Q 48.875 64.0625 45.09375 64.984375 
Q 41.3125 65.921875 37.59375 65.921875 
Q 27.828125 65.921875 22.671875 59.328125 
Q 17.53125 52.734375 16.796875 39.40625 
Q 19.671875 43.65625 24.015625 45.921875 
Q 28.375 48.1875 33.59375 48.1875 
Q 44.578125 48.1875 50.953125 41.515625 
Q 57.328125 34.859375 57.328125 23.390625 
Q 57.328125 12.15625 50.6875 5.359375 
Q 44.046875 -1.421875 33.015625 -1.421875 
Q 20.359375 -1.421875 13.671875 8.265625 
Q 6.984375 17.96875 6.984375 36.375 
Q 6.984375 53.65625 15.1875 63.9375 
Q 23.390625 74.21875 37.203125 74.21875 
Q 40.921875 74.21875 44.703125 73.484375 
Q 48.484375 72.75 52.59375 71.296875 
z
" id="DejaVuSans-36"/>
      </defs>
      <g style="fill:#1a1a1a;" transform="translate(224.56385 325.221812)scale(0.14 -0.14)">
       <use xlink:href="#DejaVuSans-36"/>
      </g>
     </g>
    </g>
    <g id="xtick_8">
     <g id="line2d_8">
      <g>
       <use style="fill:#1a1a1a;stroke:#1a1a1a;stroke-width:0.8;" x="257.5872" xlink:href="#mac50f3ad44" y="307.584"/>
      </g>
     </g>
     <g id="text_8">
      <!-- 7 -->
      <defs>
       <path d="M 8.203125 72.90625 
L 55.078125 72.90625 
L 55.078125 68.703125 
L 28.609375 0 
L 18.3125 0 
L 43.21875 64.59375 
L 8.203125 64.59375 
z
" id="DejaVuSans-37"/>
      </defs>
      <g style="fill:#1a1a1a;" transform="translate(253.13345 325.221812)scale(0.14 -0.14)">
       <use xlink:href="#DejaVuSans-37"/>
      </g>
     </g>
    </g>
    <g id="xtick_9">
     <g id="line2d_9">
      <g>
       <use style="fill:#1a1a1a;stroke:#1a1a1a;stroke-width:0.8;" x="286.1568" xlink:href="#mac50f3ad44" y="307.584"/>
      </g>
     </g>
     <g id="text_9">
      <!-- 8 -->
      <defs>
       <path d="M 31.78125 34.625 
Q 24.75 34.625 20.71875 30.859375 
Q 16.703125 27.09375 16.703125 20.515625 
Q 16.703125 13.921875 20.71875 10.15625 
Q 24.75 6.390625 31.78125 6.390625 
Q 38.8125 6.390625 42.859375 10.171875 
Q 46.921875 13.96875 46.921875 20.515625 
Q 46.921875 27.09375 42.890625 30.859375 
Q 38.875 34.625 31.78125 34.625 
z
M 21.921875 38.8125 
Q 15.578125 40.375 12.03125 44.71875 
Q 8.5 49.078125 8.5 55.328125 
Q 8.5 64.0625 14.71875 69.140625 
Q 20.953125 74.21875 31.78125 74.21875 
Q 42.671875 74.21875 48.875 69.140625 
Q 55.078125 64.0625 55.078125 55.328125 
Q 55.078125 49.078125 51.53125 44.71875 
Q 48 40.375 41.703125 38.8125 
Q 48.828125 37.15625 52.796875 32.3125 
Q 56.78125 27.484375 56.78125 20.515625 
Q 56.78125 9.90625 50.3125 4.234375 
Q 43.84375 -1.421875 31.78125 -1.421875 
Q 19.734375 -1.421875 13.25 4.234375 
Q 6.78125 9.90625 6.78125 20.515625 
Q 6.78125 27.484375 10.78125 32.3125 
Q 14.796875 37.15625 21.921875 38.8125 
z
M 18.3125 54.390625 
Q 18.3125 48.734375 21.84375 45.5625 
Q 25.390625 42.390625 31.78125 42.390625 
Q 38.140625 42.390625 41.71875 45.5625 
Q 45.3125 48.734375 45.3125 54.390625 
Q 45.3125 60.0625 41.71875 63.234375 
Q 38.140625 66.40625 31.78125 66.40625 
Q 25.390625 66.40625 21.84375 63.234375 
Q 18.3125 60.0625 18.3125 54.390625 
z
" id="DejaVuSans-38"/>
      </defs>
      <g style="fill:#1a1a1a;" transform="translate(281.70305 325.221812)scale(0.14 -0.14)">
       <use xlink:href="#DejaVuSans-38"/>
      </g>
     </g>
    </g>
    <g id="xtick_10">
     <g id="line2d_10">
      <g>
       <use style="fill:#1a1a1a;stroke:#1a1a1a;stroke-width:0.8;" x="314.7264" xlink:href="#mac50f3ad44" y="307.584"/>
      </g>
     </g>
     <g id="text_10">
      <!-- 9 -->
      <defs>
       <path d="M 10.984375 1.515625 
L 10.984375 10.5 
Q 14.703125 8.734375 18.5 7.8125 
Q 22.3125 6.890625 25.984375 6.890625 
Q 35.75 6.890625 40.890625 13.453125 
Q 46.046875 20.015625 46.78125 33.40625 
Q 43.953125 29.203125 39.59375 26.953125 
Q 35.25 24.703125 29.984375 24.703125 
Q 19.046875 24.703125 12.671875 31.3125 
Q 6.296875 37.9375 6.296875 49.421875 
Q 6.296875 60.640625 12.9375 67.421875 
Q 19.578125 74.21875 30.609375 74.21875 
Q 43.265625 74.21875 49.921875 64.515625 
Q 56.59375 54.828125 56.59375 36.375 
Q 56.59375 19.140625 48.40625 8.859375 
Q 40.234375 -1.421875 26.421875 -1.421875 
Q 22.703125 -1.421875 18.890625 -0.6875 
Q 15.09375 0.046875 10.984375 1.515625 
z
M 30.609375 32.421875 
Q 37.25 32.421875 41.125 36.953125 
Q 45.015625 41.5 45.015625 49.421875 
Q 45.015625 57.28125 41.125 61.84375 
Q 37.25 66.40625 30.609375 66.40625 
Q 23.96875 66.40625 20.09375 61.84375 
Q 16.21875 57.28125 16.21875 49.421875 
Q 16.21875 41.5 20.09375 36.953125 
Q 23.96875 32.421875 30.609375 32.421875 
z
" id="DejaVuSans-39"/>
      </defs>
      <g style="fill:#1a1a1a;" transform="translate(310.27265 325.221812)scale(0.14 -0.14)">
       <use xlink:href="#DejaVuSans-39"/>
      </g>
     </g>
    </g>
    <g id="xtick_11">
     <g id="line2d_11">
      <g>
       <use style="fill:#1a1a1a;stroke:#1a1a1a;stroke-width:0.8;" x="343.296" xlink:href="#mac50f3ad44" y="307.584"/>
      </g>
     </g>
     <g id="text_11">
      <!-- 10 -->
      <g style="fill:#1a1a1a;" transform="translate(334.3885 325.221812)scale(0.14 -0.14)">
       <use xlink:href="#DejaVuSans-31"/>
       <use x="63.623047" xlink:href="#DejaVuSans-30"/>
      </g>
     </g>
    </g>
    <g id="xtick_12">
     <g id="line2d_12">
      <g>
       <use style="fill:#1a1a1a;stroke:#1a1a1a;stroke-width:0.8;" x="371.8656" xlink:href="#mac50f3ad44" y="307.584"/>
      </g>
     </g>
     <g id="text_12">
      <!-- 11 -->
      <g style="fill:#1a1a1a;" transform="translate(362.9581 325.221812)scale(0.14 -0.14)">
       <use xlink:href="#DejaVuSans-31"/>
       <use x="63.623047" xlink:href="#DejaVuSans-31"/>
      </g>
     </g>
    </g>
    <g id="xtick_13">
     <g id="line2d_13">
      <g>
       <use style="fill:#1a1a1a;stroke:#1a1a1a;stroke-width:0.8;" x="400.4352" xlink:href="#mac50f3ad44" y="307.584"/>
      </g>
     </g>
     <g id="text_13">
      <!-- 12 -->
      <g style="fill:#1a1a1a;" transform="translate(391.5277 325.221812)scale(0.14 -0.14)">
       <use xlink:href="#DejaVuSans-31"/>
       <use x="63.623047" xlink:href="#DejaVuSans-32"/>
      </g>
     </g>
    </g>
    <g id="text_14">
     <!-- Insertion / deletion SHM length -->
     <defs>
      <path d="M 9.8125 72.90625 
L 19.671875 72.90625 
L 19.671875 0 
L 9.8125 0 
z
" id="DejaVuSans-49"/>
      <path d="M 54.890625 33.015625 
L 54.890625 0 
L 45.90625 0 
L 45.90625 32.71875 
Q 45.90625 40.484375 42.875 44.328125 
Q 39.84375 48.1875 33.796875 48.1875 
Q 26.515625 48.1875 22.3125 43.546875 
Q 18.109375 38.921875 18.109375 30.90625 
L 18.109375 0 
L 9.078125 0 
L 9.078125 54.6875 
L 18.109375 54.6875 
L 18.109375 46.1875 
Q 21.34375 51.125 25.703125 53.5625 
Q 30.078125 56 35.796875 56 
Q 45.21875 56 50.046875 50.171875 
Q 54.890625 44.34375 54.890625 33.015625 
z
" id="DejaVuSans-6e"/>
      <path d="M 44.28125 53.078125 
L 44.28125 44.578125 
Q 40.484375 46.53125 36.375 47.5 
Q 32.28125 48.484375 27.875 48.484375 
Q 21.1875 48.484375 17.84375 46.4375 
Q 14.5 44.390625 14.5 40.28125 
Q 14.5 37.15625 16.890625 35.375 
Q 19.28125 33.59375 26.515625 31.984375 
L 29.59375 31.296875 
Q 39.15625 29.25 43.1875 25.515625 
Q 47.21875 21.78125 47.21875 15.09375 
Q 47.21875 7.46875 41.1875 3.015625 
Q 35.15625 -1.421875 24.609375 -1.421875 
Q 20.21875 -1.421875 15.453125 -0.5625 
Q 10.6875 0.296875 5.421875 2 
L 5.421875 11.28125 
Q 10.40625 8.6875 15.234375 7.390625 
Q 20.0625 6.109375 24.8125 6.109375 
Q 31.15625 6.109375 34.5625 8.28125 
Q 37.984375 10.453125 37.984375 14.40625 
Q 37.984375 18.0625 35.515625 20.015625 
Q 33.0625 21.96875 24.703125 23.78125 
L 21.578125 24.515625 
Q 13.234375 26.265625 9.515625 29.90625 
Q 5.8125 33.546875 5.8125 39.890625 
Q 5.8125 47.609375 11.28125 51.796875 
Q 16.75 56 26.8125 56 
Q 31.78125 56 36.171875 55.265625 
Q 40.578125 54.546875 44.28125 53.078125 
z
" id="DejaVuSans-73"/>
      <path d="M 56.203125 29.59375 
L 56.203125 25.203125 
L 14.890625 25.203125 
Q 15.484375 15.921875 20.484375 11.0625 
Q 25.484375 6.203125 34.421875 6.203125 
Q 39.59375 6.203125 44.453125 7.46875 
Q 49.3125 8.734375 54.109375 11.28125 
L 54.109375 2.78125 
Q 49.265625 0.734375 44.1875 -0.34375 
Q 39.109375 -1.421875 33.890625 -1.421875 
Q 20.796875 -1.421875 13.15625 6.1875 
Q 5.515625 13.8125 5.515625 26.8125 
Q 5.515625 40.234375 12.765625 48.109375 
Q 20.015625 56 32.328125 56 
Q 43.359375 56 49.78125 48.890625 
Q 56.203125 41.796875 56.203125 29.59375 
z
M 47.21875 32.234375 
Q 47.125 39.59375 43.09375 43.984375 
Q 39.0625 48.390625 32.421875 48.390625 
Q 24.90625 48.390625 20.390625 44.140625 
Q 15.875 39.890625 15.1875 32.171875 
z
" id="DejaVuSans-65"/>
      <path d="M 41.109375 46.296875 
Q 39.59375 47.171875 37.8125 47.578125 
Q 36.03125 48 33.890625 48 
Q 26.265625 48 22.1875 43.046875 
Q 18.109375 38.09375 18.109375 28.8125 
L 18.109375 0 
L 9.078125 0 
L 9.078125 54.6875 
L 18.109375 54.6875 
L 18.109375 46.1875 
Q 20.953125 51.171875 25.484375 53.578125 
Q 30.03125 56 36.53125 56 
Q 37.453125 56 38.578125 55.875 
Q 39.703125 55.765625 41.0625 55.515625 
z
" id="DejaVuSans-72"/>
      <path d="M 18.3125 70.21875 
L 18.3125 54.6875 
L 36.8125 54.6875 
L 36.8125 47.703125 
L 18.3125 47.703125 
L 18.3125 18.015625 
Q 18.3125 11.328125 20.140625 9.421875 
Q 21.96875 7.515625 27.59375 7.515625 
L 36.8125 7.515625 
L 36.8125 0 
L 27.59375 0 
Q 17.1875 0 13.234375 3.875 
Q 9.28125 7.765625 9.28125 18.015625 
L 9.28125 47.703125 
L 2.6875 47.703125 
L 2.6875 54.6875 
L 9.28125 54.6875 
L 9.28125 70.21875 
z
" id="DejaVuSans-74"/>
      <path d="M 9.421875 54.6875 
L 18.40625 54.6875 
L 18.40625 0 
L 9.421875 0 
z
M 9.421875 75.984375 
L 18.40625 75.984375 
L 18.40625 64.59375 
L 9.421875 64.59375 
z
" id="DejaVuSans-69"/>
      <path d="M 30.609375 48.390625 
Q 23.390625 48.390625 19.1875 42.75 
Q 14.984375 37.109375 14.984375 27.296875 
Q 14.984375 17.484375 19.15625 11.84375 
Q 23.34375 6.203125 30.609375 6.203125 
Q 37.796875 6.203125 41.984375 11.859375 
Q 46.1875 17.53125 46.1875 27.296875 
Q 46.1875 37.015625 41.984375 42.703125 
Q 37.796875 48.390625 30.609375 48.390625 
z
M 30.609375 56 
Q 42.328125 56 49.015625 48.375 
Q 55.71875 40.765625 55.71875 27.296875 
Q 55.71875 13.875 49.015625 6.21875 
Q 42.328125 -1.421875 30.609375 -1.421875 
Q 18.84375 -1.421875 12.171875 6.21875 
Q 5.515625 13.875 5.515625 27.296875 
Q 5.515625 40.765625 12.171875 48.375 
Q 18.84375 56 30.609375 56 
z
" id="DejaVuSans-6f"/>
      <path id="DejaVuSans-20"/>
      <path d="M 25.390625 72.90625 
L 33.6875 72.90625 
L 8.296875 -9.28125 
L 0 -9.28125 
z
" id="DejaVuSans-2f"/>
      <path d="M 45.40625 46.390625 
L 45.40625 75.984375 
L 54.390625 75.984375 
L 54.390625 0 
L 45.40625 0 
L 45.40625 8.203125 
Q 42.578125 3.328125 38.25 0.953125 
Q 33.9375 -1.421875 27.875 -1.421875 
Q 17.96875 -1.421875 11.734375 6.484375 
Q 5.515625 14.40625 5.515625 27.296875 
Q 5.515625 40.1875 11.734375 48.09375 
Q 17.96875 56 27.875 56 
Q 33.9375 56 38.25 53.625 
Q 42.578125 51.265625 45.40625 46.390625 
z
M 14.796875 27.296875 
Q 14.796875 17.390625 18.875 11.75 
Q 22.953125 6.109375 30.078125 6.109375 
Q 37.203125 6.109375 41.296875 11.75 
Q 45.40625 17.390625 45.40625 27.296875 
Q 45.40625 37.203125 41.296875 42.84375 
Q 37.203125 48.484375 30.078125 48.484375 
Q 22.953125 48.484375 18.875 42.84375 
Q 14.796875 37.203125 14.796875 27.296875 
z
" id="DejaVuSans-64"/>
      <path d="M 9.421875 75.984375 
L 18.40625 75.984375 
L 18.40625 0 
L 9.421875 0 
z
" id="DejaVuSans-6c"/>
      <path d="M 53.515625 70.515625 
L 53.515625 60.890625 
Q 47.90625 63.578125 42.921875 64.890625 
Q 37.9375 66.21875 33.296875 66.21875 
Q 25.25 66.21875 20.875 63.09375 
Q 16.5 59.96875 16.5 54.203125 
Q 16.5 49.359375 19.40625 46.890625 
Q 22.3125 44.4375 30.421875 42.921875 
L 36.375 41.703125 
Q 47.40625 39.59375 52.65625 34.296875 
Q 57.90625 29 57.90625 20.125 
Q 57.90625 9.515625 50.796875 4.046875 
Q 43.703125 -1.421875 29.984375 -1.421875 
Q 24.8125 -1.421875 18.96875 -0.25 
Q 13.140625 0.921875 6.890625 3.21875 
L 6.890625 13.375 
Q 12.890625 10.015625 18.65625 8.296875 
Q 24.421875 6.59375 29.984375 6.59375 
Q 38.421875 6.59375 43.015625 9.90625 
Q 47.609375 13.234375 47.609375 19.390625 
Q 47.609375 24.75 44.3125 27.78125 
Q 41.015625 30.8125 33.5 32.328125 
L 27.484375 33.5 
Q 16.453125 35.6875 11.515625 40.375 
Q 6.59375 45.0625 6.59375 53.421875 
Q 6.59375 63.09375 13.40625 68.65625 
Q 20.21875 74.21875 32.171875 74.21875 
Q 37.3125 74.21875 42.625 73.28125 
Q 47.953125 72.359375 53.515625 70.515625 
z
" id="DejaVuSans-53"/>
      <path d="M 9.8125 72.90625 
L 19.671875 72.90625 
L 19.671875 43.015625 
L 55.515625 43.015625 
L 55.515625 72.90625 
L 65.375 72.90625 
L 65.375 0 
L 55.515625 0 
L 55.515625 34.71875 
L 19.671875 34.71875 
L 19.671875 0 
L 9.8125 0 
z
" id="DejaVuSans-48"/>
      <path d="M 9.8125 72.90625 
L 24.515625 72.90625 
L 43.109375 23.296875 
L 61.8125 72.90625 
L 76.515625 72.90625 
L 76.515625 0 
L 66.890625 0 
L 66.890625 64.015625 
L 48.09375 14.015625 
L 38.1875 14.015625 
L 19.390625 64.015625 
L 19.390625 0 
L 9.8125 0 
z
" id="DejaVuSans-4d"/>
      <path d="M 45.40625 27.984375 
Q 45.40625 37.75 41.375 43.109375 
Q 37.359375 48.484375 30.078125 48.484375 
Q 22.859375 48.484375 18.828125 43.109375 
Q 14.796875 37.75 14.796875 27.984375 
Q 14.796875 18.265625 18.828125 12.890625 
Q 22.859375 7.515625 30.078125 7.515625 
Q 37.359375 7.515625 41.375 12.890625 
Q 45.40625 18.265625 45.40625 27.984375 
z
M 54.390625 6.78125 
Q 54.390625 -7.171875 48.1875 -13.984375 
Q 42 -20.796875 29.203125 -20.796875 
Q 24.46875 -20.796875 20.265625 -20.09375 
Q 16.0625 -19.390625 12.109375 -17.921875 
L 12.109375 -9.1875 
Q 16.0625 -11.328125 19.921875 -12.34375 
Q 23.78125 -13.375 27.78125 -13.375 
Q 36.625 -13.375 41.015625 -8.765625 
Q 45.40625 -4.15625 45.40625 5.171875 
L 45.40625 9.625 
Q 42.625 4.78125 38.28125 2.390625 
Q 33.9375 0 27.875 0 
Q 17.828125 0 11.671875 7.65625 
Q 5.515625 15.328125 5.515625 27.984375 
Q 5.515625 40.671875 11.671875 48.328125 
Q 17.828125 56 27.875 56 
Q 33.9375 56 38.28125 53.609375 
Q 42.625 51.21875 45.40625 46.390625 
L 45.40625 54.6875 
L 54.390625 54.6875 
z
" id="DejaVuSans-67"/>
      <path d="M 54.890625 33.015625 
L 54.890625 0 
L 45.90625 0 
L 45.90625 32.71875 
Q 45.90625 40.484375 42.875 44.328125 
Q 39.84375 48.1875 33.796875 48.1875 
Q 26.515625 48.1875 22.3125 43.546875 
Q 18.109375 38.921875 18.109375 30.90625 
L 18.109375 0 
L 9.078125 0 
L 9.078125 75.984375 
L 18.109375 75.984375 
L 18.109375 46.1875 
Q 21.34375 51.125 25.703125 53.5625 
Q 30.078125 56 35.796875 56 
Q 45.21875 56 50.046875 50.171875 
Q 54.890625 44.34375 54.890625 33.015625 
z
" id="DejaVuSans-68"/>
     </defs>
     <g style="fill:#1a1a1a;" transform="translate(112.195 344.290875)scale(0.16 -0.16)">
      <use xlink:href="#DejaVuSans-49"/>
      <use x="29.492188" xlink:href="#DejaVuSans-6e"/>
      <use x="92.871094" xlink:href="#DejaVuSans-73"/>
      <use x="144.970703" xlink:href="#DejaVuSans-65"/>
      <use x="206.494141" xlink:href="#DejaVuSans-72"/>
      <use x="247.607422" xlink:href="#DejaVuSans-74"/>
      <use x="286.816406" xlink:href="#DejaVuSans-69"/>
      <use x="314.599609" xlink:href="#DejaVuSans-6f"/>
      <use x="375.78125" xlink:href="#DejaVuSans-6e"/>
      <use x="439.160156" xlink:href="#DejaVuSans-20"/>
      <use x="470.947266" xlink:href="#DejaVuSans-2f"/>
      <use x="504.638672" xlink:href="#DejaVuSans-20"/>
      <use x="536.425781" xlink:href="#DejaVuSans-64"/>
      <use x="599.902344" xlink:href="#DejaVuSans-65"/>
      <use x="661.425781" xlink:href="#DejaVuSans-6c"/>
      <use x="689.208984" xlink:href="#DejaVuSans-65"/>
      <use x="750.732422" xlink:href="#DejaVuSans-74"/>
      <use x="789.941406" xlink:href="#DejaVuSans-69"/>
      <use x="817.724609" xlink:href="#DejaVuSans-6f"/>
      <use x="878.90625" xlink:href="#DejaVuSans-6e"/>
      <use x="942.285156" xlink:href="#DejaVuSans-20"/>
      <use x="974.072266" xlink:href="#DejaVuSans-53"/>
      <use x="1037.548828" xlink:href="#DejaVuSans-48"/>
      <use x="1112.744141" xlink:href="#DejaVuSans-4d"/>
      <use x="1199.023438" xlink:href="#DejaVuSans-20"/>
      <use x="1230.810547" xlink:href="#DejaVuSans-6c"/>
      <use x="1258.59375" xlink:href="#DejaVuSans-65"/>
      <use x="1320.117188" xlink:href="#DejaVuSans-6e"/>
      <use x="1383.496094" xlink:href="#DejaVuSans-67"/>
      <use x="1446.972656" xlink:href="#DejaVuSans-74"/>
      <use x="1486.181641" xlink:href="#DejaVuSans-68"/>
     </g>
    </g>
   </g>
   <g id="matplotlib.axis_2">
    <g id="ytick_1">
     <g id="line2d_14">
      <defs>
       <path d="M 0 0 
L -3.5 0 
" id="mbca94adad9" style="stroke:#1a1a1a;stroke-width:0.8;"/>
      </defs>
      <g>
       <use style="fill:#1a1a1a;stroke:#1a1a1a;stroke-width:0.8;" x="57.6" xlink:href="#mbca94adad9" y="307.584"/>
      </g>
     </g>
     <g id="text_15">
      <!-- 0 -->
      <g style="fill:#1a1a1a;" transform="translate(41.6925 312.902906)scale(0.14 -0.14)">
       <use xlink:href="#DejaVuSans-30"/>
      </g>
     </g>
    </g>
    <g id="ytick_2">
     <g id="line2d_15">
      <g>
       <use style="fill:#1a1a1a;stroke:#1a1a1a;stroke-width:0.8;" x="57.6" xlink:href="#mbca94adad9" y="257.397861"/>
      </g>
     </g>
     <g id="text_16">
      <!-- 20 -->
      <g style="fill:#1a1a1a;" transform="translate(32.785 262.716768)scale(0.14 -0.14)">
       <use xlink:href="#DejaVuSans-32"/>
       <use x="63.623047" xlink:href="#DejaVuSans-30"/>
      </g>
     </g>
    </g>
    <g id="ytick_3">
     <g id="line2d_16">
      <g>
       <use style="fill:#1a1a1a;stroke:#1a1a1a;stroke-width:0.8;" x="57.6" xlink:href="#mbca94adad9" y="207.211723"/>
      </g>
     </g>
     <g id="text_17">
      <!-- 40 -->
      <g style="fill:#1a1a1a;" transform="translate(32.785 212.530629)scale(0.14 -0.14)">
       <use xlink:href="#DejaVuSans-34"/>
       <use x="63.623047" xlink:href="#DejaVuSans-30"/>
      </g>
     </g>
    </g>
    <g id="ytick_4">
     <g id="line2d_17">
      <g>
       <use style="fill:#1a1a1a;stroke:#1a1a1a;stroke-width:0.8;" x="57.6" xlink:href="#mbca94adad9" y="157.025584"/>
      </g>
     </g>
     <g id="text_18">
      <!-- 60 -->
      <g style="fill:#1a1a1a;" transform="translate(32.785 162.34449)scale(0.14 -0.14)">
       <use xlink:href="#DejaVuSans-36"/>
       <use x="63.623047" xlink:href="#DejaVuSans-30"/>
      </g>
     </g>
    </g>
    <g id="ytick_5">
     <g id="line2d_18">
      <g>
       <use style="fill:#1a1a1a;stroke:#1a1a1a;stroke-width:0.8;" x="57.6" xlink:href="#mbca94adad9" y="106.839446"/>
      </g>
     </g>
     <g id="text_19">
      <!-- 80 -->
      <g style="fill:#1a1a1a;" transform="translate(32.785 112.158352)scale(0.14 -0.14)">
       <use xlink:href="#DejaVuSans-38"/>
       <use x="63.623047" xlink:href="#DejaVuSans-30"/>
      </g>
     </g>
    </g>
    <g id="ytick_6">
     <g id="line2d_19">
      <g>
       <use style="fill:#1a1a1a;stroke:#1a1a1a;stroke-width:0.8;" x="57.6" xlink:href="#mbca94adad9" y="56.653307"/>
      </g>
     </g>
     <g id="text_20">
      <!-- 100 -->
      <g style="fill:#1a1a1a;" transform="translate(23.8775 61.972213)scale(0.14 -0.14)">
       <use xlink:href="#DejaVuSans-31"/>
       <use x="63.623047" xlink:href="#DejaVuSans-30"/>
       <use x="127.246094" xlink:href="#DejaVuSans-30"/>
      </g>
     </g>
    </g>
    <g id="text_21">
     <!-- # insertion / deletion SHMs -->
     <defs>
      <path d="M 51.125 44 
L 36.921875 44 
L 32.8125 27.6875 
L 47.125 27.6875 
z
M 43.796875 71.78125 
L 38.71875 51.515625 
L 52.984375 51.515625 
L 58.109375 71.78125 
L 65.921875 71.78125 
L 60.890625 51.515625 
L 76.125 51.515625 
L 76.125 44 
L 58.984375 44 
L 54.984375 27.6875 
L 70.515625 27.6875 
L 70.515625 20.21875 
L 53.078125 20.21875 
L 48 0 
L 40.1875 0 
L 45.21875 20.21875 
L 30.90625 20.21875 
L 25.875 0 
L 18.015625 0 
L 23.09375 20.21875 
L 7.71875 20.21875 
L 7.71875 27.6875 
L 24.90625 27.6875 
L 29 44 
L 13.28125 44 
L 13.28125 51.515625 
L 30.90625 51.515625 
L 35.890625 71.78125 
z
" id="DejaVuSans-23"/>
     </defs>
     <g style="fill:#1a1a1a;" transform="translate(16.55 283.72675)rotate(-90)scale(0.16 -0.16)">
      <use xlink:href="#DejaVuSans-23"/>
      <use x="83.789062" xlink:href="#DejaVuSans-20"/>
      <use x="115.576172" xlink:href="#DejaVuSans-69"/>
      <use x="143.359375" xlink:href="#DejaVuSans-6e"/>
      <use x="206.738281" xlink:href="#DejaVuSans-73"/>
      <use x="258.837891" xlink:href="#DejaVuSans-65"/>
      <use x="320.361328" xlink:href="#DejaVuSans-72"/>
      <use x="361.474609" xlink:href="#DejaVuSans-74"/>
      <use x="400.683594" xlink:href="#DejaVuSans-69"/>
      <use x="428.466797" xlink:href="#DejaVuSans-6f"/>
      <use x="489.648438" xlink:href="#DejaVuSans-6e"/>
      <use x="553.027344" xlink:href="#DejaVuSans-20"/>
      <use x="584.814453" xlink:href="#DejaVuSans-2f"/>
      <use x="618.505859" xlink:href="#DejaVuSans-20"/>
      <use x="650.292969" xlink:href="#DejaVuSans-64"/>
      <use x="713.769531" xlink:href="#DejaVuSans-65"/>
      <use x="775.292969" xlink:href="#DejaVuSans-6c"/>
      <use x="803.076172" xlink:href="#DejaVuSans-65"/>
      <use x="864.599609" xlink:href="#DejaVuSans-74"/>
      <use x="903.808594" xlink:href="#DejaVuSans-69"/>
      <use x="931.591797" xlink:href="#DejaVuSans-6f"/>
      <use x="992.773438" xlink:href="#DejaVuSans-6e"/>
      <use x="1056.152344" xlink:href="#DejaVuSans-20"/>
      <use x="1087.939453" xlink:href="#DejaVuSans-53"/>
      <use x="1151.416016" xlink:href="#DejaVuSans-48"/>
      <use x="1226.611328" xlink:href="#DejaVuSans-4d"/>
      <use x="1312.890625" xlink:href="#DejaVuSans-73"/>
     </g>
    </g>
   </g>
   <g id="patch_103">
    <path d="M 57.6 307.584 
L 57.6 41.472 
" style="fill:none;stroke:#1a1a1a;stroke-linecap:square;stroke-linejoin:miter;stroke-width:0.8;"/>
   </g>
   <g id="patch_104">
    <path d="M 414.72 307.584 
L 414.72 41.472 
" style="fill:none;stroke:#1a1a1a;stroke-linecap:square;stroke-linejoin:miter;stroke-width:0.8;"/>
   </g>
   <g id="patch_105">
    <path d="M 57.6 307.584 
L 414.72 307.584 
" style="fill:none;stroke:#1a1a1a;stroke-linecap:square;stroke-linejoin:miter;stroke-width:0.8;"/>
   </g>
   <g id="patch_106">
    <path d="M 57.6 41.472 
L 414.72 41.472 
" style="fill:none;stroke:#1a1a1a;stroke-linecap:square;stroke-linejoin:miter;stroke-width:0.8;"/>
   </g>
   <g id="legend_1">
    <g id="patch_107">
     <path d="M 112.768594 73.221375 
L 359.551406 73.221375 
Q 362.351406 73.221375 362.351406 70.421375 
L 362.351406 51.272 
Q 362.351406 48.472 359.551406 48.472 
L 112.768594 48.472 
Q 109.968594 48.472 109.968594 51.272 
L 109.968594 70.421375 
Q 109.968594 73.221375 112.768594 73.221375 
z
" style="fill:#ffffff;opacity:0.8;stroke:#cccccc;stroke-linejoin:miter;"/>
    </g>
    <g id="patch_108">
     <path d="M 115.568594 64.709812 
L 143.568594 64.709812 
L 143.568594 54.909813 
L 115.568594 54.909813 
z
" style="fill:#1f77b4;"/>
    </g>
    <g id="text_22">
     <!-- Deletions -->
     <defs>
      <path d="M 19.671875 64.796875 
L 19.671875 8.109375 
L 31.59375 8.109375 
Q 46.6875 8.109375 53.6875 14.9375 
Q 60.6875 21.78125 60.6875 36.53125 
Q 60.6875 51.171875 53.6875 57.984375 
Q 46.6875 64.796875 31.59375 64.796875 
z
M 9.8125 72.90625 
L 30.078125 72.90625 
Q 51.265625 72.90625 61.171875 64.09375 
Q 71.09375 55.28125 71.09375 36.53125 
Q 71.09375 17.671875 61.125 8.828125 
Q 51.171875 0 30.078125 0 
L 9.8125 0 
z
" id="DejaVuSans-44"/>
     </defs>
     <g style="fill:#1a1a1a;" transform="translate(154.768594 64.709812)scale(0.14 -0.14)">
      <use xlink:href="#DejaVuSans-44"/>
      <use x="77.001953" xlink:href="#DejaVuSans-65"/>
      <use x="138.525391" xlink:href="#DejaVuSans-6c"/>
      <use x="166.308594" xlink:href="#DejaVuSans-65"/>
      <use x="227.832031" xlink:href="#DejaVuSans-74"/>
      <use x="267.041016" xlink:href="#DejaVuSans-69"/>
      <use x="294.824219" xlink:href="#DejaVuSans-6f"/>
      <use x="356.005859" xlink:href="#DejaVuSans-6e"/>
      <use x="419.384766" xlink:href="#DejaVuSans-73"/>
     </g>
    </g>
    <g id="patch_109">
     <path d="M 248.776406 64.709812 
L 276.776406 64.709812 
L 276.776406 54.909813 
L 248.776406 54.909813 
z
" style="fill:#ff7f0e;"/>
    </g>
    <g id="text_23">
     <!-- Insertions -->
     <g style="fill:#1a1a1a;" transform="translate(287.976406 64.709812)scale(0.14 -0.14)">
      <use xlink:href="#DejaVuSans-49"/>
      <use x="29.492188" xlink:href="#DejaVuSans-6e"/>
      <use x="92.871094" xlink:href="#DejaVuSans-73"/>
      <use x="144.970703" xlink:href="#DejaVuSans-65"/>
      <use x="206.494141" xlink:href="#DejaVuSans-72"/>
      <use x="247.607422" xlink:href="#DejaVuSans-74"/>
      <use x="286.816406" xlink:href="#DejaVuSans-69"/>
      <use x="314.599609" xlink:href="#DejaVuSans-6f"/>
      <use x="375.78125" xlink:href="#DejaVuSans-6e"/>
      <use x="439.160156" xlink:href="#DejaVuSans-73"/>
     </g>
    </g>
   </g>
  </g>
 </g>
 <defs>
  <clipPath id="p42de4eb21e">
   <rect height="266.112" width="357.12" x="57.6" y="41.472"/>
  </clipPath>
 </defs>
</svg>
